G04 #@! TF.GenerationSoftware,KiCad,Pcbnew,9.0.4*
G04 #@! TF.CreationDate,2025-09-23T23:32:06-07:00*
G04 #@! TF.ProjectId,hidpawx_hardware,68696470-6177-4785-9f68-617264776172,rev?*
G04 #@! TF.SameCoordinates,Original*
G04 #@! TF.FileFunction,Legend,Bot*
G04 #@! TF.FilePolarity,Positive*
%FSLAX46Y46*%
G04 Gerber Fmt 4.6, Leading zero omitted, Abs format (unit mm)*
G04 Created by KiCad (PCBNEW 9.0.4) date 2025-09-23 23:32:06*
%MOMM*%
%LPD*%
G01*
G04 APERTURE LIST*
G04 Aperture macros list*
%AMRoundRect*
0 Rectangle with rounded corners*
0 $1 Rounding radius*
0 $2 $3 $4 $5 $6 $7 $8 $9 X,Y pos of 4 corners*
0 Add a 4 corners polygon primitive as box body*
4,1,4,$2,$3,$4,$5,$6,$7,$8,$9,$2,$3,0*
0 Add four circle primitives for the rounded corners*
1,1,$1+$1,$2,$3*
1,1,$1+$1,$4,$5*
1,1,$1+$1,$6,$7*
1,1,$1+$1,$8,$9*
0 Add four rect primitives between the rounded corners*
20,1,$1+$1,$2,$3,$4,$5,0*
20,1,$1+$1,$4,$5,$6,$7,0*
20,1,$1+$1,$6,$7,$8,$9,0*
20,1,$1+$1,$8,$9,$2,$3,0*%
G04 Aperture macros list end*
%ADD10C,0.508000*%
%ADD11C,2.000000*%
%ADD12R,2.000000X2.000000*%
%ADD13C,2.500000*%
%ADD14RoundRect,0.250000X1.000000X-1.000000X1.000000X1.000000X-1.000000X1.000000X-1.000000X-1.000000X0*%
%ADD15R,2.000000X1.200000*%
%ADD16O,2.000000X1.200000*%
%ADD17R,1.700000X1.700000*%
%ADD18C,1.700000*%
%ADD19RoundRect,0.249999X-0.850001X-0.850001X0.850001X-0.850001X0.850001X0.850001X-0.850001X0.850001X0*%
%ADD20C,2.200000*%
G04 APERTURE END LIST*
D10*
X168458600Y-51081904D02*
G75*
G02*
X167696600Y-51081904I-381000J0D01*
G01*
X167696600Y-51081904D02*
G75*
G02*
X168458600Y-51081904I381000J0D01*
G01*
%LPC*%
D11*
X152262500Y-94250000D03*
D12*
X159862500Y-94250000D03*
D13*
X168000000Y-72000000D03*
D14*
X156000000Y-72000000D03*
D13*
X168000000Y-59800000D03*
X156000000Y-59800000D03*
X162000000Y-74000000D03*
D15*
X114570000Y-53107920D03*
D16*
X114570000Y-55647920D03*
X114570000Y-58187920D03*
X114570000Y-60727920D03*
X114570000Y-63267920D03*
X114570000Y-65807920D03*
X114570000Y-68347920D03*
X114570000Y-70887920D03*
X114570000Y-73427920D03*
X114570000Y-75967920D03*
X114570000Y-78507920D03*
X114570000Y-81047920D03*
X114570000Y-83587920D03*
X114570000Y-86127920D03*
X114570000Y-88667920D03*
X114570000Y-91207920D03*
X114570000Y-93747920D03*
X114570000Y-96287920D03*
X114570000Y-98827920D03*
X114566320Y-101365200D03*
X114566320Y-103905200D03*
X114566320Y-106445200D03*
X137430000Y-106447920D03*
X137430000Y-103907920D03*
X137430000Y-101367920D03*
X137430000Y-98827920D03*
X137430000Y-96287920D03*
X137430000Y-93747920D03*
X137430000Y-91207920D03*
X137430000Y-88667920D03*
X137430000Y-86127920D03*
X137430000Y-83587920D03*
X137430000Y-81047920D03*
X137430000Y-78507920D03*
X137430000Y-75967920D03*
X137430000Y-73427920D03*
X137430000Y-70887920D03*
X137430000Y-68347920D03*
X137430000Y-65807920D03*
X137430000Y-63267920D03*
X137430000Y-60727920D03*
X137430000Y-58187920D03*
X137430000Y-55647920D03*
X137430000Y-53107920D03*
D13*
X163632600Y-51081904D03*
X158552600Y-51081904D03*
D17*
X155190000Y-114000000D03*
D18*
X157730000Y-114000000D03*
X160270000Y-114000000D03*
X162810000Y-114000000D03*
D19*
X156777500Y-78497500D03*
D20*
X166937500Y-78497500D03*
%LPD*%
M02*
