G04 #@! TF.GenerationSoftware,KiCad,Pcbnew,9.0.4*
G04 #@! TF.CreationDate,2025-09-23T23:32:06-07:00*
G04 #@! TF.ProjectId,hidpawx_hardware,68696470-6177-4785-9f68-617264776172,rev?*
G04 #@! TF.SameCoordinates,Original*
G04 #@! TF.FileFunction,Copper,L2,Bot*
G04 #@! TF.FilePolarity,Positive*
%FSLAX46Y46*%
G04 Gerber Fmt 4.6, Leading zero omitted, Abs format (unit mm)*
G04 Created by KiCad (PCBNEW 9.0.4) date 2025-09-23 23:32:06*
%MOMM*%
%LPD*%
G01*
G04 APERTURE LIST*
G04 Aperture macros list*
%AMRoundRect*
0 Rectangle with rounded corners*
0 $1 Rounding radius*
0 $2 $3 $4 $5 $6 $7 $8 $9 X,Y pos of 4 corners*
0 Add a 4 corners polygon primitive as box body*
4,1,4,$2,$3,$4,$5,$6,$7,$8,$9,$2,$3,0*
0 Add four circle primitives for the rounded corners*
1,1,$1+$1,$2,$3*
1,1,$1+$1,$4,$5*
1,1,$1+$1,$6,$7*
1,1,$1+$1,$8,$9*
0 Add four rect primitives between the rounded corners*
20,1,$1+$1,$2,$3,$4,$5,0*
20,1,$1+$1,$4,$5,$6,$7,0*
20,1,$1+$1,$6,$7,$8,$9,0*
20,1,$1+$1,$8,$9,$2,$3,0*%
G04 Aperture macros list end*
G04 #@! TA.AperFunction,ComponentPad*
%ADD10C,2.000000*%
G04 #@! TD*
G04 #@! TA.AperFunction,ComponentPad*
%ADD11R,2.000000X2.000000*%
G04 #@! TD*
G04 #@! TA.AperFunction,ComponentPad*
%ADD12C,2.500000*%
G04 #@! TD*
G04 #@! TA.AperFunction,ComponentPad*
%ADD13RoundRect,0.250000X1.000000X-1.000000X1.000000X1.000000X-1.000000X1.000000X-1.000000X-1.000000X0*%
G04 #@! TD*
G04 #@! TA.AperFunction,ComponentPad*
%ADD14R,2.000000X1.200000*%
G04 #@! TD*
G04 #@! TA.AperFunction,ComponentPad*
%ADD15O,2.000000X1.200000*%
G04 #@! TD*
G04 #@! TA.AperFunction,ComponentPad*
%ADD16R,1.700000X1.700000*%
G04 #@! TD*
G04 #@! TA.AperFunction,ComponentPad*
%ADD17C,1.700000*%
G04 #@! TD*
G04 #@! TA.AperFunction,ComponentPad*
%ADD18RoundRect,0.249999X-0.850001X-0.850001X0.850001X-0.850001X0.850001X0.850001X-0.850001X0.850001X0*%
G04 #@! TD*
G04 #@! TA.AperFunction,ComponentPad*
%ADD19C,2.200000*%
G04 #@! TD*
G04 #@! TA.AperFunction,ViaPad*
%ADD20C,0.500000*%
G04 #@! TD*
G04 #@! TA.AperFunction,Conductor*
%ADD21C,0.250000*%
G04 #@! TD*
G04 #@! TA.AperFunction,Conductor*
%ADD22C,1.000000*%
G04 #@! TD*
G04 APERTURE END LIST*
D10*
X152262500Y-94250000D03*
D11*
X159862500Y-94250000D03*
D12*
X168000000Y-72000000D03*
D13*
X156000000Y-72000000D03*
D12*
X168000000Y-59800000D03*
X156000000Y-59800000D03*
X162000000Y-74000000D03*
D14*
X114570000Y-53107920D03*
D15*
X114570000Y-55647920D03*
X114570000Y-58187920D03*
X114570000Y-60727920D03*
X114570000Y-63267920D03*
X114570000Y-65807920D03*
X114570000Y-68347920D03*
X114570000Y-70887920D03*
X114570000Y-73427920D03*
X114570000Y-75967920D03*
X114570000Y-78507920D03*
X114570000Y-81047920D03*
X114570000Y-83587920D03*
X114570000Y-86127920D03*
X114570000Y-88667920D03*
X114570000Y-91207920D03*
X114570000Y-93747920D03*
X114570000Y-96287920D03*
X114570000Y-98827920D03*
X114566320Y-101365200D03*
X114566320Y-103905200D03*
X114566320Y-106445200D03*
X137430000Y-106447920D03*
X137430000Y-103907920D03*
X137430000Y-101367920D03*
X137430000Y-98827920D03*
X137430000Y-96287920D03*
X137430000Y-93747920D03*
X137430000Y-91207920D03*
X137430000Y-88667920D03*
X137430000Y-86127920D03*
X137430000Y-83587920D03*
X137430000Y-81047920D03*
X137430000Y-78507920D03*
X137430000Y-75967920D03*
X137430000Y-73427920D03*
X137430000Y-70887920D03*
X137430000Y-68347920D03*
X137430000Y-65807920D03*
X137430000Y-63267920D03*
X137430000Y-60727920D03*
X137430000Y-58187920D03*
X137430000Y-55647920D03*
X137430000Y-53107920D03*
D12*
X163632600Y-51081904D03*
X158552600Y-51081904D03*
D16*
X155190000Y-114000000D03*
D17*
X157730000Y-114000000D03*
X160270000Y-114000000D03*
X162810000Y-114000000D03*
D18*
X156777500Y-78497500D03*
D19*
X166937500Y-78497500D03*
D20*
X156660000Y-103120000D03*
D21*
X162810000Y-114000000D02*
X161674000Y-115136000D01*
X161674000Y-115136000D02*
X159799453Y-115136000D01*
X159799453Y-115136000D02*
X159134000Y-114470547D01*
X159134000Y-114470547D02*
X159134000Y-110425242D01*
X159134000Y-110425242D02*
X142456678Y-93747920D01*
X142456678Y-93747920D02*
X137430000Y-93747920D01*
X137430000Y-91207920D02*
X140497920Y-91207920D01*
X140497920Y-91207920D02*
X160270000Y-110980000D01*
X160270000Y-110980000D02*
X160270000Y-114000000D01*
D22*
X159862500Y-94250000D02*
X159862500Y-81582500D01*
X159862500Y-81582500D02*
X156777500Y-78497500D01*
G04 #@! TA.AperFunction,Conductor*
G36*
X159554988Y-48520185D02*
G01*
X159600743Y-48572989D01*
X159610687Y-48642147D01*
X159595336Y-48686501D01*
X159583608Y-48706813D01*
X159549500Y-48834108D01*
X159549500Y-49421387D01*
X159529815Y-49488426D01*
X159477011Y-49534181D01*
X159407853Y-49544125D01*
X159363500Y-49528774D01*
X159328491Y-49508561D01*
X159328476Y-49508554D01*
X159116487Y-49420746D01*
X158894838Y-49361356D01*
X158856815Y-49356350D01*
X158667341Y-49331404D01*
X158667334Y-49331404D01*
X158437866Y-49331404D01*
X158437858Y-49331404D01*
X158221315Y-49359913D01*
X158210362Y-49361356D01*
X158116676Y-49386458D01*
X157988712Y-49420746D01*
X157776723Y-49508554D01*
X157776709Y-49508561D01*
X157577982Y-49623296D01*
X157395938Y-49762985D01*
X157233681Y-49925242D01*
X157093992Y-50107286D01*
X156979257Y-50306013D01*
X156979250Y-50306027D01*
X156891442Y-50518016D01*
X156832053Y-50739663D01*
X156832051Y-50739674D01*
X156802100Y-50967162D01*
X156802100Y-51196645D01*
X156827046Y-51386119D01*
X156832052Y-51424142D01*
X156832053Y-51424144D01*
X156891442Y-51645791D01*
X156979250Y-51857780D01*
X156979256Y-51857792D01*
X157065643Y-52007420D01*
X157093992Y-52056521D01*
X157233681Y-52238565D01*
X157233689Y-52238574D01*
X157395930Y-52400815D01*
X157395938Y-52400822D01*
X157577982Y-52540511D01*
X157577985Y-52540512D01*
X157577988Y-52540515D01*
X157776712Y-52655248D01*
X157776717Y-52655250D01*
X157776723Y-52655253D01*
X157850142Y-52685664D01*
X157988713Y-52743062D01*
X158210362Y-52802452D01*
X158437866Y-52832404D01*
X158437873Y-52832404D01*
X158667327Y-52832404D01*
X158667334Y-52832404D01*
X158894838Y-52802452D01*
X159116487Y-52743062D01*
X159328488Y-52655248D01*
X159363501Y-52635033D01*
X159431398Y-52618560D01*
X159497425Y-52641411D01*
X159540617Y-52696332D01*
X159549500Y-52742420D01*
X159549500Y-55785891D01*
X159583608Y-55913187D01*
X159616554Y-55970250D01*
X159649500Y-56027314D01*
X159742686Y-56120500D01*
X159856814Y-56186392D01*
X159984108Y-56220500D01*
X159984110Y-56220500D01*
X162215890Y-56220500D01*
X162215892Y-56220500D01*
X162343186Y-56186392D01*
X162457314Y-56120500D01*
X162550500Y-56027314D01*
X162616392Y-55913186D01*
X162650500Y-55785892D01*
X162650500Y-52750965D01*
X162670185Y-52683926D01*
X162722989Y-52638171D01*
X162792147Y-52628227D01*
X162836498Y-52643577D01*
X162856712Y-52655248D01*
X162856717Y-52655250D01*
X162856723Y-52655253D01*
X162930142Y-52685664D01*
X163068713Y-52743062D01*
X163290362Y-52802452D01*
X163517866Y-52832404D01*
X163517873Y-52832404D01*
X163747327Y-52832404D01*
X163747334Y-52832404D01*
X163974838Y-52802452D01*
X164196487Y-52743062D01*
X164408488Y-52655248D01*
X164607212Y-52540515D01*
X164789261Y-52400823D01*
X164789265Y-52400818D01*
X164789270Y-52400815D01*
X164951511Y-52238574D01*
X164951514Y-52238569D01*
X164951519Y-52238565D01*
X165091211Y-52056516D01*
X165205944Y-51857792D01*
X165293758Y-51645791D01*
X165353148Y-51424142D01*
X165383100Y-51196638D01*
X165383100Y-50967170D01*
X165353148Y-50739666D01*
X165293758Y-50518017D01*
X165205944Y-50306016D01*
X165091211Y-50107292D01*
X165091208Y-50107289D01*
X165091207Y-50107286D01*
X164951518Y-49925242D01*
X164951511Y-49925234D01*
X164789270Y-49762993D01*
X164789261Y-49762985D01*
X164607217Y-49623296D01*
X164408490Y-49508561D01*
X164408476Y-49508554D01*
X164196487Y-49420746D01*
X163974838Y-49361356D01*
X163936815Y-49356350D01*
X163747341Y-49331404D01*
X163747334Y-49331404D01*
X163517866Y-49331404D01*
X163517858Y-49331404D01*
X163301315Y-49359913D01*
X163290362Y-49361356D01*
X163196676Y-49386458D01*
X163068712Y-49420746D01*
X162856723Y-49508554D01*
X162856713Y-49508559D01*
X162836499Y-49520230D01*
X162768598Y-49536701D01*
X162702572Y-49513849D01*
X162659382Y-49458927D01*
X162650500Y-49412842D01*
X162650500Y-48834110D01*
X162650500Y-48834108D01*
X162616392Y-48706814D01*
X162604663Y-48686500D01*
X162588191Y-48618601D01*
X162611043Y-48552574D01*
X162665964Y-48509383D01*
X162712051Y-48500500D01*
X167934108Y-48500500D01*
X167996249Y-48500500D01*
X168003736Y-48500726D01*
X168293796Y-48518271D01*
X168308657Y-48520075D01*
X168485994Y-48552574D01*
X168590798Y-48571780D01*
X168605335Y-48575363D01*
X168879172Y-48660695D01*
X168893163Y-48666000D01*
X169154743Y-48783727D01*
X169167989Y-48790680D01*
X169413465Y-48939075D01*
X169425776Y-48947573D01*
X169651573Y-49124473D01*
X169662781Y-49134403D01*
X169865596Y-49337218D01*
X169875526Y-49348426D01*
X170016819Y-49528774D01*
X170052422Y-49574217D01*
X170060928Y-49586540D01*
X170209316Y-49832004D01*
X170216275Y-49845263D01*
X170333997Y-50106831D01*
X170339306Y-50120832D01*
X170424635Y-50394663D01*
X170428219Y-50409201D01*
X170479923Y-50691340D01*
X170481728Y-50706205D01*
X170499274Y-50996263D01*
X170499500Y-51003750D01*
X170499500Y-113996249D01*
X170499274Y-114003736D01*
X170481728Y-114293794D01*
X170479923Y-114308659D01*
X170428219Y-114590798D01*
X170424635Y-114605336D01*
X170339306Y-114879167D01*
X170333997Y-114893168D01*
X170216275Y-115154736D01*
X170209316Y-115167995D01*
X170060928Y-115413459D01*
X170052422Y-115425782D01*
X169875526Y-115651573D01*
X169865596Y-115662781D01*
X169662781Y-115865596D01*
X169651573Y-115875526D01*
X169425782Y-116052422D01*
X169413459Y-116060928D01*
X169167995Y-116209316D01*
X169154736Y-116216275D01*
X168893168Y-116333997D01*
X168879167Y-116339306D01*
X168605336Y-116424635D01*
X168590798Y-116428219D01*
X168308659Y-116479923D01*
X168293794Y-116481728D01*
X168003736Y-116499274D01*
X167996249Y-116499500D01*
X114003751Y-116499500D01*
X113996264Y-116499274D01*
X113706205Y-116481728D01*
X113691340Y-116479923D01*
X113409201Y-116428219D01*
X113394663Y-116424635D01*
X113120832Y-116339306D01*
X113106831Y-116333997D01*
X112845263Y-116216275D01*
X112832004Y-116209316D01*
X112586540Y-116060928D01*
X112574217Y-116052422D01*
X112348426Y-115875526D01*
X112337218Y-115865596D01*
X112134403Y-115662781D01*
X112124473Y-115651573D01*
X112101192Y-115621857D01*
X111947573Y-115425776D01*
X111939075Y-115413465D01*
X111790680Y-115167989D01*
X111783727Y-115154743D01*
X111666000Y-114893163D01*
X111660693Y-114879167D01*
X111575364Y-114605336D01*
X111571780Y-114590798D01*
X111520076Y-114308659D01*
X111518271Y-114293794D01*
X111512968Y-114206125D01*
X111500726Y-114003736D01*
X111500500Y-113996249D01*
X111500500Y-106195199D01*
X113092204Y-106195199D01*
X113092205Y-106195200D01*
X114250634Y-106195200D01*
X114246240Y-106199594D01*
X114193579Y-106290806D01*
X114166320Y-106392539D01*
X114166320Y-106497861D01*
X114193579Y-106599594D01*
X114246240Y-106690806D01*
X114250634Y-106695200D01*
X113092205Y-106695200D01*
X113093405Y-106702784D01*
X113146911Y-106867455D01*
X113225515Y-107021724D01*
X113327287Y-107161802D01*
X113449717Y-107284232D01*
X113589795Y-107386004D01*
X113744062Y-107464608D01*
X113908735Y-107518114D01*
X114079749Y-107545200D01*
X114316320Y-107545200D01*
X114316320Y-106760886D01*
X114320714Y-106765280D01*
X114411926Y-106817941D01*
X114513659Y-106845200D01*
X114618981Y-106845200D01*
X114720714Y-106817941D01*
X114811926Y-106765280D01*
X114816320Y-106760886D01*
X114816320Y-107545200D01*
X115052891Y-107545200D01*
X115223904Y-107518114D01*
X115388577Y-107464608D01*
X115542844Y-107386004D01*
X115682922Y-107284232D01*
X115805352Y-107161802D01*
X115907124Y-107021724D01*
X115985728Y-106867455D01*
X116039234Y-106702784D01*
X116039234Y-106702783D01*
X116040435Y-106695200D01*
X114882006Y-106695200D01*
X114886400Y-106690806D01*
X114939061Y-106599594D01*
X114966320Y-106497861D01*
X114966320Y-106392539D01*
X114939061Y-106290806D01*
X114886400Y-106199594D01*
X114884725Y-106197919D01*
X135955884Y-106197919D01*
X135955885Y-106197920D01*
X137114314Y-106197920D01*
X137109920Y-106202314D01*
X137057259Y-106293526D01*
X137030000Y-106395259D01*
X137030000Y-106500581D01*
X137057259Y-106602314D01*
X137109920Y-106693526D01*
X137114314Y-106697920D01*
X135955885Y-106697920D01*
X135957085Y-106705504D01*
X136010591Y-106870175D01*
X136089195Y-107024444D01*
X136190967Y-107164522D01*
X136313397Y-107286952D01*
X136453475Y-107388724D01*
X136607742Y-107467328D01*
X136772415Y-107520834D01*
X136943429Y-107547920D01*
X137180000Y-107547920D01*
X137180000Y-106763606D01*
X137184394Y-106768000D01*
X137275606Y-106820661D01*
X137377339Y-106847920D01*
X137482661Y-106847920D01*
X137584394Y-106820661D01*
X137675606Y-106768000D01*
X137680000Y-106763606D01*
X137680000Y-107547920D01*
X137916571Y-107547920D01*
X138087584Y-107520834D01*
X138252257Y-107467328D01*
X138406524Y-107388724D01*
X138546602Y-107286952D01*
X138669032Y-107164522D01*
X138770804Y-107024444D01*
X138849408Y-106870175D01*
X138902914Y-106705504D01*
X138904115Y-106697920D01*
X137745686Y-106697920D01*
X137750080Y-106693526D01*
X137802741Y-106602314D01*
X137830000Y-106500581D01*
X137830000Y-106395259D01*
X137802741Y-106293526D01*
X137750080Y-106202314D01*
X137745686Y-106197920D01*
X138904115Y-106197920D01*
X138904115Y-106197919D01*
X138902914Y-106190335D01*
X138849408Y-106025664D01*
X138770804Y-105871395D01*
X138669032Y-105731317D01*
X138546602Y-105608887D01*
X138406524Y-105507115D01*
X138252257Y-105428511D01*
X138087584Y-105375005D01*
X137916571Y-105347920D01*
X137680000Y-105347920D01*
X137680000Y-106132234D01*
X137675606Y-106127840D01*
X137584394Y-106075179D01*
X137482661Y-106047920D01*
X137377339Y-106047920D01*
X137275606Y-106075179D01*
X137184394Y-106127840D01*
X137180000Y-106132234D01*
X137180000Y-105347920D01*
X136943429Y-105347920D01*
X136772415Y-105375005D01*
X136607742Y-105428511D01*
X136453475Y-105507115D01*
X136313397Y-105608887D01*
X136190967Y-105731317D01*
X136089195Y-105871395D01*
X136010591Y-106025664D01*
X135957085Y-106190335D01*
X135955884Y-106197919D01*
X114884725Y-106197919D01*
X114882006Y-106195200D01*
X116040435Y-106195200D01*
X116040435Y-106195199D01*
X116039234Y-106187615D01*
X115985728Y-106022944D01*
X115907124Y-105868675D01*
X115805352Y-105728597D01*
X115682922Y-105606167D01*
X115542844Y-105504395D01*
X115388577Y-105425791D01*
X115223904Y-105372285D01*
X115052891Y-105345200D01*
X114816320Y-105345200D01*
X114816320Y-106129514D01*
X114811926Y-106125120D01*
X114720714Y-106072459D01*
X114618981Y-106045200D01*
X114513659Y-106045200D01*
X114411926Y-106072459D01*
X114320714Y-106125120D01*
X114316320Y-106129514D01*
X114316320Y-105345200D01*
X114079749Y-105345200D01*
X113908735Y-105372285D01*
X113744062Y-105425791D01*
X113589795Y-105504395D01*
X113449717Y-105606167D01*
X113327287Y-105728597D01*
X113225515Y-105868675D01*
X113146911Y-106022944D01*
X113093405Y-106187615D01*
X113092204Y-106195199D01*
X111500500Y-106195199D01*
X111500500Y-103818589D01*
X113065820Y-103818589D01*
X113065820Y-103991811D01*
X113092918Y-104162901D01*
X113146447Y-104327645D01*
X113225088Y-104481988D01*
X113326906Y-104622128D01*
X113449392Y-104744614D01*
X113589532Y-104846432D01*
X113743875Y-104925073D01*
X113908619Y-104978602D01*
X114079709Y-105005700D01*
X114079710Y-105005700D01*
X115052930Y-105005700D01*
X115052931Y-105005700D01*
X115224021Y-104978602D01*
X115388765Y-104925073D01*
X115543108Y-104846432D01*
X115683248Y-104744614D01*
X115805734Y-104622128D01*
X115907552Y-104481988D01*
X115986193Y-104327645D01*
X116039722Y-104162901D01*
X116066820Y-103991811D01*
X116066820Y-103818589D01*
X116041372Y-103657919D01*
X135955884Y-103657919D01*
X135955885Y-103657920D01*
X137114314Y-103657920D01*
X137109920Y-103662314D01*
X137057259Y-103753526D01*
X137030000Y-103855259D01*
X137030000Y-103960581D01*
X137057259Y-104062314D01*
X137109920Y-104153526D01*
X137114314Y-104157920D01*
X135955885Y-104157920D01*
X135957085Y-104165504D01*
X136010591Y-104330175D01*
X136089195Y-104484444D01*
X136190967Y-104624522D01*
X136313397Y-104746952D01*
X136453475Y-104848724D01*
X136607742Y-104927328D01*
X136772415Y-104980834D01*
X136943429Y-105007920D01*
X137180000Y-105007920D01*
X137180000Y-104223606D01*
X137184394Y-104228000D01*
X137275606Y-104280661D01*
X137377339Y-104307920D01*
X137482661Y-104307920D01*
X137584394Y-104280661D01*
X137675606Y-104228000D01*
X137680000Y-104223606D01*
X137680000Y-105007920D01*
X137916571Y-105007920D01*
X138087584Y-104980834D01*
X138252257Y-104927328D01*
X138406524Y-104848724D01*
X138546602Y-104746952D01*
X138669032Y-104624522D01*
X138770804Y-104484444D01*
X138849408Y-104330175D01*
X138902914Y-104165504D01*
X138904115Y-104157920D01*
X137745686Y-104157920D01*
X137750080Y-104153526D01*
X137802741Y-104062314D01*
X137830000Y-103960581D01*
X137830000Y-103855259D01*
X137802741Y-103753526D01*
X137750080Y-103662314D01*
X137745686Y-103657920D01*
X138904115Y-103657920D01*
X138904115Y-103657919D01*
X138902914Y-103650335D01*
X138849408Y-103485664D01*
X138770804Y-103331395D01*
X138669032Y-103191317D01*
X138546602Y-103068887D01*
X138406524Y-102967115D01*
X138252257Y-102888511D01*
X138087584Y-102835005D01*
X137916571Y-102807920D01*
X137680000Y-102807920D01*
X137680000Y-103592234D01*
X137675606Y-103587840D01*
X137584394Y-103535179D01*
X137482661Y-103507920D01*
X137377339Y-103507920D01*
X137275606Y-103535179D01*
X137184394Y-103587840D01*
X137180000Y-103592234D01*
X137180000Y-102807920D01*
X136943429Y-102807920D01*
X136772415Y-102835005D01*
X136607742Y-102888511D01*
X136453475Y-102967115D01*
X136313397Y-103068887D01*
X136190967Y-103191317D01*
X136089195Y-103331395D01*
X136010591Y-103485664D01*
X135957085Y-103650335D01*
X135955884Y-103657919D01*
X116041372Y-103657919D01*
X116039722Y-103647499D01*
X115986193Y-103482755D01*
X115907552Y-103328412D01*
X115805734Y-103188272D01*
X115683248Y-103065786D01*
X115543108Y-102963968D01*
X115388765Y-102885327D01*
X115224021Y-102831798D01*
X115224019Y-102831797D01*
X115224018Y-102831797D01*
X115073261Y-102807920D01*
X115052931Y-102804700D01*
X114079709Y-102804700D01*
X114059379Y-102807920D01*
X113908622Y-102831797D01*
X113743872Y-102885328D01*
X113589531Y-102963968D01*
X113509576Y-103022059D01*
X113449392Y-103065786D01*
X113449390Y-103065788D01*
X113449389Y-103065788D01*
X113326908Y-103188269D01*
X113326908Y-103188270D01*
X113326906Y-103188272D01*
X113324694Y-103191317D01*
X113225088Y-103328411D01*
X113146448Y-103482752D01*
X113092917Y-103647502D01*
X113076125Y-103753526D01*
X113065820Y-103818589D01*
X111500500Y-103818589D01*
X111500500Y-101278589D01*
X113065820Y-101278589D01*
X113065820Y-101451811D01*
X113092918Y-101622901D01*
X113146447Y-101787645D01*
X113225088Y-101941988D01*
X113326906Y-102082128D01*
X113449392Y-102204614D01*
X113589532Y-102306432D01*
X113743875Y-102385073D01*
X113908619Y-102438602D01*
X114079709Y-102465700D01*
X114079710Y-102465700D01*
X115052930Y-102465700D01*
X115052931Y-102465700D01*
X115224021Y-102438602D01*
X115388765Y-102385073D01*
X115543108Y-102306432D01*
X115683248Y-102204614D01*
X115805734Y-102082128D01*
X115907552Y-101941988D01*
X115986193Y-101787645D01*
X116039722Y-101622901D01*
X116066820Y-101451811D01*
X116066820Y-101281309D01*
X135929500Y-101281309D01*
X135929500Y-101454530D01*
X135956166Y-101622897D01*
X135956598Y-101625621D01*
X136010127Y-101790365D01*
X136088768Y-101944708D01*
X136190586Y-102084848D01*
X136313072Y-102207334D01*
X136453212Y-102309152D01*
X136607555Y-102387793D01*
X136772299Y-102441322D01*
X136943389Y-102468420D01*
X136943390Y-102468420D01*
X137916610Y-102468420D01*
X137916611Y-102468420D01*
X138087701Y-102441322D01*
X138252445Y-102387793D01*
X138406788Y-102309152D01*
X138546928Y-102207334D01*
X138669414Y-102084848D01*
X138771232Y-101944708D01*
X138849873Y-101790365D01*
X138903402Y-101625621D01*
X138930500Y-101454531D01*
X138930500Y-101281309D01*
X138903402Y-101110219D01*
X138849873Y-100945475D01*
X138771232Y-100791132D01*
X138669414Y-100650992D01*
X138546928Y-100528506D01*
X138406788Y-100426688D01*
X138252445Y-100348047D01*
X138087701Y-100294518D01*
X138087699Y-100294517D01*
X138087698Y-100294517D01*
X137956271Y-100273701D01*
X137916611Y-100267420D01*
X136943389Y-100267420D01*
X136903728Y-100273701D01*
X136772302Y-100294517D01*
X136607552Y-100348048D01*
X136453211Y-100426688D01*
X136373256Y-100484779D01*
X136313072Y-100528506D01*
X136313070Y-100528508D01*
X136313069Y-100528508D01*
X136190588Y-100650989D01*
X136190588Y-100650990D01*
X136190586Y-100650992D01*
X136146859Y-100711176D01*
X136088768Y-100791131D01*
X136010128Y-100945472D01*
X135956597Y-101110222D01*
X135929500Y-101281309D01*
X116066820Y-101281309D01*
X116066820Y-101278589D01*
X116039722Y-101107499D01*
X115986193Y-100942755D01*
X115907552Y-100788412D01*
X115805734Y-100648272D01*
X115683248Y-100525786D01*
X115543108Y-100423968D01*
X115388765Y-100345327D01*
X115224021Y-100291798D01*
X115224019Y-100291797D01*
X115224018Y-100291797D01*
X115070104Y-100267420D01*
X115052931Y-100264700D01*
X114079709Y-100264700D01*
X114062536Y-100267420D01*
X113908622Y-100291797D01*
X113743872Y-100345328D01*
X113589531Y-100423968D01*
X113509576Y-100482059D01*
X113449392Y-100525786D01*
X113449390Y-100525788D01*
X113449389Y-100525788D01*
X113326908Y-100648269D01*
X113326908Y-100648270D01*
X113326906Y-100648272D01*
X113324930Y-100650992D01*
X113225088Y-100788411D01*
X113146448Y-100942752D01*
X113092917Y-101107502D01*
X113065820Y-101278589D01*
X111500500Y-101278589D01*
X111500500Y-98741309D01*
X113069500Y-98741309D01*
X113069500Y-98914531D01*
X113096598Y-99085621D01*
X113150127Y-99250365D01*
X113228768Y-99404708D01*
X113330586Y-99544848D01*
X113453072Y-99667334D01*
X113593212Y-99769152D01*
X113747555Y-99847793D01*
X113912299Y-99901322D01*
X114083389Y-99928420D01*
X114083390Y-99928420D01*
X115056610Y-99928420D01*
X115056611Y-99928420D01*
X115227701Y-99901322D01*
X115392445Y-99847793D01*
X115546788Y-99769152D01*
X115686928Y-99667334D01*
X115809414Y-99544848D01*
X115911232Y-99404708D01*
X115989873Y-99250365D01*
X116043402Y-99085621D01*
X116070500Y-98914531D01*
X116070500Y-98741309D01*
X135929500Y-98741309D01*
X135929500Y-98914531D01*
X135956598Y-99085621D01*
X136010127Y-99250365D01*
X136088768Y-99404708D01*
X136190586Y-99544848D01*
X136313072Y-99667334D01*
X136453212Y-99769152D01*
X136607555Y-99847793D01*
X136772299Y-99901322D01*
X136943389Y-99928420D01*
X136943390Y-99928420D01*
X137916610Y-99928420D01*
X137916611Y-99928420D01*
X138087701Y-99901322D01*
X138252445Y-99847793D01*
X138406788Y-99769152D01*
X138546928Y-99667334D01*
X138669414Y-99544848D01*
X138771232Y-99404708D01*
X138849873Y-99250365D01*
X138903402Y-99085621D01*
X138930500Y-98914531D01*
X138930500Y-98741309D01*
X138903402Y-98570219D01*
X138849873Y-98405475D01*
X138771232Y-98251132D01*
X138669414Y-98110992D01*
X138546928Y-97988506D01*
X138406788Y-97886688D01*
X138252445Y-97808047D01*
X138087701Y-97754518D01*
X138087699Y-97754517D01*
X138087698Y-97754517D01*
X137956271Y-97733701D01*
X137916611Y-97727420D01*
X136943389Y-97727420D01*
X136903728Y-97733701D01*
X136772302Y-97754517D01*
X136607552Y-97808048D01*
X136453211Y-97886688D01*
X136373256Y-97944779D01*
X136313072Y-97988506D01*
X136313070Y-97988508D01*
X136313069Y-97988508D01*
X136190588Y-98110989D01*
X136190588Y-98110990D01*
X136190586Y-98110992D01*
X136146859Y-98171176D01*
X136088768Y-98251131D01*
X136010128Y-98405472D01*
X135956597Y-98570222D01*
X135929500Y-98741309D01*
X116070500Y-98741309D01*
X116043402Y-98570219D01*
X115989873Y-98405475D01*
X115911232Y-98251132D01*
X115809414Y-98110992D01*
X115686928Y-97988506D01*
X115546788Y-97886688D01*
X115392445Y-97808047D01*
X115227701Y-97754518D01*
X115227699Y-97754517D01*
X115227698Y-97754517D01*
X115096271Y-97733701D01*
X115056611Y-97727420D01*
X114083389Y-97727420D01*
X114043728Y-97733701D01*
X113912302Y-97754517D01*
X113747552Y-97808048D01*
X113593211Y-97886688D01*
X113513256Y-97944779D01*
X113453072Y-97988506D01*
X113453070Y-97988508D01*
X113453069Y-97988508D01*
X113330588Y-98110989D01*
X113330588Y-98110990D01*
X113330586Y-98110992D01*
X113286859Y-98171176D01*
X113228768Y-98251131D01*
X113150128Y-98405472D01*
X113096597Y-98570222D01*
X113069500Y-98741309D01*
X111500500Y-98741309D01*
X111500500Y-96201309D01*
X113069500Y-96201309D01*
X113069500Y-96374531D01*
X113096598Y-96545621D01*
X113150127Y-96710365D01*
X113228768Y-96864708D01*
X113330586Y-97004848D01*
X113453072Y-97127334D01*
X113593212Y-97229152D01*
X113747555Y-97307793D01*
X113912299Y-97361322D01*
X114083389Y-97388420D01*
X114083390Y-97388420D01*
X115056610Y-97388420D01*
X115056611Y-97388420D01*
X115227701Y-97361322D01*
X115392445Y-97307793D01*
X115546788Y-97229152D01*
X115686928Y-97127334D01*
X115809414Y-97004848D01*
X115911232Y-96864708D01*
X115989873Y-96710365D01*
X116043402Y-96545621D01*
X116070500Y-96374531D01*
X116070500Y-96201309D01*
X135929500Y-96201309D01*
X135929500Y-96374531D01*
X135956598Y-96545621D01*
X136010127Y-96710365D01*
X136088768Y-96864708D01*
X136190586Y-97004848D01*
X136313072Y-97127334D01*
X136453212Y-97229152D01*
X136607555Y-97307793D01*
X136772299Y-97361322D01*
X136943389Y-97388420D01*
X136943390Y-97388420D01*
X137916610Y-97388420D01*
X137916611Y-97388420D01*
X138087701Y-97361322D01*
X138252445Y-97307793D01*
X138406788Y-97229152D01*
X138546928Y-97127334D01*
X138669414Y-97004848D01*
X138771232Y-96864708D01*
X138849873Y-96710365D01*
X138903402Y-96545621D01*
X138930500Y-96374531D01*
X138930500Y-96201309D01*
X138903402Y-96030219D01*
X138849873Y-95865475D01*
X138771232Y-95711132D01*
X138669414Y-95570992D01*
X138546928Y-95448506D01*
X138406788Y-95346688D01*
X138252445Y-95268047D01*
X138087701Y-95214518D01*
X138087699Y-95214517D01*
X138087698Y-95214517D01*
X137956271Y-95193701D01*
X137916611Y-95187420D01*
X136943389Y-95187420D01*
X136903728Y-95193701D01*
X136772302Y-95214517D01*
X136607552Y-95268048D01*
X136453211Y-95346688D01*
X136387385Y-95394514D01*
X136313072Y-95448506D01*
X136313070Y-95448508D01*
X136313069Y-95448508D01*
X136190588Y-95570989D01*
X136190588Y-95570990D01*
X136190586Y-95570992D01*
X136164028Y-95607546D01*
X136088768Y-95711131D01*
X136010128Y-95865472D01*
X135956597Y-96030222D01*
X135929500Y-96201309D01*
X116070500Y-96201309D01*
X116043402Y-96030219D01*
X115989873Y-95865475D01*
X115911232Y-95711132D01*
X115809414Y-95570992D01*
X115686928Y-95448506D01*
X115546788Y-95346688D01*
X115392445Y-95268047D01*
X115227701Y-95214518D01*
X115227699Y-95214517D01*
X115227698Y-95214517D01*
X115096271Y-95193701D01*
X115056611Y-95187420D01*
X114083389Y-95187420D01*
X114043728Y-95193701D01*
X113912302Y-95214517D01*
X113747552Y-95268048D01*
X113593211Y-95346688D01*
X113527385Y-95394514D01*
X113453072Y-95448506D01*
X113453070Y-95448508D01*
X113453069Y-95448508D01*
X113330588Y-95570989D01*
X113330588Y-95570990D01*
X113330586Y-95570992D01*
X113304028Y-95607546D01*
X113228768Y-95711131D01*
X113150128Y-95865472D01*
X113096597Y-96030222D01*
X113069500Y-96201309D01*
X111500500Y-96201309D01*
X111500500Y-93661309D01*
X113069500Y-93661309D01*
X113069500Y-93834531D01*
X113096598Y-94005621D01*
X113150127Y-94170365D01*
X113228768Y-94324708D01*
X113330586Y-94464848D01*
X113453072Y-94587334D01*
X113593212Y-94689152D01*
X113747555Y-94767793D01*
X113912299Y-94821322D01*
X114083389Y-94848420D01*
X114083390Y-94848420D01*
X115056610Y-94848420D01*
X115056611Y-94848420D01*
X115227701Y-94821322D01*
X115392445Y-94767793D01*
X115546788Y-94689152D01*
X115686928Y-94587334D01*
X115809414Y-94464848D01*
X115911232Y-94324708D01*
X115989873Y-94170365D01*
X116043402Y-94005621D01*
X116070500Y-93834531D01*
X116070500Y-93661309D01*
X116043402Y-93490219D01*
X115989873Y-93325475D01*
X115911232Y-93171132D01*
X115809414Y-93030992D01*
X115686928Y-92908506D01*
X115546788Y-92806688D01*
X115507062Y-92786447D01*
X115392447Y-92728048D01*
X115392446Y-92728047D01*
X115392445Y-92728047D01*
X115227701Y-92674518D01*
X115227699Y-92674517D01*
X115227698Y-92674517D01*
X115096271Y-92653701D01*
X115056611Y-92647420D01*
X114083389Y-92647420D01*
X114043728Y-92653701D01*
X113912302Y-92674517D01*
X113747552Y-92728048D01*
X113593211Y-92806688D01*
X113520616Y-92859432D01*
X113453072Y-92908506D01*
X113453070Y-92908508D01*
X113453069Y-92908508D01*
X113330588Y-93030989D01*
X113330588Y-93030990D01*
X113330586Y-93030992D01*
X113286859Y-93091176D01*
X113228768Y-93171131D01*
X113150128Y-93325472D01*
X113096597Y-93490222D01*
X113069500Y-93661309D01*
X111500500Y-93661309D01*
X111500500Y-91121309D01*
X113069500Y-91121309D01*
X113069500Y-91294531D01*
X113096598Y-91465621D01*
X113150127Y-91630365D01*
X113228768Y-91784708D01*
X113330586Y-91924848D01*
X113453072Y-92047334D01*
X113593212Y-92149152D01*
X113747555Y-92227793D01*
X113912299Y-92281322D01*
X114083389Y-92308420D01*
X114083390Y-92308420D01*
X115056610Y-92308420D01*
X115056611Y-92308420D01*
X115227701Y-92281322D01*
X115392445Y-92227793D01*
X115546788Y-92149152D01*
X115686928Y-92047334D01*
X115809414Y-91924848D01*
X115911232Y-91784708D01*
X115989873Y-91630365D01*
X116043402Y-91465621D01*
X116070500Y-91294531D01*
X116070500Y-91121309D01*
X135929500Y-91121309D01*
X135929500Y-91294531D01*
X135956598Y-91465621D01*
X136010127Y-91630365D01*
X136088768Y-91784708D01*
X136190586Y-91924848D01*
X136313072Y-92047334D01*
X136453212Y-92149152D01*
X136607555Y-92227793D01*
X136772299Y-92281322D01*
X136943389Y-92308420D01*
X136943390Y-92308420D01*
X137916610Y-92308420D01*
X137916611Y-92308420D01*
X138087701Y-92281322D01*
X138252445Y-92227793D01*
X138406788Y-92149152D01*
X138546928Y-92047334D01*
X138669414Y-91924848D01*
X138698705Y-91884533D01*
X138754035Y-91841868D01*
X138799022Y-91833420D01*
X140187468Y-91833420D01*
X140254507Y-91853105D01*
X140275149Y-91869739D01*
X141316149Y-92910739D01*
X141349634Y-92972062D01*
X141344650Y-93041754D01*
X141302778Y-93097687D01*
X141237314Y-93122104D01*
X141228468Y-93122420D01*
X138799022Y-93122420D01*
X138731983Y-93102735D01*
X138698705Y-93071307D01*
X138669414Y-93030992D01*
X138546930Y-92908508D01*
X138546928Y-92908506D01*
X138406788Y-92806688D01*
X138367062Y-92786447D01*
X138252447Y-92728048D01*
X138252446Y-92728047D01*
X138252445Y-92728047D01*
X138087701Y-92674518D01*
X138087699Y-92674517D01*
X138087698Y-92674517D01*
X137956271Y-92653701D01*
X137916611Y-92647420D01*
X136943389Y-92647420D01*
X136903728Y-92653701D01*
X136772302Y-92674517D01*
X136607552Y-92728048D01*
X136453211Y-92806688D01*
X136380616Y-92859432D01*
X136313072Y-92908506D01*
X136313070Y-92908508D01*
X136313069Y-92908508D01*
X136190588Y-93030989D01*
X136190588Y-93030990D01*
X136190586Y-93030992D01*
X136146859Y-93091176D01*
X136088768Y-93171131D01*
X136010128Y-93325472D01*
X135956597Y-93490222D01*
X135929500Y-93661309D01*
X135929500Y-93834531D01*
X135956598Y-94005621D01*
X136010127Y-94170365D01*
X136088768Y-94324708D01*
X136190586Y-94464848D01*
X136313072Y-94587334D01*
X136453212Y-94689152D01*
X136607555Y-94767793D01*
X136772299Y-94821322D01*
X136943389Y-94848420D01*
X136943390Y-94848420D01*
X137916610Y-94848420D01*
X137916611Y-94848420D01*
X138087701Y-94821322D01*
X138252445Y-94767793D01*
X138406788Y-94689152D01*
X138546928Y-94587334D01*
X138669414Y-94464848D01*
X138698705Y-94424533D01*
X138754035Y-94381868D01*
X138799022Y-94373420D01*
X142146226Y-94373420D01*
X142213265Y-94393105D01*
X142233907Y-94409739D01*
X158472181Y-110648013D01*
X158505666Y-110709336D01*
X158508500Y-110735694D01*
X158508500Y-112678614D01*
X158488815Y-112745653D01*
X158436011Y-112791408D01*
X158366853Y-112801352D01*
X158328206Y-112789099D01*
X158248417Y-112748445D01*
X158248414Y-112748444D01*
X158248412Y-112748443D01*
X158046243Y-112682754D01*
X158046241Y-112682753D01*
X158046240Y-112682753D01*
X157884957Y-112657208D01*
X157836287Y-112649500D01*
X157623713Y-112649500D01*
X157575042Y-112657208D01*
X157413760Y-112682753D01*
X157211585Y-112748444D01*
X157022179Y-112844951D01*
X156850215Y-112969889D01*
X156736285Y-113083819D01*
X156674962Y-113117303D01*
X156605270Y-113112319D01*
X156549337Y-113070447D01*
X156532422Y-113039470D01*
X156483354Y-112907913D01*
X156483350Y-112907906D01*
X156397190Y-112792812D01*
X156397187Y-112792809D01*
X156282093Y-112706649D01*
X156282086Y-112706645D01*
X156147379Y-112656403D01*
X156147372Y-112656401D01*
X156087844Y-112650000D01*
X155440000Y-112650000D01*
X155440000Y-113566988D01*
X155382993Y-113534075D01*
X155255826Y-113500000D01*
X155124174Y-113500000D01*
X154997007Y-113534075D01*
X154940000Y-113566988D01*
X154940000Y-112650000D01*
X154292155Y-112650000D01*
X154232627Y-112656401D01*
X154232620Y-112656403D01*
X154097913Y-112706645D01*
X154097906Y-112706649D01*
X153982812Y-112792809D01*
X153982809Y-112792812D01*
X153896649Y-112907906D01*
X153896645Y-112907913D01*
X153846403Y-113042620D01*
X153846401Y-113042627D01*
X153840000Y-113102155D01*
X153840000Y-113750000D01*
X154756988Y-113750000D01*
X154724075Y-113807007D01*
X154690000Y-113934174D01*
X154690000Y-114065826D01*
X154724075Y-114192993D01*
X154756988Y-114250000D01*
X153840000Y-114250000D01*
X153840000Y-114897844D01*
X153846401Y-114957372D01*
X153846403Y-114957379D01*
X153896645Y-115092086D01*
X153896649Y-115092093D01*
X153982809Y-115207187D01*
X153982812Y-115207190D01*
X154097906Y-115293350D01*
X154097913Y-115293354D01*
X154232620Y-115343596D01*
X154232627Y-115343598D01*
X154292155Y-115349999D01*
X154292172Y-115350000D01*
X154940000Y-115350000D01*
X154940000Y-114433012D01*
X154997007Y-114465925D01*
X155124174Y-114500000D01*
X155255826Y-114500000D01*
X155382993Y-114465925D01*
X155440000Y-114433012D01*
X155440000Y-115350000D01*
X156087828Y-115350000D01*
X156087844Y-115349999D01*
X156147372Y-115343598D01*
X156147379Y-115343596D01*
X156282086Y-115293354D01*
X156282093Y-115293350D01*
X156397187Y-115207190D01*
X156397190Y-115207187D01*
X156483350Y-115092093D01*
X156483354Y-115092086D01*
X156532422Y-114960529D01*
X156574293Y-114904595D01*
X156639757Y-114880178D01*
X156708030Y-114895030D01*
X156736285Y-114916181D01*
X156850213Y-115030109D01*
X157022179Y-115155048D01*
X157022181Y-115155049D01*
X157022184Y-115155051D01*
X157211588Y-115251557D01*
X157413757Y-115317246D01*
X157623713Y-115350500D01*
X157623714Y-115350500D01*
X157836286Y-115350500D01*
X157836287Y-115350500D01*
X158046243Y-115317246D01*
X158248412Y-115251557D01*
X158437816Y-115155051D01*
X158524471Y-115092093D01*
X158609786Y-115030109D01*
X158609786Y-115030107D01*
X158609792Y-115030104D01*
X158621697Y-115018198D01*
X158683017Y-114984713D01*
X158752709Y-114989695D01*
X158797060Y-115018197D01*
X159400716Y-115621855D01*
X159400720Y-115621858D01*
X159503163Y-115690309D01*
X159503164Y-115690309D01*
X159503168Y-115690312D01*
X159569850Y-115717932D01*
X159617001Y-115737463D01*
X159637050Y-115741451D01*
X159702077Y-115754385D01*
X159737845Y-115761501D01*
X159737847Y-115761501D01*
X159867174Y-115761501D01*
X159867194Y-115761500D01*
X161735607Y-115761500D01*
X161796029Y-115749481D01*
X161856452Y-115737463D01*
X161889792Y-115723652D01*
X161970286Y-115690312D01*
X162021509Y-115656084D01*
X162028261Y-115651573D01*
X162034271Y-115647556D01*
X162072733Y-115621858D01*
X162159858Y-115534733D01*
X162159858Y-115534731D01*
X162170066Y-115524524D01*
X162170067Y-115524521D01*
X162352162Y-115342427D01*
X162413484Y-115308943D01*
X162478159Y-115312178D01*
X162493757Y-115317246D01*
X162703713Y-115350500D01*
X162703714Y-115350500D01*
X162916286Y-115350500D01*
X162916287Y-115350500D01*
X163126243Y-115317246D01*
X163328412Y-115251557D01*
X163517816Y-115155051D01*
X163604471Y-115092093D01*
X163689786Y-115030109D01*
X163689788Y-115030106D01*
X163689792Y-115030104D01*
X163840104Y-114879792D01*
X163840106Y-114879788D01*
X163840109Y-114879786D01*
X163965048Y-114707820D01*
X163965047Y-114707820D01*
X163965051Y-114707816D01*
X164061557Y-114518412D01*
X164127246Y-114316243D01*
X164160500Y-114106287D01*
X164160500Y-113893713D01*
X164127246Y-113683757D01*
X164061557Y-113481588D01*
X163965051Y-113292184D01*
X163965049Y-113292181D01*
X163965048Y-113292179D01*
X163840109Y-113120213D01*
X163689786Y-112969890D01*
X163517820Y-112844951D01*
X163328414Y-112748444D01*
X163328413Y-112748443D01*
X163328412Y-112748443D01*
X163126243Y-112682754D01*
X163126241Y-112682753D01*
X163126240Y-112682753D01*
X162964957Y-112657208D01*
X162916287Y-112649500D01*
X162703713Y-112649500D01*
X162655042Y-112657208D01*
X162493760Y-112682753D01*
X162291585Y-112748444D01*
X162102179Y-112844951D01*
X161930213Y-112969890D01*
X161779890Y-113120213D01*
X161654949Y-113292182D01*
X161650484Y-113300946D01*
X161602509Y-113351742D01*
X161534688Y-113368536D01*
X161468553Y-113345998D01*
X161429516Y-113300946D01*
X161425050Y-113292182D01*
X161300109Y-113120213D01*
X161149786Y-112969890D01*
X160977819Y-112844950D01*
X160963203Y-112837503D01*
X160912408Y-112789527D01*
X160895500Y-112727019D01*
X160895500Y-111047741D01*
X160895501Y-111047720D01*
X160895501Y-110918391D01*
X160871464Y-110797555D01*
X160871463Y-110797549D01*
X160824312Y-110683715D01*
X160755858Y-110581267D01*
X160755855Y-110581263D01*
X144389307Y-94214717D01*
X144306492Y-94131902D01*
X150762000Y-94131902D01*
X150762000Y-94368097D01*
X150798946Y-94601368D01*
X150871933Y-94825996D01*
X150979157Y-95036433D01*
X151117983Y-95227510D01*
X151284990Y-95394517D01*
X151476067Y-95533343D01*
X151575491Y-95584002D01*
X151686503Y-95640566D01*
X151686505Y-95640566D01*
X151686508Y-95640568D01*
X151806912Y-95679689D01*
X151911131Y-95713553D01*
X152144403Y-95750500D01*
X152144408Y-95750500D01*
X152380597Y-95750500D01*
X152613868Y-95713553D01*
X152621322Y-95711131D01*
X152838492Y-95640568D01*
X153048933Y-95533343D01*
X153240010Y-95394517D01*
X153407017Y-95227510D01*
X153545843Y-95036433D01*
X153653068Y-94825992D01*
X153726053Y-94601368D01*
X153728276Y-94587331D01*
X153763000Y-94368097D01*
X153763000Y-94131902D01*
X153726053Y-93898631D01*
X153653066Y-93674003D01*
X153545842Y-93463566D01*
X153407017Y-93272490D01*
X153240010Y-93105483D01*
X153048933Y-92966657D01*
X152838496Y-92859433D01*
X152613868Y-92786446D01*
X152380597Y-92749500D01*
X152380592Y-92749500D01*
X152144408Y-92749500D01*
X152144403Y-92749500D01*
X151911131Y-92786446D01*
X151686503Y-92859433D01*
X151476066Y-92966657D01*
X151419619Y-93007669D01*
X151284990Y-93105483D01*
X151284988Y-93105485D01*
X151284987Y-93105485D01*
X151117985Y-93272487D01*
X151117985Y-93272488D01*
X151117983Y-93272490D01*
X151079489Y-93325472D01*
X150979157Y-93463566D01*
X150871933Y-93674003D01*
X150798946Y-93898631D01*
X150762000Y-94131902D01*
X144306492Y-94131902D01*
X140991070Y-90816480D01*
X140983780Y-90809190D01*
X140983778Y-90809187D01*
X140896653Y-90722062D01*
X140845429Y-90687835D01*
X140794206Y-90653608D01*
X140794203Y-90653606D01*
X140794200Y-90653605D01*
X140720523Y-90623088D01*
X140720521Y-90623087D01*
X140713712Y-90620267D01*
X140680372Y-90606457D01*
X140619949Y-90594438D01*
X140615226Y-90593498D01*
X140615224Y-90593498D01*
X140559530Y-90582420D01*
X140559527Y-90582420D01*
X140559526Y-90582420D01*
X138799022Y-90582420D01*
X138731983Y-90562735D01*
X138698705Y-90531307D01*
X138669414Y-90490992D01*
X138546930Y-90368508D01*
X138546928Y-90368506D01*
X138406788Y-90266688D01*
X138252445Y-90188047D01*
X138087701Y-90134518D01*
X138087699Y-90134517D01*
X138087698Y-90134517D01*
X137956271Y-90113701D01*
X137916611Y-90107420D01*
X136943389Y-90107420D01*
X136903728Y-90113701D01*
X136772302Y-90134517D01*
X136607552Y-90188048D01*
X136453211Y-90266688D01*
X136373256Y-90324779D01*
X136313072Y-90368506D01*
X136313070Y-90368508D01*
X136313069Y-90368508D01*
X136190588Y-90490989D01*
X136190588Y-90490990D01*
X136190586Y-90490992D01*
X136146859Y-90551176D01*
X136088768Y-90631131D01*
X136010128Y-90785472D01*
X135956597Y-90950222D01*
X135929500Y-91121309D01*
X116070500Y-91121309D01*
X116043402Y-90950219D01*
X115989873Y-90785475D01*
X115911232Y-90631132D01*
X115809414Y-90490992D01*
X115686928Y-90368506D01*
X115546788Y-90266688D01*
X115392445Y-90188047D01*
X115227701Y-90134518D01*
X115227699Y-90134517D01*
X115227698Y-90134517D01*
X115096271Y-90113701D01*
X115056611Y-90107420D01*
X114083389Y-90107420D01*
X114043728Y-90113701D01*
X113912302Y-90134517D01*
X113747552Y-90188048D01*
X113593211Y-90266688D01*
X113513256Y-90324779D01*
X113453072Y-90368506D01*
X113453070Y-90368508D01*
X113453069Y-90368508D01*
X113330588Y-90490989D01*
X113330588Y-90490990D01*
X113330586Y-90490992D01*
X113286859Y-90551176D01*
X113228768Y-90631131D01*
X113150128Y-90785472D01*
X113096597Y-90950222D01*
X113069500Y-91121309D01*
X111500500Y-91121309D01*
X111500500Y-88581309D01*
X113069500Y-88581309D01*
X113069500Y-88754531D01*
X113096598Y-88925621D01*
X113150127Y-89090365D01*
X113228768Y-89244708D01*
X113330586Y-89384848D01*
X113453072Y-89507334D01*
X113593212Y-89609152D01*
X113747555Y-89687793D01*
X113912299Y-89741322D01*
X114083389Y-89768420D01*
X114083390Y-89768420D01*
X115056610Y-89768420D01*
X115056611Y-89768420D01*
X115227701Y-89741322D01*
X115392445Y-89687793D01*
X115546788Y-89609152D01*
X115686928Y-89507334D01*
X115809414Y-89384848D01*
X115911232Y-89244708D01*
X115989873Y-89090365D01*
X116043402Y-88925621D01*
X116070500Y-88754531D01*
X116070500Y-88581309D01*
X135929500Y-88581309D01*
X135929500Y-88754531D01*
X135956598Y-88925621D01*
X136010127Y-89090365D01*
X136088768Y-89244708D01*
X136190586Y-89384848D01*
X136313072Y-89507334D01*
X136453212Y-89609152D01*
X136607555Y-89687793D01*
X136772299Y-89741322D01*
X136943389Y-89768420D01*
X136943390Y-89768420D01*
X137916610Y-89768420D01*
X137916611Y-89768420D01*
X138087701Y-89741322D01*
X138252445Y-89687793D01*
X138406788Y-89609152D01*
X138546928Y-89507334D01*
X138669414Y-89384848D01*
X138771232Y-89244708D01*
X138849873Y-89090365D01*
X138903402Y-88925621D01*
X138930500Y-88754531D01*
X138930500Y-88581309D01*
X138903402Y-88410219D01*
X138849873Y-88245475D01*
X138771232Y-88091132D01*
X138669414Y-87950992D01*
X138546928Y-87828506D01*
X138406788Y-87726688D01*
X138252445Y-87648047D01*
X138087701Y-87594518D01*
X138087699Y-87594517D01*
X138087698Y-87594517D01*
X137956271Y-87573701D01*
X137916611Y-87567420D01*
X136943389Y-87567420D01*
X136903728Y-87573701D01*
X136772302Y-87594517D01*
X136607552Y-87648048D01*
X136453211Y-87726688D01*
X136373256Y-87784779D01*
X136313072Y-87828506D01*
X136313070Y-87828508D01*
X136313069Y-87828508D01*
X136190588Y-87950989D01*
X136190588Y-87950990D01*
X136190586Y-87950992D01*
X136146859Y-88011176D01*
X136088768Y-88091131D01*
X136010128Y-88245472D01*
X135956597Y-88410222D01*
X135929500Y-88581309D01*
X116070500Y-88581309D01*
X116043402Y-88410219D01*
X115989873Y-88245475D01*
X115911232Y-88091132D01*
X115809414Y-87950992D01*
X115686928Y-87828506D01*
X115546788Y-87726688D01*
X115392445Y-87648047D01*
X115227701Y-87594518D01*
X115227699Y-87594517D01*
X115227698Y-87594517D01*
X115096271Y-87573701D01*
X115056611Y-87567420D01*
X114083389Y-87567420D01*
X114043728Y-87573701D01*
X113912302Y-87594517D01*
X113747552Y-87648048D01*
X113593211Y-87726688D01*
X113513256Y-87784779D01*
X113453072Y-87828506D01*
X113453070Y-87828508D01*
X113453069Y-87828508D01*
X113330588Y-87950989D01*
X113330588Y-87950990D01*
X113330586Y-87950992D01*
X113286859Y-88011176D01*
X113228768Y-88091131D01*
X113150128Y-88245472D01*
X113096597Y-88410222D01*
X113069500Y-88581309D01*
X111500500Y-88581309D01*
X111500500Y-86041309D01*
X113069500Y-86041309D01*
X113069500Y-86214531D01*
X113096598Y-86385621D01*
X113150127Y-86550365D01*
X113228768Y-86704708D01*
X113330586Y-86844848D01*
X113453072Y-86967334D01*
X113593212Y-87069152D01*
X113747555Y-87147793D01*
X113912299Y-87201322D01*
X114083389Y-87228420D01*
X114083390Y-87228420D01*
X115056610Y-87228420D01*
X115056611Y-87228420D01*
X115227701Y-87201322D01*
X115392445Y-87147793D01*
X115546788Y-87069152D01*
X115686928Y-86967334D01*
X115809414Y-86844848D01*
X115911232Y-86704708D01*
X115989873Y-86550365D01*
X116043402Y-86385621D01*
X116070500Y-86214531D01*
X116070500Y-86041309D01*
X135929500Y-86041309D01*
X135929500Y-86214531D01*
X135956598Y-86385621D01*
X136010127Y-86550365D01*
X136088768Y-86704708D01*
X136190586Y-86844848D01*
X136313072Y-86967334D01*
X136453212Y-87069152D01*
X136607555Y-87147793D01*
X136772299Y-87201322D01*
X136943389Y-87228420D01*
X136943390Y-87228420D01*
X137916610Y-87228420D01*
X137916611Y-87228420D01*
X138087701Y-87201322D01*
X138252445Y-87147793D01*
X138406788Y-87069152D01*
X138546928Y-86967334D01*
X138669414Y-86844848D01*
X138771232Y-86704708D01*
X138849873Y-86550365D01*
X138903402Y-86385621D01*
X138930500Y-86214531D01*
X138930500Y-86041309D01*
X138903402Y-85870219D01*
X138849873Y-85705475D01*
X138771232Y-85551132D01*
X138669414Y-85410992D01*
X138546928Y-85288506D01*
X138406788Y-85186688D01*
X138252445Y-85108047D01*
X138087701Y-85054518D01*
X138087699Y-85054517D01*
X138087698Y-85054517D01*
X137956271Y-85033701D01*
X137916611Y-85027420D01*
X136943389Y-85027420D01*
X136903728Y-85033701D01*
X136772302Y-85054517D01*
X136607552Y-85108048D01*
X136453211Y-85186688D01*
X136373256Y-85244779D01*
X136313072Y-85288506D01*
X136313070Y-85288508D01*
X136313069Y-85288508D01*
X136190588Y-85410989D01*
X136190588Y-85410990D01*
X136190586Y-85410992D01*
X136146859Y-85471176D01*
X136088768Y-85551131D01*
X136010128Y-85705472D01*
X135956597Y-85870222D01*
X135929500Y-86041309D01*
X116070500Y-86041309D01*
X116043402Y-85870219D01*
X115989873Y-85705475D01*
X115911232Y-85551132D01*
X115809414Y-85410992D01*
X115686928Y-85288506D01*
X115546788Y-85186688D01*
X115392445Y-85108047D01*
X115227701Y-85054518D01*
X115227699Y-85054517D01*
X115227698Y-85054517D01*
X115096271Y-85033701D01*
X115056611Y-85027420D01*
X114083389Y-85027420D01*
X114043728Y-85033701D01*
X113912302Y-85054517D01*
X113747552Y-85108048D01*
X113593211Y-85186688D01*
X113513256Y-85244779D01*
X113453072Y-85288506D01*
X113453070Y-85288508D01*
X113453069Y-85288508D01*
X113330588Y-85410989D01*
X113330588Y-85410990D01*
X113330586Y-85410992D01*
X113286859Y-85471176D01*
X113228768Y-85551131D01*
X113150128Y-85705472D01*
X113096597Y-85870222D01*
X113069500Y-86041309D01*
X111500500Y-86041309D01*
X111500500Y-83501309D01*
X113069500Y-83501309D01*
X113069500Y-83674531D01*
X113096598Y-83845621D01*
X113150127Y-84010365D01*
X113228768Y-84164708D01*
X113330586Y-84304848D01*
X113453072Y-84427334D01*
X113593212Y-84529152D01*
X113747555Y-84607793D01*
X113912299Y-84661322D01*
X114083389Y-84688420D01*
X114083390Y-84688420D01*
X115056610Y-84688420D01*
X115056611Y-84688420D01*
X115227701Y-84661322D01*
X115392445Y-84607793D01*
X115546788Y-84529152D01*
X115686928Y-84427334D01*
X115809414Y-84304848D01*
X115911232Y-84164708D01*
X115989873Y-84010365D01*
X116043402Y-83845621D01*
X116070500Y-83674531D01*
X116070500Y-83501309D01*
X135929500Y-83501309D01*
X135929500Y-83674531D01*
X135956598Y-83845621D01*
X136010127Y-84010365D01*
X136088768Y-84164708D01*
X136190586Y-84304848D01*
X136313072Y-84427334D01*
X136453212Y-84529152D01*
X136607555Y-84607793D01*
X136772299Y-84661322D01*
X136943389Y-84688420D01*
X136943390Y-84688420D01*
X137916610Y-84688420D01*
X137916611Y-84688420D01*
X138087701Y-84661322D01*
X138252445Y-84607793D01*
X138406788Y-84529152D01*
X138546928Y-84427334D01*
X138669414Y-84304848D01*
X138771232Y-84164708D01*
X138849873Y-84010365D01*
X138903402Y-83845621D01*
X138930500Y-83674531D01*
X138930500Y-83501309D01*
X138903402Y-83330219D01*
X138849873Y-83165475D01*
X138771232Y-83011132D01*
X138669414Y-82870992D01*
X138546928Y-82748506D01*
X138406788Y-82646688D01*
X138252445Y-82568047D01*
X138087701Y-82514518D01*
X138087699Y-82514517D01*
X138087698Y-82514517D01*
X137956271Y-82493701D01*
X137916611Y-82487420D01*
X136943389Y-82487420D01*
X136903728Y-82493701D01*
X136772302Y-82514517D01*
X136607552Y-82568048D01*
X136453211Y-82646688D01*
X136373256Y-82704779D01*
X136313072Y-82748506D01*
X136313070Y-82748508D01*
X136313069Y-82748508D01*
X136190588Y-82870989D01*
X136190588Y-82870990D01*
X136190586Y-82870992D01*
X136146859Y-82931176D01*
X136088768Y-83011131D01*
X136010128Y-83165472D01*
X135956597Y-83330222D01*
X135929500Y-83501309D01*
X116070500Y-83501309D01*
X116043402Y-83330219D01*
X115989873Y-83165475D01*
X115911232Y-83011132D01*
X115809414Y-82870992D01*
X115686928Y-82748506D01*
X115546788Y-82646688D01*
X115392445Y-82568047D01*
X115227701Y-82514518D01*
X115227699Y-82514517D01*
X115227698Y-82514517D01*
X115096271Y-82493701D01*
X115056611Y-82487420D01*
X114083389Y-82487420D01*
X114043728Y-82493701D01*
X113912302Y-82514517D01*
X113747552Y-82568048D01*
X113593211Y-82646688D01*
X113513256Y-82704779D01*
X113453072Y-82748506D01*
X113453070Y-82748508D01*
X113453069Y-82748508D01*
X113330588Y-82870989D01*
X113330588Y-82870990D01*
X113330586Y-82870992D01*
X113286859Y-82931176D01*
X113228768Y-83011131D01*
X113150128Y-83165472D01*
X113096597Y-83330222D01*
X113069500Y-83501309D01*
X111500500Y-83501309D01*
X111500500Y-80961309D01*
X113069500Y-80961309D01*
X113069500Y-81134531D01*
X113096598Y-81305621D01*
X113150127Y-81470365D01*
X113228768Y-81624708D01*
X113330586Y-81764848D01*
X113453072Y-81887334D01*
X113593212Y-81989152D01*
X113747555Y-82067793D01*
X113912299Y-82121322D01*
X114083389Y-82148420D01*
X114083390Y-82148420D01*
X115056610Y-82148420D01*
X115056611Y-82148420D01*
X115227701Y-82121322D01*
X115392445Y-82067793D01*
X115546788Y-81989152D01*
X115686928Y-81887334D01*
X115809414Y-81764848D01*
X115911232Y-81624708D01*
X115989873Y-81470365D01*
X116043402Y-81305621D01*
X116070500Y-81134531D01*
X116070500Y-80961309D01*
X135929500Y-80961309D01*
X135929500Y-81134531D01*
X135956598Y-81305621D01*
X136010127Y-81470365D01*
X136088768Y-81624708D01*
X136190586Y-81764848D01*
X136313072Y-81887334D01*
X136453212Y-81989152D01*
X136607555Y-82067793D01*
X136772299Y-82121322D01*
X136943389Y-82148420D01*
X136943390Y-82148420D01*
X137916610Y-82148420D01*
X137916611Y-82148420D01*
X138087701Y-82121322D01*
X138252445Y-82067793D01*
X138406788Y-81989152D01*
X138546928Y-81887334D01*
X138669414Y-81764848D01*
X138771232Y-81624708D01*
X138849873Y-81470365D01*
X138903402Y-81305621D01*
X138930500Y-81134531D01*
X138930500Y-80961309D01*
X138903402Y-80790219D01*
X138849873Y-80625475D01*
X138771232Y-80471132D01*
X138669414Y-80330992D01*
X138546928Y-80208506D01*
X138406788Y-80106688D01*
X138252445Y-80028047D01*
X138087701Y-79974518D01*
X138087699Y-79974517D01*
X138087698Y-79974517D01*
X137956271Y-79953701D01*
X137916611Y-79947420D01*
X136943389Y-79947420D01*
X136903728Y-79953701D01*
X136772302Y-79974517D01*
X136607552Y-80028048D01*
X136453211Y-80106688D01*
X136415181Y-80134319D01*
X136313072Y-80208506D01*
X136313070Y-80208508D01*
X136313069Y-80208508D01*
X136190588Y-80330989D01*
X136190588Y-80330990D01*
X136190586Y-80330992D01*
X136146859Y-80391176D01*
X136088768Y-80471131D01*
X136010128Y-80625472D01*
X135956597Y-80790222D01*
X135932128Y-80944714D01*
X135929500Y-80961309D01*
X116070500Y-80961309D01*
X116043402Y-80790219D01*
X115989873Y-80625475D01*
X115911232Y-80471132D01*
X115809414Y-80330992D01*
X115686928Y-80208506D01*
X115546788Y-80106688D01*
X115392445Y-80028047D01*
X115227701Y-79974518D01*
X115227699Y-79974517D01*
X115227698Y-79974517D01*
X115096271Y-79953701D01*
X115056611Y-79947420D01*
X114083389Y-79947420D01*
X114043728Y-79953701D01*
X113912302Y-79974517D01*
X113747552Y-80028048D01*
X113593211Y-80106688D01*
X113555181Y-80134319D01*
X113453072Y-80208506D01*
X113453070Y-80208508D01*
X113453069Y-80208508D01*
X113330588Y-80330989D01*
X113330588Y-80330990D01*
X113330586Y-80330992D01*
X113286859Y-80391176D01*
X113228768Y-80471131D01*
X113150128Y-80625472D01*
X113096597Y-80790222D01*
X113072128Y-80944714D01*
X113069500Y-80961309D01*
X111500500Y-80961309D01*
X111500500Y-78421309D01*
X113069500Y-78421309D01*
X113069500Y-78594531D01*
X113096598Y-78765621D01*
X113150127Y-78930365D01*
X113228768Y-79084708D01*
X113330586Y-79224848D01*
X113453072Y-79347334D01*
X113593212Y-79449152D01*
X113747555Y-79527793D01*
X113912299Y-79581322D01*
X114083389Y-79608420D01*
X114083390Y-79608420D01*
X115056610Y-79608420D01*
X115056611Y-79608420D01*
X115227701Y-79581322D01*
X115392445Y-79527793D01*
X115546788Y-79449152D01*
X115686928Y-79347334D01*
X115809414Y-79224848D01*
X115911232Y-79084708D01*
X115989873Y-78930365D01*
X116043402Y-78765621D01*
X116070500Y-78594531D01*
X116070500Y-78421309D01*
X135929500Y-78421309D01*
X135929500Y-78594531D01*
X135956598Y-78765621D01*
X136010127Y-78930365D01*
X136088768Y-79084708D01*
X136190586Y-79224848D01*
X136313072Y-79347334D01*
X136453212Y-79449152D01*
X136607555Y-79527793D01*
X136772299Y-79581322D01*
X136943389Y-79608420D01*
X136943390Y-79608420D01*
X137916610Y-79608420D01*
X137916611Y-79608420D01*
X138087701Y-79581322D01*
X138252445Y-79527793D01*
X138406788Y-79449152D01*
X138546928Y-79347334D01*
X138669414Y-79224848D01*
X138771232Y-79084708D01*
X138849873Y-78930365D01*
X138903402Y-78765621D01*
X138930500Y-78594531D01*
X138930500Y-78421309D01*
X138903402Y-78250219D01*
X138849873Y-78085475D01*
X138771232Y-77931132D01*
X138669414Y-77790992D01*
X138546928Y-77668506D01*
X138406788Y-77566688D01*
X138252445Y-77488047D01*
X138087701Y-77434518D01*
X138087699Y-77434517D01*
X138087698Y-77434517D01*
X137956271Y-77413701D01*
X137916611Y-77407420D01*
X136943389Y-77407420D01*
X136903728Y-77413701D01*
X136772302Y-77434517D01*
X136607552Y-77488048D01*
X136453211Y-77566688D01*
X136373256Y-77624779D01*
X136313072Y-77668506D01*
X136313070Y-77668508D01*
X136313069Y-77668508D01*
X136190588Y-77790989D01*
X136190588Y-77790990D01*
X136190586Y-77790992D01*
X136146859Y-77851176D01*
X136088768Y-77931131D01*
X136010128Y-78085472D01*
X135956597Y-78250222D01*
X135943426Y-78333385D01*
X135929500Y-78421309D01*
X116070500Y-78421309D01*
X116043402Y-78250219D01*
X115989873Y-78085475D01*
X115911232Y-77931132D01*
X115809414Y-77790992D01*
X115686928Y-77668506D01*
X115546788Y-77566688D01*
X115392445Y-77488047D01*
X115227701Y-77434518D01*
X115227699Y-77434517D01*
X115227698Y-77434517D01*
X115096271Y-77413701D01*
X115056611Y-77407420D01*
X114083389Y-77407420D01*
X114043728Y-77413701D01*
X113912302Y-77434517D01*
X113747552Y-77488048D01*
X113593211Y-77566688D01*
X113513256Y-77624779D01*
X113453072Y-77668506D01*
X113453070Y-77668508D01*
X113453069Y-77668508D01*
X113330588Y-77790989D01*
X113330588Y-77790990D01*
X113330586Y-77790992D01*
X113286859Y-77851176D01*
X113228768Y-77931131D01*
X113150128Y-78085472D01*
X113096597Y-78250222D01*
X113083426Y-78333385D01*
X113069500Y-78421309D01*
X111500500Y-78421309D01*
X111500500Y-75881309D01*
X113069500Y-75881309D01*
X113069500Y-76054531D01*
X113071300Y-76065895D01*
X113087354Y-76167261D01*
X113096598Y-76225621D01*
X113150127Y-76390365D01*
X113228768Y-76544708D01*
X113330586Y-76684848D01*
X113453072Y-76807334D01*
X113593212Y-76909152D01*
X113747555Y-76987793D01*
X113912299Y-77041322D01*
X114083389Y-77068420D01*
X114083390Y-77068420D01*
X115056610Y-77068420D01*
X115056611Y-77068420D01*
X115227701Y-77041322D01*
X115392445Y-76987793D01*
X115546788Y-76909152D01*
X115686928Y-76807334D01*
X115809414Y-76684848D01*
X115911232Y-76544708D01*
X115989873Y-76390365D01*
X116043402Y-76225621D01*
X116070500Y-76054531D01*
X116070500Y-75881309D01*
X135929500Y-75881309D01*
X135929500Y-76054531D01*
X135931300Y-76065895D01*
X135947354Y-76167261D01*
X135956598Y-76225621D01*
X136010127Y-76390365D01*
X136088768Y-76544708D01*
X136190586Y-76684848D01*
X136313072Y-76807334D01*
X136453212Y-76909152D01*
X136607555Y-76987793D01*
X136772299Y-77041322D01*
X136943389Y-77068420D01*
X136943390Y-77068420D01*
X137916610Y-77068420D01*
X137916611Y-77068420D01*
X138087701Y-77041322D01*
X138252445Y-76987793D01*
X138406788Y-76909152D01*
X138546928Y-76807334D01*
X138669414Y-76684848D01*
X138771232Y-76544708D01*
X138849873Y-76390365D01*
X138903402Y-76225621D01*
X138930500Y-76054531D01*
X138930500Y-75881309D01*
X138903402Y-75710219D01*
X138849873Y-75545475D01*
X138771232Y-75391132D01*
X138669414Y-75250992D01*
X138546928Y-75128506D01*
X138406788Y-75026688D01*
X138252445Y-74948047D01*
X138087701Y-74894518D01*
X138087699Y-74894517D01*
X138087698Y-74894517D01*
X137956271Y-74873701D01*
X137916611Y-74867420D01*
X136943389Y-74867420D01*
X136903728Y-74873701D01*
X136772302Y-74894517D01*
X136607552Y-74948048D01*
X136453211Y-75026688D01*
X136373256Y-75084779D01*
X136313072Y-75128506D01*
X136313070Y-75128508D01*
X136313069Y-75128508D01*
X136190588Y-75250989D01*
X136190588Y-75250990D01*
X136190586Y-75250992D01*
X136146859Y-75311176D01*
X136088768Y-75391131D01*
X136010128Y-75545472D01*
X135956597Y-75710222D01*
X135929500Y-75881309D01*
X116070500Y-75881309D01*
X116043402Y-75710219D01*
X115989873Y-75545475D01*
X115911232Y-75391132D01*
X115809414Y-75250992D01*
X115686928Y-75128506D01*
X115546788Y-75026688D01*
X115392445Y-74948047D01*
X115227701Y-74894518D01*
X115227699Y-74894517D01*
X115227698Y-74894517D01*
X115096271Y-74873701D01*
X115056611Y-74867420D01*
X114083389Y-74867420D01*
X114043728Y-74873701D01*
X113912302Y-74894517D01*
X113747552Y-74948048D01*
X113593211Y-75026688D01*
X113513256Y-75084779D01*
X113453072Y-75128506D01*
X113453070Y-75128508D01*
X113453069Y-75128508D01*
X113330588Y-75250989D01*
X113330588Y-75250990D01*
X113330586Y-75250992D01*
X113286859Y-75311176D01*
X113228768Y-75391131D01*
X113150128Y-75545472D01*
X113096597Y-75710222D01*
X113069500Y-75881309D01*
X111500500Y-75881309D01*
X111500500Y-73341309D01*
X113069500Y-73341309D01*
X113069500Y-73514530D01*
X113094530Y-73672568D01*
X113096598Y-73685621D01*
X113150127Y-73850365D01*
X113228768Y-74004708D01*
X113330586Y-74144848D01*
X113453072Y-74267334D01*
X113593212Y-74369152D01*
X113747555Y-74447793D01*
X113912299Y-74501322D01*
X114083389Y-74528420D01*
X114083390Y-74528420D01*
X115056610Y-74528420D01*
X115056611Y-74528420D01*
X115227701Y-74501322D01*
X115392445Y-74447793D01*
X115546788Y-74369152D01*
X115686928Y-74267334D01*
X115809414Y-74144848D01*
X115911232Y-74004708D01*
X115989873Y-73850365D01*
X116043402Y-73685621D01*
X116070500Y-73514531D01*
X116070500Y-73341309D01*
X135929500Y-73341309D01*
X135929500Y-73514530D01*
X135954530Y-73672568D01*
X135956598Y-73685621D01*
X136010127Y-73850365D01*
X136088768Y-74004708D01*
X136190586Y-74144848D01*
X136313072Y-74267334D01*
X136453212Y-74369152D01*
X136607555Y-74447793D01*
X136772299Y-74501322D01*
X136943389Y-74528420D01*
X136943390Y-74528420D01*
X137916610Y-74528420D01*
X137916611Y-74528420D01*
X138087701Y-74501322D01*
X138252445Y-74447793D01*
X138406788Y-74369152D01*
X138546928Y-74267334D01*
X138669414Y-74144848D01*
X138771232Y-74004708D01*
X138849873Y-73850365D01*
X138903402Y-73685621D01*
X138930500Y-73514531D01*
X138930500Y-73341309D01*
X138903402Y-73170219D01*
X138849873Y-73005475D01*
X138771232Y-72851132D01*
X138669414Y-72710992D01*
X138546928Y-72588506D01*
X138406788Y-72486688D01*
X138252445Y-72408047D01*
X138087701Y-72354518D01*
X138087699Y-72354517D01*
X138087698Y-72354517D01*
X137956271Y-72333701D01*
X137916611Y-72327420D01*
X136943389Y-72327420D01*
X136903728Y-72333701D01*
X136772302Y-72354517D01*
X136607552Y-72408048D01*
X136453211Y-72486688D01*
X136377923Y-72541389D01*
X136313072Y-72588506D01*
X136313070Y-72588508D01*
X136313069Y-72588508D01*
X136190588Y-72710989D01*
X136190588Y-72710990D01*
X136190586Y-72710992D01*
X136146859Y-72771176D01*
X136088768Y-72851131D01*
X136010128Y-73005472D01*
X135956597Y-73170222D01*
X135929500Y-73341309D01*
X116070500Y-73341309D01*
X116043402Y-73170219D01*
X115989873Y-73005475D01*
X115911232Y-72851132D01*
X115809414Y-72710992D01*
X115686928Y-72588506D01*
X115546788Y-72486688D01*
X115392445Y-72408047D01*
X115227701Y-72354518D01*
X115227699Y-72354517D01*
X115227698Y-72354517D01*
X115096271Y-72333701D01*
X115056611Y-72327420D01*
X114083389Y-72327420D01*
X114043728Y-72333701D01*
X113912302Y-72354517D01*
X113747552Y-72408048D01*
X113593211Y-72486688D01*
X113517923Y-72541389D01*
X113453072Y-72588506D01*
X113453070Y-72588508D01*
X113453069Y-72588508D01*
X113330588Y-72710989D01*
X113330588Y-72710990D01*
X113330586Y-72710992D01*
X113286859Y-72771176D01*
X113228768Y-72851131D01*
X113150128Y-73005472D01*
X113096597Y-73170222D01*
X113069500Y-73341309D01*
X111500500Y-73341309D01*
X111500500Y-70801309D01*
X113069500Y-70801309D01*
X113069500Y-70974531D01*
X113096598Y-71145621D01*
X113150127Y-71310365D01*
X113228768Y-71464708D01*
X113330586Y-71604848D01*
X113453072Y-71727334D01*
X113593212Y-71829152D01*
X113747555Y-71907793D01*
X113912299Y-71961322D01*
X114083389Y-71988420D01*
X114083390Y-71988420D01*
X115056610Y-71988420D01*
X115056611Y-71988420D01*
X115227701Y-71961322D01*
X115392445Y-71907793D01*
X115546788Y-71829152D01*
X115686928Y-71727334D01*
X115809414Y-71604848D01*
X115911232Y-71464708D01*
X115989873Y-71310365D01*
X116043402Y-71145621D01*
X116070500Y-70974531D01*
X116070500Y-70801309D01*
X135929500Y-70801309D01*
X135929500Y-70974531D01*
X135956598Y-71145621D01*
X136010127Y-71310365D01*
X136088768Y-71464708D01*
X136190586Y-71604848D01*
X136313072Y-71727334D01*
X136453212Y-71829152D01*
X136607555Y-71907793D01*
X136772299Y-71961322D01*
X136943389Y-71988420D01*
X136943390Y-71988420D01*
X137916610Y-71988420D01*
X137916611Y-71988420D01*
X138087701Y-71961322D01*
X138252445Y-71907793D01*
X138406788Y-71829152D01*
X138546928Y-71727334D01*
X138669414Y-71604848D01*
X138771232Y-71464708D01*
X138849873Y-71310365D01*
X138903402Y-71145621D01*
X138930500Y-70974531D01*
X138930500Y-70949983D01*
X154249500Y-70949983D01*
X154249500Y-73050001D01*
X154249501Y-73050018D01*
X154260000Y-73152796D01*
X154260001Y-73152799D01*
X154269588Y-73181730D01*
X154315186Y-73319334D01*
X154407288Y-73468656D01*
X154531344Y-73592712D01*
X154680666Y-73684814D01*
X154847203Y-73739999D01*
X154949991Y-73750500D01*
X157050008Y-73750499D01*
X157152797Y-73739999D01*
X157319334Y-73684814D01*
X157319340Y-73684809D01*
X157323097Y-73683059D01*
X157325924Y-73682629D01*
X157326189Y-73682542D01*
X157326203Y-73682587D01*
X157392175Y-73672568D01*
X157455958Y-73701089D01*
X157494197Y-73759567D01*
X157499500Y-73795442D01*
X157499500Y-75984989D01*
X157496451Y-76035786D01*
X157499500Y-76050685D01*
X157499500Y-76065895D01*
X157511706Y-76111448D01*
X157513413Y-76118680D01*
X157522870Y-76164893D01*
X157522871Y-76164896D01*
X157524055Y-76167264D01*
X157529672Y-76178499D01*
X157533608Y-76193186D01*
X157559041Y-76237238D01*
X157560704Y-76240563D01*
X157560712Y-76240577D01*
X157782848Y-76684850D01*
X157799436Y-76718024D01*
X157811811Y-76786790D01*
X157785043Y-76851329D01*
X157727633Y-76891151D01*
X157680709Y-76896323D01*
X157680667Y-76897161D01*
X157677514Y-76897000D01*
X157677510Y-76897000D01*
X155877490Y-76897000D01*
X155877482Y-76897000D01*
X155774703Y-76907500D01*
X155774702Y-76907501D01*
X155692169Y-76934849D01*
X155608167Y-76962685D01*
X155608162Y-76962687D01*
X155458842Y-77054789D01*
X155334789Y-77178842D01*
X155242687Y-77328162D01*
X155242686Y-77328165D01*
X155187501Y-77494702D01*
X155187501Y-77494703D01*
X155187500Y-77494703D01*
X155177000Y-77597482D01*
X155177000Y-79397517D01*
X155187500Y-79500296D01*
X155202433Y-79545361D01*
X155242686Y-79666835D01*
X155334788Y-79816156D01*
X155458844Y-79940212D01*
X155608165Y-80032314D01*
X155774702Y-80087499D01*
X155877490Y-80098000D01*
X156911718Y-80098000D01*
X156978757Y-80117685D01*
X156999399Y-80134319D01*
X158825681Y-81960601D01*
X158859166Y-82021924D01*
X158862000Y-82048282D01*
X158862000Y-92633023D01*
X158842315Y-92700062D01*
X158789511Y-92745817D01*
X158762365Y-92753266D01*
X158762568Y-92754124D01*
X158755020Y-92755907D01*
X158620171Y-92806202D01*
X158620164Y-92806206D01*
X158504955Y-92892452D01*
X158504952Y-92892455D01*
X158418706Y-93007664D01*
X158418702Y-93007671D01*
X158368408Y-93142517D01*
X158365332Y-93171132D01*
X158362001Y-93202123D01*
X158362000Y-93202135D01*
X158362000Y-95297870D01*
X158362001Y-95297876D01*
X158368408Y-95357483D01*
X158418702Y-95492328D01*
X158418706Y-95492335D01*
X158504952Y-95607544D01*
X158504955Y-95607547D01*
X158620164Y-95693793D01*
X158620171Y-95693797D01*
X158755017Y-95744091D01*
X158755016Y-95744091D01*
X158761944Y-95744835D01*
X158814627Y-95750500D01*
X160910372Y-95750499D01*
X160969983Y-95744091D01*
X161104831Y-95693796D01*
X161220046Y-95607546D01*
X161306296Y-95492331D01*
X161356591Y-95357483D01*
X161363000Y-95297873D01*
X161362999Y-93202128D01*
X161356591Y-93142517D01*
X161349095Y-93122420D01*
X161306297Y-93007671D01*
X161306293Y-93007664D01*
X161220047Y-92892455D01*
X161220044Y-92892452D01*
X161104835Y-92806206D01*
X161104828Y-92806202D01*
X160969982Y-92755908D01*
X160962438Y-92754126D01*
X160962974Y-92751853D01*
X160909188Y-92729571D01*
X160869343Y-92672177D01*
X160863000Y-92633024D01*
X160863000Y-81483956D01*
X160824552Y-81290670D01*
X160824551Y-81290669D01*
X160824551Y-81290665D01*
X160759879Y-81134531D01*
X160749135Y-81108592D01*
X160749128Y-81108579D01*
X160639639Y-80944718D01*
X160639636Y-80944714D01*
X160497186Y-80802264D01*
X160497155Y-80802235D01*
X159407963Y-79713043D01*
X159397718Y-79694281D01*
X159383516Y-79678307D01*
X159381308Y-79664228D01*
X159374478Y-79651720D01*
X159376002Y-79630398D01*
X159372691Y-79609281D01*
X159378445Y-79596243D01*
X159379462Y-79582028D01*
X159392271Y-79564916D01*
X159400903Y-79545361D01*
X159412793Y-79537503D01*
X159421334Y-79526095D01*
X159441360Y-79518625D01*
X159459195Y-79506840D01*
X159479467Y-79504412D01*
X159486798Y-79501678D01*
X159494063Y-79501372D01*
X159498561Y-79501314D01*
X159535786Y-79503549D01*
X159549904Y-79500659D01*
X159561663Y-79500510D01*
X159562056Y-79500620D01*
X159563244Y-79500500D01*
X164436756Y-79500500D01*
X164461614Y-79503017D01*
X164464214Y-79503549D01*
X164515010Y-79500500D01*
X164565892Y-79500500D01*
X164580580Y-79496564D01*
X164595761Y-79495653D01*
X164640532Y-79480728D01*
X164647581Y-79478610D01*
X164693186Y-79466392D01*
X164706357Y-79458787D01*
X164720783Y-79453979D01*
X164763246Y-79425942D01*
X164807314Y-79400500D01*
X164809183Y-79398629D01*
X164828555Y-79382822D01*
X164830758Y-79381368D01*
X164864519Y-79343294D01*
X164900500Y-79307314D01*
X164908101Y-79294146D01*
X164916435Y-79284748D01*
X164916438Y-79284745D01*
X164916444Y-79284738D01*
X164918193Y-79282766D01*
X164939286Y-79240577D01*
X164942802Y-79234044D01*
X164948111Y-79224849D01*
X164966392Y-79193186D01*
X164967078Y-79190622D01*
X164975942Y-79167266D01*
X165142651Y-78833848D01*
X165190239Y-78782691D01*
X165257930Y-78765381D01*
X165324234Y-78787416D01*
X165368100Y-78841800D01*
X165376033Y-78869905D01*
X165376410Y-78872286D01*
X165454260Y-79111883D01*
X165568632Y-79336348D01*
X165716701Y-79540149D01*
X165716705Y-79540154D01*
X165894845Y-79718294D01*
X165894850Y-79718298D01*
X166072617Y-79847452D01*
X166098655Y-79866370D01*
X166241684Y-79939247D01*
X166323116Y-79980739D01*
X166323118Y-79980739D01*
X166323121Y-79980741D01*
X166562715Y-80058590D01*
X166811538Y-80098000D01*
X166811539Y-80098000D01*
X167063461Y-80098000D01*
X167063462Y-80098000D01*
X167312285Y-80058590D01*
X167551879Y-79980741D01*
X167776345Y-79866370D01*
X167980156Y-79718293D01*
X168158293Y-79540156D01*
X168306370Y-79336345D01*
X168420741Y-79111879D01*
X168498590Y-78872285D01*
X168538000Y-78623462D01*
X168538000Y-78371538D01*
X168498590Y-78122715D01*
X168420741Y-77883121D01*
X168420739Y-77883118D01*
X168420739Y-77883116D01*
X168373797Y-77790989D01*
X168306370Y-77658655D01*
X168239552Y-77566688D01*
X168158298Y-77454850D01*
X168158294Y-77454845D01*
X167980154Y-77276705D01*
X167980149Y-77276701D01*
X167776348Y-77128632D01*
X167776347Y-77128631D01*
X167776345Y-77128630D01*
X167706247Y-77092913D01*
X167551883Y-77014260D01*
X167312285Y-76936410D01*
X167063462Y-76897000D01*
X166811538Y-76897000D01*
X166734814Y-76909152D01*
X166562714Y-76936410D01*
X166481849Y-76962685D01*
X166323121Y-77014259D01*
X166323118Y-77014260D01*
X166323113Y-77014262D01*
X166295608Y-77028276D01*
X166226939Y-77041171D01*
X166162199Y-77014893D01*
X166121943Y-76957786D01*
X166118953Y-76887980D01*
X166128405Y-76862339D01*
X166440950Y-76237251D01*
X166466392Y-76193186D01*
X166470327Y-76178497D01*
X166477129Y-76164895D01*
X166487331Y-76115039D01*
X166500500Y-76065892D01*
X166500500Y-76050685D01*
X166503549Y-76035786D01*
X166500723Y-75988703D01*
X166500500Y-75981274D01*
X166500500Y-73275443D01*
X166520185Y-73208404D01*
X166572989Y-73162649D01*
X166642147Y-73152705D01*
X166705703Y-73181730D01*
X166712181Y-73187762D01*
X166843330Y-73318911D01*
X166843338Y-73318918D01*
X166843339Y-73318919D01*
X166872518Y-73341309D01*
X167025382Y-73458607D01*
X167025385Y-73458608D01*
X167025388Y-73458611D01*
X167224112Y-73573344D01*
X167224117Y-73573346D01*
X167224123Y-73573349D01*
X167270865Y-73592710D01*
X167436113Y-73661158D01*
X167657762Y-73720548D01*
X167874312Y-73749057D01*
X167885250Y-73750498D01*
X167885266Y-73750500D01*
X167885273Y-73750500D01*
X168114727Y-73750500D01*
X168114734Y-73750500D01*
X168342238Y-73720548D01*
X168563887Y-73661158D01*
X168775888Y-73573344D01*
X168974612Y-73458611D01*
X169156661Y-73318919D01*
X169156665Y-73318914D01*
X169156670Y-73318911D01*
X169318911Y-73156670D01*
X169318914Y-73156665D01*
X169318919Y-73156661D01*
X169458611Y-72974612D01*
X169573344Y-72775888D01*
X169661158Y-72563887D01*
X169720548Y-72342238D01*
X169750500Y-72114734D01*
X169750500Y-71885266D01*
X169720548Y-71657762D01*
X169661158Y-71436113D01*
X169573344Y-71224112D01*
X169458611Y-71025388D01*
X169458608Y-71025385D01*
X169458607Y-71025382D01*
X169318918Y-70843338D01*
X169318911Y-70843330D01*
X169156670Y-70681089D01*
X169156661Y-70681081D01*
X168974617Y-70541392D01*
X168775890Y-70426657D01*
X168775876Y-70426650D01*
X168563887Y-70338842D01*
X168342238Y-70279452D01*
X168304215Y-70274446D01*
X168114741Y-70249500D01*
X168114734Y-70249500D01*
X167885266Y-70249500D01*
X167885258Y-70249500D01*
X167668715Y-70278009D01*
X167657762Y-70279452D01*
X167564076Y-70304554D01*
X167436112Y-70338842D01*
X167224123Y-70426650D01*
X167224109Y-70426657D01*
X167025382Y-70541392D01*
X166843338Y-70681081D01*
X166712181Y-70812238D01*
X166650858Y-70845723D01*
X166581166Y-70840739D01*
X166525233Y-70798867D01*
X166500816Y-70733403D01*
X166500500Y-70724557D01*
X166500500Y-67934110D01*
X166500500Y-67934108D01*
X166466392Y-67806814D01*
X166400500Y-67692686D01*
X166307314Y-67599500D01*
X166250250Y-67566554D01*
X166193187Y-67533608D01*
X166129539Y-67516554D01*
X166065892Y-67499500D01*
X164065892Y-67499500D01*
X163934108Y-67499500D01*
X163806812Y-67533608D01*
X163692686Y-67599500D01*
X163692683Y-67599502D01*
X163599502Y-67692683D01*
X163599500Y-67692686D01*
X163533608Y-67806812D01*
X163499500Y-67934108D01*
X163499500Y-72724557D01*
X163479815Y-72791596D01*
X163427011Y-72837351D01*
X163357853Y-72847295D01*
X163294297Y-72818270D01*
X163287819Y-72812238D01*
X163156670Y-72681089D01*
X163156661Y-72681081D01*
X162974617Y-72541392D01*
X162775890Y-72426657D01*
X162775876Y-72426650D01*
X162563887Y-72338842D01*
X162521259Y-72327420D01*
X162342238Y-72279452D01*
X162304215Y-72274446D01*
X162114741Y-72249500D01*
X162114734Y-72249500D01*
X161885266Y-72249500D01*
X161885258Y-72249500D01*
X161668715Y-72278009D01*
X161657762Y-72279452D01*
X161564076Y-72304554D01*
X161436112Y-72338842D01*
X161224123Y-72426650D01*
X161224109Y-72426657D01*
X161025382Y-72541392D01*
X160843338Y-72681081D01*
X160712181Y-72812238D01*
X160650858Y-72845723D01*
X160581166Y-72840739D01*
X160525233Y-72798867D01*
X160500816Y-72733403D01*
X160500500Y-72724557D01*
X160500500Y-67934110D01*
X160500500Y-67934108D01*
X160466392Y-67806814D01*
X160400500Y-67692686D01*
X160307314Y-67599500D01*
X160250250Y-67566554D01*
X160193187Y-67533608D01*
X160129539Y-67516554D01*
X160065892Y-67499500D01*
X158065892Y-67499500D01*
X157934108Y-67499500D01*
X157806812Y-67533608D01*
X157692686Y-67599500D01*
X157692683Y-67599502D01*
X157599502Y-67692683D01*
X157599500Y-67692686D01*
X157533608Y-67806812D01*
X157499500Y-67934108D01*
X157499500Y-70204557D01*
X157479815Y-70271596D01*
X157427011Y-70317351D01*
X157357853Y-70327295D01*
X157323106Y-70316944D01*
X157319340Y-70315188D01*
X157307097Y-70311131D01*
X157152797Y-70260001D01*
X157152795Y-70260000D01*
X157050010Y-70249500D01*
X154949998Y-70249500D01*
X154949981Y-70249501D01*
X154847203Y-70260000D01*
X154847200Y-70260001D01*
X154680668Y-70315185D01*
X154680663Y-70315187D01*
X154531342Y-70407289D01*
X154407289Y-70531342D01*
X154315187Y-70680663D01*
X154315185Y-70680668D01*
X154300642Y-70724557D01*
X154260001Y-70847203D01*
X154260001Y-70847204D01*
X154260000Y-70847204D01*
X154249500Y-70949983D01*
X138930500Y-70949983D01*
X138930500Y-70801309D01*
X138903402Y-70630219D01*
X138849873Y-70465475D01*
X138771232Y-70311132D01*
X138669414Y-70170992D01*
X138546928Y-70048506D01*
X138406788Y-69946688D01*
X138252445Y-69868047D01*
X138087701Y-69814518D01*
X138087699Y-69814517D01*
X138087698Y-69814517D01*
X137956271Y-69793701D01*
X137916611Y-69787420D01*
X136943389Y-69787420D01*
X136903728Y-69793701D01*
X136772302Y-69814517D01*
X136607552Y-69868048D01*
X136453211Y-69946688D01*
X136373256Y-70004779D01*
X136313072Y-70048506D01*
X136313070Y-70048508D01*
X136313069Y-70048508D01*
X136190588Y-70170989D01*
X136190588Y-70170990D01*
X136190586Y-70170992D01*
X136166200Y-70204557D01*
X136088768Y-70311131D01*
X136010128Y-70465472D01*
X135956597Y-70630222D01*
X135948542Y-70681081D01*
X135929500Y-70801309D01*
X116070500Y-70801309D01*
X116043402Y-70630219D01*
X115989873Y-70465475D01*
X115911232Y-70311132D01*
X115809414Y-70170992D01*
X115686928Y-70048506D01*
X115546788Y-69946688D01*
X115392445Y-69868047D01*
X115227701Y-69814518D01*
X115227699Y-69814517D01*
X115227698Y-69814517D01*
X115096271Y-69793701D01*
X115056611Y-69787420D01*
X114083389Y-69787420D01*
X114043728Y-69793701D01*
X113912302Y-69814517D01*
X113747552Y-69868048D01*
X113593211Y-69946688D01*
X113513256Y-70004779D01*
X113453072Y-70048506D01*
X113453070Y-70048508D01*
X113453069Y-70048508D01*
X113330588Y-70170989D01*
X113330588Y-70170990D01*
X113330586Y-70170992D01*
X113306200Y-70204557D01*
X113228768Y-70311131D01*
X113150128Y-70465472D01*
X113096597Y-70630222D01*
X113088542Y-70681081D01*
X113069500Y-70801309D01*
X111500500Y-70801309D01*
X111500500Y-68261309D01*
X113069500Y-68261309D01*
X113069500Y-68434531D01*
X113096598Y-68605621D01*
X113150127Y-68770365D01*
X113228768Y-68924708D01*
X113330586Y-69064848D01*
X113453072Y-69187334D01*
X113593212Y-69289152D01*
X113747555Y-69367793D01*
X113912299Y-69421322D01*
X114083389Y-69448420D01*
X114083390Y-69448420D01*
X115056610Y-69448420D01*
X115056611Y-69448420D01*
X115227701Y-69421322D01*
X115392445Y-69367793D01*
X115546788Y-69289152D01*
X115686928Y-69187334D01*
X115809414Y-69064848D01*
X115911232Y-68924708D01*
X115989873Y-68770365D01*
X116043402Y-68605621D01*
X116070500Y-68434531D01*
X116070500Y-68261309D01*
X135929500Y-68261309D01*
X135929500Y-68434531D01*
X135956598Y-68605621D01*
X136010127Y-68770365D01*
X136088768Y-68924708D01*
X136190586Y-69064848D01*
X136313072Y-69187334D01*
X136453212Y-69289152D01*
X136607555Y-69367793D01*
X136772299Y-69421322D01*
X136943389Y-69448420D01*
X136943390Y-69448420D01*
X137916610Y-69448420D01*
X137916611Y-69448420D01*
X138087701Y-69421322D01*
X138252445Y-69367793D01*
X138406788Y-69289152D01*
X138546928Y-69187334D01*
X138669414Y-69064848D01*
X138771232Y-68924708D01*
X138849873Y-68770365D01*
X138903402Y-68605621D01*
X138930500Y-68434531D01*
X138930500Y-68261309D01*
X138903402Y-68090219D01*
X138849873Y-67925475D01*
X138771232Y-67771132D01*
X138669414Y-67630992D01*
X138546928Y-67508506D01*
X138406788Y-67406688D01*
X138252445Y-67328047D01*
X138087701Y-67274518D01*
X138087699Y-67274517D01*
X138087698Y-67274517D01*
X137956271Y-67253701D01*
X137916611Y-67247420D01*
X136943389Y-67247420D01*
X136903728Y-67253701D01*
X136772302Y-67274517D01*
X136607552Y-67328048D01*
X136453211Y-67406688D01*
X136373256Y-67464779D01*
X136313072Y-67508506D01*
X136313070Y-67508508D01*
X136313069Y-67508508D01*
X136190588Y-67630989D01*
X136190588Y-67630990D01*
X136190586Y-67630992D01*
X136146859Y-67691176D01*
X136088768Y-67771131D01*
X136010128Y-67925472D01*
X135956597Y-68090222D01*
X135929500Y-68261309D01*
X116070500Y-68261309D01*
X116043402Y-68090219D01*
X115989873Y-67925475D01*
X115911232Y-67771132D01*
X115809414Y-67630992D01*
X115686928Y-67508506D01*
X115546788Y-67406688D01*
X115392445Y-67328047D01*
X115227701Y-67274518D01*
X115227699Y-67274517D01*
X115227698Y-67274517D01*
X115096271Y-67253701D01*
X115056611Y-67247420D01*
X114083389Y-67247420D01*
X114043728Y-67253701D01*
X113912302Y-67274517D01*
X113747552Y-67328048D01*
X113593211Y-67406688D01*
X113513256Y-67464779D01*
X113453072Y-67508506D01*
X113453070Y-67508508D01*
X113453069Y-67508508D01*
X113330588Y-67630989D01*
X113330588Y-67630990D01*
X113330586Y-67630992D01*
X113286859Y-67691176D01*
X113228768Y-67771131D01*
X113150128Y-67925472D01*
X113096597Y-68090222D01*
X113069500Y-68261309D01*
X111500500Y-68261309D01*
X111500500Y-65721309D01*
X113069500Y-65721309D01*
X113069500Y-65894531D01*
X113096598Y-66065621D01*
X113150127Y-66230365D01*
X113228768Y-66384708D01*
X113330586Y-66524848D01*
X113453072Y-66647334D01*
X113593212Y-66749152D01*
X113747555Y-66827793D01*
X113912299Y-66881322D01*
X114083389Y-66908420D01*
X114083390Y-66908420D01*
X115056610Y-66908420D01*
X115056611Y-66908420D01*
X115227701Y-66881322D01*
X115392445Y-66827793D01*
X115546788Y-66749152D01*
X115686928Y-66647334D01*
X115809414Y-66524848D01*
X115911232Y-66384708D01*
X115989873Y-66230365D01*
X116043402Y-66065621D01*
X116070500Y-65894531D01*
X116070500Y-65721309D01*
X135929500Y-65721309D01*
X135929500Y-65894531D01*
X135956598Y-66065621D01*
X136010127Y-66230365D01*
X136088768Y-66384708D01*
X136190586Y-66524848D01*
X136313072Y-66647334D01*
X136453212Y-66749152D01*
X136607555Y-66827793D01*
X136772299Y-66881322D01*
X136943389Y-66908420D01*
X136943390Y-66908420D01*
X137916610Y-66908420D01*
X137916611Y-66908420D01*
X138087701Y-66881322D01*
X138252445Y-66827793D01*
X138406788Y-66749152D01*
X138546928Y-66647334D01*
X138669414Y-66524848D01*
X138771232Y-66384708D01*
X138849873Y-66230365D01*
X138903402Y-66065621D01*
X138930500Y-65894531D01*
X138930500Y-65721309D01*
X138903402Y-65550219D01*
X138849873Y-65385475D01*
X138771232Y-65231132D01*
X138669414Y-65090992D01*
X138546928Y-64968506D01*
X138406788Y-64866688D01*
X138252445Y-64788047D01*
X138087701Y-64734518D01*
X138087699Y-64734517D01*
X138087698Y-64734517D01*
X137956271Y-64713701D01*
X137916611Y-64707420D01*
X136943389Y-64707420D01*
X136903728Y-64713701D01*
X136772302Y-64734517D01*
X136607552Y-64788048D01*
X136453211Y-64866688D01*
X136373256Y-64924779D01*
X136313072Y-64968506D01*
X136313070Y-64968508D01*
X136313069Y-64968508D01*
X136190588Y-65090989D01*
X136190588Y-65090990D01*
X136190586Y-65090992D01*
X136146859Y-65151176D01*
X136088768Y-65231131D01*
X136010128Y-65385472D01*
X135956597Y-65550222D01*
X135929500Y-65721309D01*
X116070500Y-65721309D01*
X116043402Y-65550219D01*
X115989873Y-65385475D01*
X115911232Y-65231132D01*
X115809414Y-65090992D01*
X115686928Y-64968506D01*
X115546788Y-64866688D01*
X115392445Y-64788047D01*
X115227701Y-64734518D01*
X115227699Y-64734517D01*
X115227698Y-64734517D01*
X115096271Y-64713701D01*
X115056611Y-64707420D01*
X114083389Y-64707420D01*
X114043728Y-64713701D01*
X113912302Y-64734517D01*
X113747552Y-64788048D01*
X113593211Y-64866688D01*
X113513256Y-64924779D01*
X113453072Y-64968506D01*
X113453070Y-64968508D01*
X113453069Y-64968508D01*
X113330588Y-65090989D01*
X113330588Y-65090990D01*
X113330586Y-65090992D01*
X113286859Y-65151176D01*
X113228768Y-65231131D01*
X113150128Y-65385472D01*
X113096597Y-65550222D01*
X113069500Y-65721309D01*
X111500500Y-65721309D01*
X111500500Y-63181309D01*
X113069500Y-63181309D01*
X113069500Y-63354531D01*
X113096598Y-63525621D01*
X113150127Y-63690365D01*
X113228768Y-63844708D01*
X113330586Y-63984848D01*
X113453072Y-64107334D01*
X113593212Y-64209152D01*
X113747555Y-64287793D01*
X113912299Y-64341322D01*
X114083389Y-64368420D01*
X114083390Y-64368420D01*
X115056610Y-64368420D01*
X115056611Y-64368420D01*
X115227701Y-64341322D01*
X115392445Y-64287793D01*
X115546788Y-64209152D01*
X115686928Y-64107334D01*
X115809414Y-63984848D01*
X115911232Y-63844708D01*
X115989873Y-63690365D01*
X116043402Y-63525621D01*
X116070500Y-63354531D01*
X116070500Y-63181309D01*
X135929500Y-63181309D01*
X135929500Y-63354531D01*
X135956598Y-63525621D01*
X136010127Y-63690365D01*
X136088768Y-63844708D01*
X136190586Y-63984848D01*
X136313072Y-64107334D01*
X136453212Y-64209152D01*
X136607555Y-64287793D01*
X136772299Y-64341322D01*
X136943389Y-64368420D01*
X136943390Y-64368420D01*
X137916610Y-64368420D01*
X137916611Y-64368420D01*
X138087701Y-64341322D01*
X138252445Y-64287793D01*
X138406788Y-64209152D01*
X138546928Y-64107334D01*
X138669414Y-63984848D01*
X138771232Y-63844708D01*
X138849873Y-63690365D01*
X138903402Y-63525621D01*
X138930500Y-63354531D01*
X138930500Y-63181309D01*
X138903402Y-63010219D01*
X138849873Y-62845475D01*
X138771232Y-62691132D01*
X138669414Y-62550992D01*
X138546928Y-62428506D01*
X138406788Y-62326688D01*
X138252445Y-62248047D01*
X138087701Y-62194518D01*
X138087699Y-62194517D01*
X138087698Y-62194517D01*
X137956271Y-62173701D01*
X137916611Y-62167420D01*
X136943389Y-62167420D01*
X136903728Y-62173701D01*
X136772302Y-62194517D01*
X136607552Y-62248048D01*
X136453211Y-62326688D01*
X136373256Y-62384779D01*
X136313072Y-62428506D01*
X136313070Y-62428508D01*
X136313069Y-62428508D01*
X136190588Y-62550989D01*
X136190588Y-62550990D01*
X136190586Y-62550992D01*
X136146859Y-62611176D01*
X136088768Y-62691131D01*
X136010128Y-62845472D01*
X135956597Y-63010222D01*
X135929500Y-63181309D01*
X116070500Y-63181309D01*
X116043402Y-63010219D01*
X115989873Y-62845475D01*
X115911232Y-62691132D01*
X115809414Y-62550992D01*
X115686928Y-62428506D01*
X115546788Y-62326688D01*
X115392445Y-62248047D01*
X115227701Y-62194518D01*
X115227699Y-62194517D01*
X115227698Y-62194517D01*
X115096271Y-62173701D01*
X115056611Y-62167420D01*
X114083389Y-62167420D01*
X114043728Y-62173701D01*
X113912302Y-62194517D01*
X113747552Y-62248048D01*
X113593211Y-62326688D01*
X113513256Y-62384779D01*
X113453072Y-62428506D01*
X113453070Y-62428508D01*
X113453069Y-62428508D01*
X113330588Y-62550989D01*
X113330588Y-62550990D01*
X113330586Y-62550992D01*
X113286859Y-62611176D01*
X113228768Y-62691131D01*
X113150128Y-62845472D01*
X113096597Y-63010222D01*
X113069500Y-63181309D01*
X111500500Y-63181309D01*
X111500500Y-60641309D01*
X113069500Y-60641309D01*
X113069500Y-60814530D01*
X113092012Y-60956670D01*
X113096598Y-60985621D01*
X113150127Y-61150365D01*
X113228768Y-61304708D01*
X113330586Y-61444848D01*
X113453072Y-61567334D01*
X113593212Y-61669152D01*
X113747555Y-61747793D01*
X113912299Y-61801322D01*
X114083389Y-61828420D01*
X114083390Y-61828420D01*
X115056610Y-61828420D01*
X115056611Y-61828420D01*
X115227701Y-61801322D01*
X115392445Y-61747793D01*
X115546788Y-61669152D01*
X115686928Y-61567334D01*
X115809414Y-61444848D01*
X115911232Y-61304708D01*
X115989873Y-61150365D01*
X116043402Y-60985621D01*
X116070500Y-60814531D01*
X116070500Y-60641309D01*
X135929500Y-60641309D01*
X135929500Y-60814530D01*
X135952012Y-60956670D01*
X135956598Y-60985621D01*
X136010127Y-61150365D01*
X136088768Y-61304708D01*
X136190586Y-61444848D01*
X136313072Y-61567334D01*
X136453212Y-61669152D01*
X136607555Y-61747793D01*
X136772299Y-61801322D01*
X136943389Y-61828420D01*
X136943390Y-61828420D01*
X137916610Y-61828420D01*
X137916611Y-61828420D01*
X138087701Y-61801322D01*
X138252445Y-61747793D01*
X138406788Y-61669152D01*
X138546928Y-61567334D01*
X138669414Y-61444848D01*
X138771232Y-61304708D01*
X138849873Y-61150365D01*
X138903402Y-60985621D01*
X138930500Y-60814531D01*
X138930500Y-60641309D01*
X138903402Y-60470219D01*
X138849873Y-60305475D01*
X138771232Y-60151132D01*
X138669414Y-60010992D01*
X138546928Y-59888506D01*
X138406788Y-59786688D01*
X138406787Y-59786687D01*
X138252447Y-59708048D01*
X138252446Y-59708047D01*
X138252445Y-59708047D01*
X138182308Y-59685258D01*
X154249500Y-59685258D01*
X154249500Y-59914741D01*
X154274446Y-60104215D01*
X154279452Y-60142238D01*
X154323190Y-60305472D01*
X154338842Y-60363887D01*
X154426650Y-60575876D01*
X154426657Y-60575890D01*
X154541392Y-60774617D01*
X154681081Y-60956661D01*
X154681089Y-60956670D01*
X154843330Y-61118911D01*
X154843338Y-61118918D01*
X155025382Y-61258607D01*
X155025385Y-61258608D01*
X155025388Y-61258611D01*
X155224112Y-61373344D01*
X155224117Y-61373346D01*
X155224123Y-61373349D01*
X155315480Y-61411190D01*
X155436113Y-61461158D01*
X155657762Y-61520548D01*
X155885266Y-61550500D01*
X155885273Y-61550500D01*
X156114727Y-61550500D01*
X156114734Y-61550500D01*
X156342238Y-61520548D01*
X156563887Y-61461158D01*
X156775888Y-61373344D01*
X156974612Y-61258611D01*
X157156661Y-61118919D01*
X157156665Y-61118914D01*
X157156670Y-61118911D01*
X157318911Y-60956670D01*
X157318914Y-60956665D01*
X157318919Y-60956661D01*
X157458611Y-60774612D01*
X157573344Y-60575888D01*
X157661158Y-60363887D01*
X157720548Y-60142238D01*
X157750500Y-59914734D01*
X157750500Y-59685266D01*
X157750499Y-59685258D01*
X166249500Y-59685258D01*
X166249500Y-59914741D01*
X166274446Y-60104215D01*
X166279452Y-60142238D01*
X166323190Y-60305472D01*
X166338842Y-60363887D01*
X166426650Y-60575876D01*
X166426657Y-60575890D01*
X166541392Y-60774617D01*
X166681081Y-60956661D01*
X166681089Y-60956670D01*
X166843330Y-61118911D01*
X166843338Y-61118918D01*
X167025382Y-61258607D01*
X167025385Y-61258608D01*
X167025388Y-61258611D01*
X167224112Y-61373344D01*
X167224117Y-61373346D01*
X167224123Y-61373349D01*
X167315480Y-61411190D01*
X167436113Y-61461158D01*
X167657762Y-61520548D01*
X167885266Y-61550500D01*
X167885273Y-61550500D01*
X168114727Y-61550500D01*
X168114734Y-61550500D01*
X168342238Y-61520548D01*
X168563887Y-61461158D01*
X168775888Y-61373344D01*
X168974612Y-61258611D01*
X169156661Y-61118919D01*
X169156665Y-61118914D01*
X169156670Y-61118911D01*
X169318911Y-60956670D01*
X169318914Y-60956665D01*
X169318919Y-60956661D01*
X169458611Y-60774612D01*
X169573344Y-60575888D01*
X169661158Y-60363887D01*
X169720548Y-60142238D01*
X169750500Y-59914734D01*
X169750500Y-59685266D01*
X169720548Y-59457762D01*
X169661158Y-59236113D01*
X169574679Y-59027334D01*
X169573349Y-59024123D01*
X169573346Y-59024117D01*
X169573344Y-59024112D01*
X169458611Y-58825388D01*
X169458608Y-58825385D01*
X169458607Y-58825382D01*
X169318918Y-58643338D01*
X169318911Y-58643330D01*
X169156670Y-58481089D01*
X169156661Y-58481081D01*
X168974617Y-58341392D01*
X168775890Y-58226657D01*
X168775876Y-58226650D01*
X168563887Y-58138842D01*
X168342238Y-58079452D01*
X168304215Y-58074446D01*
X168114741Y-58049500D01*
X168114734Y-58049500D01*
X167885266Y-58049500D01*
X167885258Y-58049500D01*
X167668715Y-58078009D01*
X167657762Y-58079452D01*
X167576190Y-58101309D01*
X167436112Y-58138842D01*
X167224123Y-58226650D01*
X167224109Y-58226657D01*
X167025382Y-58341392D01*
X166843338Y-58481081D01*
X166681081Y-58643338D01*
X166541392Y-58825382D01*
X166426657Y-59024109D01*
X166426650Y-59024123D01*
X166338842Y-59236112D01*
X166279453Y-59457759D01*
X166279451Y-59457770D01*
X166249500Y-59685258D01*
X157750499Y-59685258D01*
X157720548Y-59457762D01*
X157661158Y-59236113D01*
X157574679Y-59027334D01*
X157573349Y-59024123D01*
X157573346Y-59024117D01*
X157573344Y-59024112D01*
X157458611Y-58825388D01*
X157458608Y-58825385D01*
X157458607Y-58825382D01*
X157318918Y-58643338D01*
X157318911Y-58643330D01*
X157156670Y-58481089D01*
X157156661Y-58481081D01*
X156974617Y-58341392D01*
X156775890Y-58226657D01*
X156775876Y-58226650D01*
X156563887Y-58138842D01*
X156342238Y-58079452D01*
X156304215Y-58074446D01*
X156114741Y-58049500D01*
X156114734Y-58049500D01*
X155885266Y-58049500D01*
X155885258Y-58049500D01*
X155668715Y-58078009D01*
X155657762Y-58079452D01*
X155576190Y-58101309D01*
X155436112Y-58138842D01*
X155224123Y-58226650D01*
X155224109Y-58226657D01*
X155025382Y-58341392D01*
X154843338Y-58481081D01*
X154681081Y-58643338D01*
X154541392Y-58825382D01*
X154426657Y-59024109D01*
X154426650Y-59024123D01*
X154338842Y-59236112D01*
X154279453Y-59457759D01*
X154279451Y-59457770D01*
X154249500Y-59685258D01*
X138182308Y-59685258D01*
X138087701Y-59654518D01*
X138087699Y-59654517D01*
X138087698Y-59654517D01*
X137956271Y-59633701D01*
X137916611Y-59627420D01*
X136943389Y-59627420D01*
X136903728Y-59633701D01*
X136772302Y-59654517D01*
X136607552Y-59708048D01*
X136453211Y-59786688D01*
X136373256Y-59844779D01*
X136313072Y-59888506D01*
X136313070Y-59888508D01*
X136313069Y-59888508D01*
X136190588Y-60010989D01*
X136190588Y-60010990D01*
X136190586Y-60010992D01*
X136146859Y-60071176D01*
X136088768Y-60151131D01*
X136010128Y-60305472D01*
X135956597Y-60470222D01*
X135929500Y-60641309D01*
X116070500Y-60641309D01*
X116043402Y-60470219D01*
X115989873Y-60305475D01*
X115911232Y-60151132D01*
X115809414Y-60010992D01*
X115686928Y-59888506D01*
X115546788Y-59786688D01*
X115392445Y-59708047D01*
X115227701Y-59654518D01*
X115227699Y-59654517D01*
X115227698Y-59654517D01*
X115096271Y-59633701D01*
X115056611Y-59627420D01*
X114083389Y-59627420D01*
X114043728Y-59633701D01*
X113912302Y-59654517D01*
X113747552Y-59708048D01*
X113593211Y-59786688D01*
X113513256Y-59844779D01*
X113453072Y-59888506D01*
X113453070Y-59888508D01*
X113453069Y-59888508D01*
X113330588Y-60010989D01*
X113330588Y-60010990D01*
X113330586Y-60010992D01*
X113286859Y-60071176D01*
X113228768Y-60151131D01*
X113150128Y-60305472D01*
X113096597Y-60470222D01*
X113069500Y-60641309D01*
X111500500Y-60641309D01*
X111500500Y-58101309D01*
X113069500Y-58101309D01*
X113069500Y-58274531D01*
X113096598Y-58445621D01*
X113150127Y-58610365D01*
X113228768Y-58764708D01*
X113330586Y-58904848D01*
X113453072Y-59027334D01*
X113593212Y-59129152D01*
X113747555Y-59207793D01*
X113912299Y-59261322D01*
X114083389Y-59288420D01*
X114083390Y-59288420D01*
X115056610Y-59288420D01*
X115056611Y-59288420D01*
X115227701Y-59261322D01*
X115392445Y-59207793D01*
X115546788Y-59129152D01*
X115686928Y-59027334D01*
X115809414Y-58904848D01*
X115911232Y-58764708D01*
X115989873Y-58610365D01*
X116043402Y-58445621D01*
X116070500Y-58274531D01*
X116070500Y-58101309D01*
X135929500Y-58101309D01*
X135929500Y-58274531D01*
X135956598Y-58445621D01*
X136010127Y-58610365D01*
X136088768Y-58764708D01*
X136190586Y-58904848D01*
X136313072Y-59027334D01*
X136453212Y-59129152D01*
X136607555Y-59207793D01*
X136772299Y-59261322D01*
X136943389Y-59288420D01*
X136943390Y-59288420D01*
X137916610Y-59288420D01*
X137916611Y-59288420D01*
X138087701Y-59261322D01*
X138252445Y-59207793D01*
X138406788Y-59129152D01*
X138546928Y-59027334D01*
X138669414Y-58904848D01*
X138771232Y-58764708D01*
X138849873Y-58610365D01*
X138903402Y-58445621D01*
X138930500Y-58274531D01*
X138930500Y-58101309D01*
X138903402Y-57930219D01*
X138849873Y-57765475D01*
X138771232Y-57611132D01*
X138669414Y-57470992D01*
X138546928Y-57348506D01*
X138406788Y-57246688D01*
X138252445Y-57168047D01*
X138087701Y-57114518D01*
X138087699Y-57114517D01*
X138087698Y-57114517D01*
X137956271Y-57093701D01*
X137916611Y-57087420D01*
X136943389Y-57087420D01*
X136903728Y-57093701D01*
X136772302Y-57114517D01*
X136607552Y-57168048D01*
X136453211Y-57246688D01*
X136373256Y-57304779D01*
X136313072Y-57348506D01*
X136313070Y-57348508D01*
X136313069Y-57348508D01*
X136190588Y-57470989D01*
X136190588Y-57470990D01*
X136190586Y-57470992D01*
X136146859Y-57531176D01*
X136088768Y-57611131D01*
X136010128Y-57765472D01*
X135956597Y-57930222D01*
X135937706Y-58049500D01*
X135929500Y-58101309D01*
X116070500Y-58101309D01*
X116043402Y-57930219D01*
X115989873Y-57765475D01*
X115911232Y-57611132D01*
X115809414Y-57470992D01*
X115686928Y-57348506D01*
X115546788Y-57246688D01*
X115392445Y-57168047D01*
X115227701Y-57114518D01*
X115227699Y-57114517D01*
X115227698Y-57114517D01*
X115096271Y-57093701D01*
X115056611Y-57087420D01*
X114083389Y-57087420D01*
X114043728Y-57093701D01*
X113912302Y-57114517D01*
X113747552Y-57168048D01*
X113593211Y-57246688D01*
X113513256Y-57304779D01*
X113453072Y-57348506D01*
X113453070Y-57348508D01*
X113453069Y-57348508D01*
X113330588Y-57470989D01*
X113330588Y-57470990D01*
X113330586Y-57470992D01*
X113286859Y-57531176D01*
X113228768Y-57611131D01*
X113150128Y-57765472D01*
X113096597Y-57930222D01*
X113077706Y-58049500D01*
X113069500Y-58101309D01*
X111500500Y-58101309D01*
X111500500Y-55561309D01*
X113069500Y-55561309D01*
X113069500Y-55734531D01*
X113096598Y-55905621D01*
X113150127Y-56070365D01*
X113228768Y-56224708D01*
X113330586Y-56364848D01*
X113453072Y-56487334D01*
X113593212Y-56589152D01*
X113747555Y-56667793D01*
X113912299Y-56721322D01*
X114083389Y-56748420D01*
X114083390Y-56748420D01*
X115056610Y-56748420D01*
X115056611Y-56748420D01*
X115227701Y-56721322D01*
X115392445Y-56667793D01*
X115546788Y-56589152D01*
X115686928Y-56487334D01*
X115809414Y-56364848D01*
X115911232Y-56224708D01*
X115989873Y-56070365D01*
X116043402Y-55905621D01*
X116070500Y-55734531D01*
X116070500Y-55561309D01*
X135929500Y-55561309D01*
X135929500Y-55734531D01*
X135956598Y-55905621D01*
X136010127Y-56070365D01*
X136088768Y-56224708D01*
X136190586Y-56364848D01*
X136313072Y-56487334D01*
X136453212Y-56589152D01*
X136607555Y-56667793D01*
X136772299Y-56721322D01*
X136943389Y-56748420D01*
X136943390Y-56748420D01*
X137916610Y-56748420D01*
X137916611Y-56748420D01*
X138087701Y-56721322D01*
X138252445Y-56667793D01*
X138406788Y-56589152D01*
X138546928Y-56487334D01*
X138669414Y-56364848D01*
X138771232Y-56224708D01*
X138849873Y-56070365D01*
X138903402Y-55905621D01*
X138930500Y-55734531D01*
X138930500Y-55561309D01*
X138903402Y-55390219D01*
X138849873Y-55225475D01*
X138771232Y-55071132D01*
X138669414Y-54930992D01*
X138546928Y-54808506D01*
X138406788Y-54706688D01*
X138252445Y-54628047D01*
X138087701Y-54574518D01*
X138087699Y-54574517D01*
X138087698Y-54574517D01*
X137956271Y-54553701D01*
X137916611Y-54547420D01*
X136943389Y-54547420D01*
X136903728Y-54553701D01*
X136772302Y-54574517D01*
X136607552Y-54628048D01*
X136453211Y-54706688D01*
X136373256Y-54764779D01*
X136313072Y-54808506D01*
X136313070Y-54808508D01*
X136313069Y-54808508D01*
X136190588Y-54930989D01*
X136190588Y-54930990D01*
X136190586Y-54930992D01*
X136146859Y-54991176D01*
X136088768Y-55071131D01*
X136010128Y-55225472D01*
X135956597Y-55390222D01*
X135929500Y-55561309D01*
X116070500Y-55561309D01*
X116043402Y-55390219D01*
X115989873Y-55225475D01*
X115911232Y-55071132D01*
X115809414Y-54930992D01*
X115686928Y-54808506D01*
X115546788Y-54706688D01*
X115392445Y-54628047D01*
X115227701Y-54574518D01*
X115227699Y-54574517D01*
X115227698Y-54574517D01*
X115096271Y-54553701D01*
X115056611Y-54547420D01*
X114083389Y-54547420D01*
X114043728Y-54553701D01*
X113912302Y-54574517D01*
X113747552Y-54628048D01*
X113593211Y-54706688D01*
X113513256Y-54764779D01*
X113453072Y-54808506D01*
X113453070Y-54808508D01*
X113453069Y-54808508D01*
X113330588Y-54930989D01*
X113330588Y-54930990D01*
X113330586Y-54930992D01*
X113286859Y-54991176D01*
X113228768Y-55071131D01*
X113150128Y-55225472D01*
X113096597Y-55390222D01*
X113069500Y-55561309D01*
X111500500Y-55561309D01*
X111500500Y-52460055D01*
X113069500Y-52460055D01*
X113069500Y-53755790D01*
X113069501Y-53755796D01*
X113075908Y-53815403D01*
X113126202Y-53950248D01*
X113126206Y-53950255D01*
X113212452Y-54065464D01*
X113212455Y-54065467D01*
X113327664Y-54151713D01*
X113327671Y-54151717D01*
X113462517Y-54202011D01*
X113462516Y-54202011D01*
X113469444Y-54202755D01*
X113522127Y-54208420D01*
X115617872Y-54208419D01*
X115677483Y-54202011D01*
X115812331Y-54151716D01*
X115927546Y-54065466D01*
X116013796Y-53950251D01*
X116064091Y-53815403D01*
X116070500Y-53755793D01*
X116070499Y-52857919D01*
X135955884Y-52857919D01*
X135955885Y-52857920D01*
X137114314Y-52857920D01*
X137109920Y-52862314D01*
X137057259Y-52953526D01*
X137030000Y-53055259D01*
X137030000Y-53160581D01*
X137057259Y-53262314D01*
X137109920Y-53353526D01*
X137114314Y-53357920D01*
X135955885Y-53357920D01*
X135957085Y-53365504D01*
X136010591Y-53530175D01*
X136089195Y-53684444D01*
X136190967Y-53824522D01*
X136313397Y-53946952D01*
X136453475Y-54048724D01*
X136607742Y-54127328D01*
X136772415Y-54180834D01*
X136943429Y-54207920D01*
X137180000Y-54207920D01*
X137180000Y-53423606D01*
X137184394Y-53428000D01*
X137275606Y-53480661D01*
X137377339Y-53507920D01*
X137482661Y-53507920D01*
X137584394Y-53480661D01*
X137675606Y-53428000D01*
X137680000Y-53423606D01*
X137680000Y-54207920D01*
X137916571Y-54207920D01*
X138087584Y-54180834D01*
X138252257Y-54127328D01*
X138406524Y-54048724D01*
X138546602Y-53946952D01*
X138669032Y-53824522D01*
X138770804Y-53684444D01*
X138849408Y-53530175D01*
X138902914Y-53365504D01*
X138904115Y-53357920D01*
X137745686Y-53357920D01*
X137750080Y-53353526D01*
X137802741Y-53262314D01*
X137830000Y-53160581D01*
X137830000Y-53055259D01*
X137802741Y-52953526D01*
X137750080Y-52862314D01*
X137745686Y-52857920D01*
X138904115Y-52857920D01*
X138904115Y-52857919D01*
X138902914Y-52850335D01*
X138849408Y-52685664D01*
X138770804Y-52531395D01*
X138669032Y-52391317D01*
X138546602Y-52268887D01*
X138406524Y-52167115D01*
X138252257Y-52088511D01*
X138087584Y-52035005D01*
X137916571Y-52007920D01*
X137680000Y-52007920D01*
X137680000Y-52792234D01*
X137675606Y-52787840D01*
X137584394Y-52735179D01*
X137482661Y-52707920D01*
X137377339Y-52707920D01*
X137275606Y-52735179D01*
X137184394Y-52787840D01*
X137180000Y-52792234D01*
X137180000Y-52007920D01*
X136943429Y-52007920D01*
X136772415Y-52035005D01*
X136607742Y-52088511D01*
X136453475Y-52167115D01*
X136313397Y-52268887D01*
X136190967Y-52391317D01*
X136089195Y-52531395D01*
X136010591Y-52685664D01*
X135957085Y-52850335D01*
X135955884Y-52857919D01*
X116070499Y-52857919D01*
X116070499Y-52460048D01*
X116065299Y-52411677D01*
X116064091Y-52400436D01*
X116013797Y-52265591D01*
X116013793Y-52265584D01*
X115927547Y-52150375D01*
X115927544Y-52150372D01*
X115812335Y-52064126D01*
X115812328Y-52064122D01*
X115677482Y-52013828D01*
X115677483Y-52013828D01*
X115617883Y-52007421D01*
X115617881Y-52007420D01*
X115617873Y-52007420D01*
X115617864Y-52007420D01*
X113522129Y-52007420D01*
X113522123Y-52007421D01*
X113462516Y-52013828D01*
X113327671Y-52064122D01*
X113327664Y-52064126D01*
X113212455Y-52150372D01*
X113212452Y-52150375D01*
X113126206Y-52265584D01*
X113126202Y-52265591D01*
X113075908Y-52400437D01*
X113075867Y-52400823D01*
X113069501Y-52460043D01*
X113069500Y-52460055D01*
X111500500Y-52460055D01*
X111500500Y-51003750D01*
X111500726Y-50996263D01*
X111518271Y-50706205D01*
X111520076Y-50691340D01*
X111571780Y-50409201D01*
X111575364Y-50394663D01*
X111602984Y-50306027D01*
X111660696Y-50120822D01*
X111665998Y-50106841D01*
X111783731Y-49845249D01*
X111790676Y-49832016D01*
X111939080Y-49586526D01*
X111947567Y-49574230D01*
X112124480Y-49348417D01*
X112134395Y-49337226D01*
X112337226Y-49134395D01*
X112348417Y-49124480D01*
X112574230Y-48947567D01*
X112586526Y-48939080D01*
X112832016Y-48790676D01*
X112845249Y-48783731D01*
X113106841Y-48665998D01*
X113120822Y-48660696D01*
X113394668Y-48575362D01*
X113409197Y-48571780D01*
X113691344Y-48520075D01*
X113706201Y-48518271D01*
X113996264Y-48500726D01*
X114003751Y-48500500D01*
X114065892Y-48500500D01*
X159487949Y-48500500D01*
X159554988Y-48520185D01*
G37*
G04 #@! TD.AperFunction*
M02*
