G04 #@! TF.GenerationSoftware,KiCad,Pcbnew,9.0.4*
G04 #@! TF.CreationDate,2025-09-23T23:32:06-07:00*
G04 #@! TF.ProjectId,hidpawx_hardware,68696470-6177-4785-9f68-617264776172,rev?*
G04 #@! TF.SameCoordinates,Original*
G04 #@! TF.FileFunction,Copper,L1,Top*
G04 #@! TF.FilePolarity,Positive*
%FSLAX46Y46*%
G04 Gerber Fmt 4.6, Leading zero omitted, Abs format (unit mm)*
G04 Created by KiCad (PCBNEW 9.0.4) date 2025-09-23 23:32:06*
%MOMM*%
%LPD*%
G01*
G04 APERTURE LIST*
G04 Aperture macros list*
%AMRoundRect*
0 Rectangle with rounded corners*
0 $1 Rounding radius*
0 $2 $3 $4 $5 $6 $7 $8 $9 X,Y pos of 4 corners*
0 Add a 4 corners polygon primitive as box body*
4,1,4,$2,$3,$4,$5,$6,$7,$8,$9,$2,$3,0*
0 Add four circle primitives for the rounded corners*
1,1,$1+$1,$2,$3*
1,1,$1+$1,$4,$5*
1,1,$1+$1,$6,$7*
1,1,$1+$1,$8,$9*
0 Add four rect primitives between the rounded corners*
20,1,$1+$1,$2,$3,$4,$5,0*
20,1,$1+$1,$4,$5,$6,$7,0*
20,1,$1+$1,$6,$7,$8,$9,0*
20,1,$1+$1,$8,$9,$2,$3,0*%
G04 Aperture macros list end*
G04 #@! TA.AperFunction,ComponentPad*
%ADD10C,2.000000*%
G04 #@! TD*
G04 #@! TA.AperFunction,ComponentPad*
%ADD11R,2.000000X2.000000*%
G04 #@! TD*
G04 #@! TA.AperFunction,SMDPad,CuDef*
%ADD12RoundRect,0.250000X0.450000X-0.350000X0.450000X0.350000X-0.450000X0.350000X-0.450000X-0.350000X0*%
G04 #@! TD*
G04 #@! TA.AperFunction,ComponentPad*
%ADD13C,2.500000*%
G04 #@! TD*
G04 #@! TA.AperFunction,ComponentPad*
%ADD14RoundRect,0.250000X1.000000X-1.000000X1.000000X1.000000X-1.000000X1.000000X-1.000000X-1.000000X0*%
G04 #@! TD*
G04 #@! TA.AperFunction,ComponentPad*
%ADD15R,2.000000X1.200000*%
G04 #@! TD*
G04 #@! TA.AperFunction,ComponentPad*
%ADD16O,2.000000X1.200000*%
G04 #@! TD*
G04 #@! TA.AperFunction,SMDPad,CuDef*
%ADD17RoundRect,0.250000X0.350000X0.450000X-0.350000X0.450000X-0.350000X-0.450000X0.350000X-0.450000X0*%
G04 #@! TD*
G04 #@! TA.AperFunction,SMDPad,CuDef*
%ADD18RoundRect,0.250000X-0.450000X0.350000X-0.450000X-0.350000X0.450000X-0.350000X0.450000X0.350000X0*%
G04 #@! TD*
G04 #@! TA.AperFunction,SMDPad,CuDef*
%ADD19RoundRect,0.150000X-0.587500X-0.150000X0.587500X-0.150000X0.587500X0.150000X-0.587500X0.150000X0*%
G04 #@! TD*
G04 #@! TA.AperFunction,SMDPad,CuDef*
%ADD20RoundRect,0.150000X0.150000X-0.587500X0.150000X0.587500X-0.150000X0.587500X-0.150000X-0.587500X0*%
G04 #@! TD*
G04 #@! TA.AperFunction,ComponentPad*
%ADD21R,1.700000X1.700000*%
G04 #@! TD*
G04 #@! TA.AperFunction,ComponentPad*
%ADD22C,1.700000*%
G04 #@! TD*
G04 #@! TA.AperFunction,ComponentPad*
%ADD23RoundRect,0.249999X-0.850001X-0.850001X0.850001X-0.850001X0.850001X0.850001X-0.850001X0.850001X0*%
G04 #@! TD*
G04 #@! TA.AperFunction,ComponentPad*
%ADD24C,2.200000*%
G04 #@! TD*
G04 #@! TA.AperFunction,SMDPad,CuDef*
%ADD25RoundRect,0.250000X0.375000X1.075000X-0.375000X1.075000X-0.375000X-1.075000X0.375000X-1.075000X0*%
G04 #@! TD*
G04 #@! TA.AperFunction,ViaPad*
%ADD26C,0.500000*%
G04 #@! TD*
G04 #@! TA.AperFunction,Conductor*
%ADD27C,0.250000*%
G04 #@! TD*
G04 #@! TA.AperFunction,Conductor*
%ADD28C,1.000000*%
G04 #@! TD*
G04 #@! TA.AperFunction,Conductor*
%ADD29C,2.500000*%
G04 #@! TD*
G04 APERTURE END LIST*
D10*
X152262500Y-94250000D03*
D11*
X159862500Y-94250000D03*
D12*
X163000000Y-109000000D03*
X163000000Y-107000000D03*
X160050000Y-109000000D03*
X160050000Y-107000000D03*
D13*
X168000000Y-72000000D03*
D14*
X156000000Y-72000000D03*
D13*
X168000000Y-59800000D03*
X156000000Y-59800000D03*
X162000000Y-74000000D03*
D15*
X114570000Y-53107920D03*
D16*
X114570000Y-55647920D03*
X114570000Y-58187920D03*
X114570000Y-60727920D03*
X114570000Y-63267920D03*
X114570000Y-65807920D03*
X114570000Y-68347920D03*
X114570000Y-70887920D03*
X114570000Y-73427920D03*
X114570000Y-75967920D03*
X114570000Y-78507920D03*
X114570000Y-81047920D03*
X114570000Y-83587920D03*
X114570000Y-86127920D03*
X114570000Y-88667920D03*
X114570000Y-91207920D03*
X114570000Y-93747920D03*
X114570000Y-96287920D03*
X114570000Y-98827920D03*
X114566320Y-101365200D03*
X114566320Y-103905200D03*
X114566320Y-106445200D03*
X137430000Y-106447920D03*
X137430000Y-103907920D03*
X137430000Y-101367920D03*
X137430000Y-98827920D03*
X137430000Y-96287920D03*
X137430000Y-93747920D03*
X137430000Y-91207920D03*
X137430000Y-88667920D03*
X137430000Y-86127920D03*
X137430000Y-83587920D03*
X137430000Y-81047920D03*
X137430000Y-78507920D03*
X137430000Y-75967920D03*
X137430000Y-73427920D03*
X137430000Y-70887920D03*
X137430000Y-68347920D03*
X137430000Y-65807920D03*
X137430000Y-63267920D03*
X137430000Y-60727920D03*
X137430000Y-58187920D03*
X137430000Y-55647920D03*
X137430000Y-53107920D03*
D17*
X144062500Y-95000000D03*
X142062500Y-95000000D03*
X144062500Y-93000000D03*
X142062500Y-93000000D03*
D18*
X168000000Y-86000000D03*
X168000000Y-88000000D03*
X166000000Y-86000000D03*
X166000000Y-88000000D03*
X144000000Y-76000000D03*
X144000000Y-78000000D03*
X144000000Y-84000000D03*
X144000000Y-82000000D03*
X144000000Y-70000000D03*
X144000000Y-72000000D03*
D19*
X146125000Y-93050000D03*
X146125000Y-94950000D03*
X148000000Y-94000000D03*
D20*
X166050000Y-83937500D03*
X167950000Y-83937500D03*
X167000000Y-82062500D03*
D13*
X163632600Y-51081904D03*
X158552600Y-51081904D03*
D21*
X155190000Y-114000000D03*
D22*
X157730000Y-114000000D03*
X160270000Y-114000000D03*
X162810000Y-114000000D03*
D23*
X156777500Y-78497500D03*
D24*
X166937500Y-78497500D03*
D25*
X149400000Y-77000000D03*
X146600000Y-77000000D03*
X149400000Y-83000000D03*
X146600000Y-83000000D03*
X149400000Y-71000000D03*
X146600000Y-71000000D03*
D26*
X156660000Y-103120000D03*
D27*
X142062500Y-93000000D02*
X142062500Y-89107427D01*
X115336993Y-64153920D02*
X113803007Y-64153920D01*
X142062500Y-89107427D02*
X137805073Y-84850000D01*
X113284000Y-63634913D02*
X113284000Y-62013920D01*
X137805073Y-84850000D02*
X134499087Y-84850000D01*
X134499087Y-84850000D02*
X116436537Y-66787450D01*
X116436537Y-66787450D02*
X116436537Y-65253463D01*
X113284000Y-62013920D02*
X114570000Y-60727920D01*
X116436537Y-65253463D02*
X115336993Y-64153920D01*
X113803007Y-64153920D02*
X113284000Y-63634913D01*
D28*
X114570000Y-55647920D02*
X112498000Y-57719920D01*
X150683580Y-100106920D02*
X158201500Y-92589000D01*
X112498000Y-57719920D02*
X112498000Y-65919243D01*
X112498000Y-65919243D02*
X113647677Y-67068920D01*
X136525677Y-100106920D02*
X150683580Y-100106920D01*
X113647677Y-67068920D02*
X115606435Y-67068920D01*
X115606435Y-67068920D02*
X135769000Y-87231485D01*
X135769000Y-87231485D02*
X135769000Y-99350243D01*
X163000000Y-94065500D02*
X163000000Y-107000000D01*
X135769000Y-99350243D02*
X136525677Y-100106920D01*
X158201500Y-92589000D02*
X161523500Y-92589000D01*
X161523500Y-92589000D02*
X163000000Y-94065500D01*
X149850000Y-105168920D02*
X150101001Y-105168920D01*
X149850000Y-105168920D02*
X149850000Y-104262500D01*
X149850000Y-104262500D02*
X159862500Y-94250000D01*
X114566320Y-103905200D02*
X115830040Y-105168920D01*
X115830040Y-105168920D02*
X149850000Y-105168920D01*
X150101001Y-105168920D02*
X157730000Y-112797919D01*
X157730000Y-112797919D02*
X157730000Y-114000000D01*
X114570000Y-53107920D02*
X114570000Y-55647920D01*
D27*
X137430000Y-81047920D02*
X138817920Y-81047920D01*
X138817920Y-81047920D02*
X140770000Y-83000000D01*
X140770000Y-85274927D02*
X140770000Y-83000000D01*
X143495073Y-88000000D02*
X140770000Y-85274927D01*
X166000000Y-88000000D02*
X143495073Y-88000000D01*
X166000000Y-88000000D02*
X168000000Y-88000000D01*
X167000000Y-82062500D02*
X167000000Y-78560000D01*
X167000000Y-78560000D02*
X166937500Y-78497500D01*
X166000000Y-86000000D02*
X166000000Y-83987500D01*
X166000000Y-83987500D02*
X166050000Y-83937500D01*
X163000000Y-107000000D02*
X160050000Y-107000000D01*
X163000000Y-109000000D02*
X163000000Y-113810000D01*
X163000000Y-113810000D02*
X162810000Y-114000000D01*
X160050000Y-109000000D02*
X160050000Y-113780000D01*
X160050000Y-113780000D02*
X160270000Y-114000000D01*
X148000000Y-94000000D02*
X152012500Y-94000000D01*
X152012500Y-94000000D02*
X152262500Y-94250000D01*
X142062500Y-95000000D02*
X142062500Y-93000000D01*
X144062500Y-93000000D02*
X146075000Y-93000000D01*
X146075000Y-93000000D02*
X146125000Y-93050000D01*
X144000000Y-70000000D02*
X125720000Y-70000000D01*
X125720000Y-70000000D02*
X118987920Y-63267920D01*
X118987920Y-63267920D02*
X114570000Y-63267920D01*
X144000000Y-76000000D02*
X137462080Y-76000000D01*
X137462080Y-76000000D02*
X137430000Y-75967920D01*
X144000000Y-82000000D02*
X143000000Y-82000000D01*
X143000000Y-82000000D02*
X139507920Y-78507920D01*
X139507920Y-78507920D02*
X137430000Y-78507920D01*
X146600000Y-83000000D02*
X145600000Y-84000000D01*
X145600000Y-84000000D02*
X144000000Y-84000000D01*
X146600000Y-77000000D02*
X145600000Y-78000000D01*
X145600000Y-78000000D02*
X144000000Y-78000000D01*
X146600000Y-71000000D02*
X145600000Y-72000000D01*
X145600000Y-72000000D02*
X144000000Y-72000000D01*
D29*
X158552600Y-51081904D02*
X158552600Y-56552600D01*
X158552600Y-56552600D02*
X162000000Y-60000000D01*
X162000000Y-60000000D02*
X162000000Y-74000000D01*
X168000000Y-72000000D02*
X168000000Y-77435000D01*
X168000000Y-77435000D02*
X166937500Y-78497500D01*
X156000000Y-72000000D02*
X156000000Y-77720000D01*
X156000000Y-77720000D02*
X156777500Y-78497500D01*
X168000000Y-59800000D02*
X168000000Y-55449304D01*
X168000000Y-55449304D02*
X163632600Y-51081904D01*
G04 #@! TA.AperFunction,Conductor*
G36*
X159554988Y-48520185D02*
G01*
X159600743Y-48572989D01*
X159610687Y-48642147D01*
X159595336Y-48686501D01*
X159583608Y-48706813D01*
X159549500Y-48834108D01*
X159549500Y-49421387D01*
X159529815Y-49488426D01*
X159477011Y-49534181D01*
X159407853Y-49544125D01*
X159363500Y-49528774D01*
X159328491Y-49508561D01*
X159328476Y-49508554D01*
X159116487Y-49420746D01*
X158894838Y-49361356D01*
X158856815Y-49356350D01*
X158667341Y-49331404D01*
X158667334Y-49331404D01*
X158437866Y-49331404D01*
X158437858Y-49331404D01*
X158221315Y-49359913D01*
X158210362Y-49361356D01*
X158116676Y-49386458D01*
X157988712Y-49420746D01*
X157776723Y-49508554D01*
X157776709Y-49508561D01*
X157577982Y-49623296D01*
X157395938Y-49762985D01*
X157233681Y-49925242D01*
X157093992Y-50107286D01*
X156979257Y-50306013D01*
X156979250Y-50306027D01*
X156891442Y-50518016D01*
X156832053Y-50739663D01*
X156832051Y-50739674D01*
X156802100Y-50967162D01*
X156802100Y-56667334D01*
X156815383Y-56768223D01*
X156815383Y-56768224D01*
X156832050Y-56894828D01*
X156832054Y-56894846D01*
X156844897Y-56942781D01*
X156844898Y-56942781D01*
X156891442Y-57116487D01*
X156903986Y-57146772D01*
X156979250Y-57328476D01*
X156979257Y-57328490D01*
X157000254Y-57364858D01*
X157093989Y-57527212D01*
X157093991Y-57527215D01*
X157093992Y-57527216D01*
X157160491Y-57613880D01*
X157160496Y-57613885D01*
X157233678Y-57709259D01*
X157233684Y-57709266D01*
X160213181Y-60688762D01*
X160246666Y-60750085D01*
X160249500Y-60776443D01*
X160249500Y-67387097D01*
X160229815Y-67454136D01*
X160177011Y-67499891D01*
X160107853Y-67509835D01*
X160093410Y-67506873D01*
X160077713Y-67502667D01*
X160065892Y-67499500D01*
X158065892Y-67499500D01*
X157934108Y-67499500D01*
X157806812Y-67533608D01*
X157692686Y-67599500D01*
X157692683Y-67599502D01*
X157599502Y-67692683D01*
X157599500Y-67692686D01*
X157533608Y-67806812D01*
X157499500Y-67934108D01*
X157499500Y-70204557D01*
X157479815Y-70271596D01*
X157427011Y-70317351D01*
X157357853Y-70327295D01*
X157323106Y-70316944D01*
X157319340Y-70315188D01*
X157307097Y-70311131D01*
X157152797Y-70260001D01*
X157152795Y-70260000D01*
X157050016Y-70249500D01*
X157050009Y-70249500D01*
X156114737Y-70249500D01*
X156114734Y-70249500D01*
X155885266Y-70249500D01*
X155885261Y-70249500D01*
X154949998Y-70249500D01*
X154949980Y-70249501D01*
X154847203Y-70260000D01*
X154847200Y-70260001D01*
X154680668Y-70315185D01*
X154680663Y-70315187D01*
X154531342Y-70407289D01*
X154407289Y-70531342D01*
X154315187Y-70680663D01*
X154315185Y-70680668D01*
X154308910Y-70699606D01*
X154260001Y-70847203D01*
X154260001Y-70847204D01*
X154260000Y-70847204D01*
X154249500Y-70949983D01*
X154249500Y-77834741D01*
X154271112Y-77998887D01*
X154271112Y-77998888D01*
X154279451Y-78062236D01*
X154296271Y-78125009D01*
X154311663Y-78182452D01*
X154323812Y-78227795D01*
X154338843Y-78283889D01*
X154338845Y-78283896D01*
X154426652Y-78495881D01*
X154426657Y-78495891D01*
X154541385Y-78694607D01*
X154541389Y-78694612D01*
X154599686Y-78770586D01*
X154681078Y-78876659D01*
X154681084Y-78876666D01*
X155142969Y-79338550D01*
X155176454Y-79399873D01*
X155178646Y-79413628D01*
X155187500Y-79500295D01*
X155187501Y-79500298D01*
X155242686Y-79666835D01*
X155334788Y-79816156D01*
X155458844Y-79940212D01*
X155608165Y-80032314D01*
X155774702Y-80087499D01*
X155877490Y-80098000D01*
X156042507Y-80098000D01*
X156089959Y-80107439D01*
X156127679Y-80123063D01*
X156213613Y-80158658D01*
X156435261Y-80218048D01*
X156582660Y-80237453D01*
X156662765Y-80247999D01*
X156662766Y-80247999D01*
X156892235Y-80247999D01*
X156972340Y-80237453D01*
X157119739Y-80218048D01*
X157341387Y-80158658D01*
X157437098Y-80119012D01*
X157465041Y-80107439D01*
X157512493Y-80098000D01*
X157677505Y-80098000D01*
X157677510Y-80098000D01*
X157780298Y-80087499D01*
X157946835Y-80032314D01*
X158096156Y-79940212D01*
X158220212Y-79816156D01*
X158312314Y-79666835D01*
X158367499Y-79500298D01*
X158378000Y-79397510D01*
X158378000Y-79232492D01*
X158387439Y-79185039D01*
X158390150Y-79178495D01*
X158438658Y-79061387D01*
X158498048Y-78839739D01*
X158520716Y-78667547D01*
X158548982Y-78603654D01*
X158607306Y-78565182D01*
X158677171Y-78564350D01*
X158736395Y-78601422D01*
X158754564Y-78628281D01*
X159024055Y-79167263D01*
X159029671Y-79178495D01*
X159033608Y-79193186D01*
X159059052Y-79237257D01*
X159060721Y-79240594D01*
X159060721Y-79240595D01*
X159077117Y-79273388D01*
X159081807Y-79282766D01*
X159083556Y-79284738D01*
X159083565Y-79284748D01*
X159098171Y-79305013D01*
X159099498Y-79307311D01*
X159099500Y-79307314D01*
X159099503Y-79307317D01*
X159132849Y-79340663D01*
X159137930Y-79346057D01*
X159169242Y-79381368D01*
X159169244Y-79381369D01*
X159171456Y-79382830D01*
X159181934Y-79389748D01*
X159192686Y-79400500D01*
X159236736Y-79425932D01*
X159239836Y-79427979D01*
X159239845Y-79427984D01*
X159271905Y-79449151D01*
X159279217Y-79453979D01*
X159281726Y-79454815D01*
X159304520Y-79465068D01*
X159306814Y-79466392D01*
X159355967Y-79479562D01*
X159404239Y-79495653D01*
X159419419Y-79496564D01*
X159434108Y-79500500D01*
X159434111Y-79500500D01*
X159484990Y-79500500D01*
X159535786Y-79503549D01*
X159550686Y-79500500D01*
X164436756Y-79500500D01*
X164461614Y-79503017D01*
X164464214Y-79503549D01*
X164515010Y-79500500D01*
X164565892Y-79500500D01*
X164580580Y-79496564D01*
X164595761Y-79495653D01*
X164640532Y-79480728D01*
X164647581Y-79478610D01*
X164693186Y-79466392D01*
X164706357Y-79458787D01*
X164720783Y-79453979D01*
X164763246Y-79425942D01*
X164807314Y-79400500D01*
X164809183Y-79398629D01*
X164828555Y-79382822D01*
X164830758Y-79381368D01*
X164864519Y-79343294D01*
X164900500Y-79307314D01*
X164908101Y-79294146D01*
X164916435Y-79284748D01*
X164916438Y-79284745D01*
X164916444Y-79284738D01*
X164918193Y-79282766D01*
X164939286Y-79240577D01*
X164942802Y-79234044D01*
X164948111Y-79224849D01*
X164966392Y-79193186D01*
X164967077Y-79190627D01*
X164975939Y-79167272D01*
X165043882Y-79031386D01*
X165091468Y-78980231D01*
X165159159Y-78962921D01*
X165225463Y-78984956D01*
X165269329Y-79039340D01*
X165274563Y-79054748D01*
X165276342Y-79061387D01*
X165364151Y-79273379D01*
X165364156Y-79273388D01*
X165478890Y-79472112D01*
X165478892Y-79472115D01*
X165478896Y-79472121D01*
X165618578Y-79654159D01*
X165618584Y-79654166D01*
X165780833Y-79816415D01*
X165780840Y-79816421D01*
X165962878Y-79956103D01*
X165962882Y-79956105D01*
X165962888Y-79956110D01*
X166161612Y-80070844D01*
X166161615Y-80070845D01*
X166161620Y-80070848D01*
X166297952Y-80127318D01*
X166352356Y-80171159D01*
X166374421Y-80237453D01*
X166374500Y-80241879D01*
X166374500Y-80979191D01*
X166354815Y-81046230D01*
X166338181Y-81066872D01*
X166331923Y-81073129D01*
X166331917Y-81073137D01*
X166248255Y-81214603D01*
X166248254Y-81214606D01*
X166202402Y-81372426D01*
X166202401Y-81372432D01*
X166199500Y-81409298D01*
X166199500Y-82575500D01*
X166179815Y-82642539D01*
X166127011Y-82688294D01*
X166075500Y-82699500D01*
X165834298Y-82699500D01*
X165797432Y-82702401D01*
X165797426Y-82702402D01*
X165639606Y-82748254D01*
X165639603Y-82748255D01*
X165498137Y-82831917D01*
X165498129Y-82831923D01*
X165381923Y-82948129D01*
X165381917Y-82948137D01*
X165298255Y-83089603D01*
X165298254Y-83089606D01*
X165252402Y-83247426D01*
X165252401Y-83247432D01*
X165249500Y-83284298D01*
X165249500Y-84590701D01*
X165252401Y-84627567D01*
X165252402Y-84627573D01*
X165298254Y-84785393D01*
X165301353Y-84792554D01*
X165299945Y-84793163D01*
X165314948Y-84852287D01*
X165292790Y-84918551D01*
X165238325Y-84962315D01*
X165230940Y-84965058D01*
X165230663Y-84965187D01*
X165081342Y-85057289D01*
X164957289Y-85181342D01*
X164865187Y-85330663D01*
X164865185Y-85330668D01*
X164863240Y-85336538D01*
X164810001Y-85497203D01*
X164810001Y-85497204D01*
X164810000Y-85497204D01*
X164799500Y-85599983D01*
X164799500Y-86400001D01*
X164799501Y-86400019D01*
X164810000Y-86502796D01*
X164810001Y-86502799D01*
X164825764Y-86550367D01*
X164865186Y-86669334D01*
X164957094Y-86818342D01*
X164957289Y-86818657D01*
X165050951Y-86912319D01*
X165084436Y-86973642D01*
X165079452Y-87043334D01*
X165050951Y-87087681D01*
X164957289Y-87181342D01*
X164874481Y-87315597D01*
X164822533Y-87362321D01*
X164768942Y-87374500D01*
X143805525Y-87374500D01*
X143738486Y-87354815D01*
X143717844Y-87338181D01*
X141431819Y-85052156D01*
X141398334Y-84990833D01*
X141395500Y-84964475D01*
X141395500Y-82938395D01*
X141395500Y-82938394D01*
X141389931Y-82910398D01*
X141382092Y-82870989D01*
X141371464Y-82817554D01*
X141371463Y-82817553D01*
X141371463Y-82817549D01*
X141371460Y-82817543D01*
X141371459Y-82817538D01*
X141324314Y-82703718D01*
X141324309Y-82703709D01*
X141290796Y-82653555D01*
X141290794Y-82653552D01*
X141286207Y-82646688D01*
X141255858Y-82601267D01*
X141168733Y-82514142D01*
X141168729Y-82514139D01*
X139308118Y-80653528D01*
X139308098Y-80653506D01*
X139216653Y-80562061D01*
X139171245Y-80531721D01*
X139171244Y-80531720D01*
X139165429Y-80527835D01*
X139114206Y-80493608D01*
X139033712Y-80460267D01*
X139018377Y-80453915D01*
X139000373Y-80446457D01*
X138990347Y-80444463D01*
X138939949Y-80434438D01*
X138879530Y-80422420D01*
X138879527Y-80422420D01*
X138879526Y-80422420D01*
X138799022Y-80422420D01*
X138731983Y-80402735D01*
X138698705Y-80371307D01*
X138669414Y-80330992D01*
X138546930Y-80208508D01*
X138546928Y-80208506D01*
X138406788Y-80106688D01*
X138252445Y-80028047D01*
X138087701Y-79974518D01*
X138087699Y-79974517D01*
X138087698Y-79974517D01*
X137956271Y-79953701D01*
X137916611Y-79947420D01*
X136943389Y-79947420D01*
X136903728Y-79953701D01*
X136772302Y-79974517D01*
X136607552Y-80028048D01*
X136453211Y-80106688D01*
X136424817Y-80127318D01*
X136313072Y-80208506D01*
X136313070Y-80208508D01*
X136313069Y-80208508D01*
X136190588Y-80330989D01*
X136190588Y-80330990D01*
X136190586Y-80330992D01*
X136146859Y-80391176D01*
X136088768Y-80471131D01*
X136010128Y-80625472D01*
X135956597Y-80790222D01*
X135937626Y-80910001D01*
X135929500Y-80961309D01*
X135929500Y-81134531D01*
X135956598Y-81305621D01*
X136010127Y-81470365D01*
X136088768Y-81624708D01*
X136190586Y-81764848D01*
X136313072Y-81887334D01*
X136453212Y-81989152D01*
X136607555Y-82067793D01*
X136772299Y-82121322D01*
X136943389Y-82148420D01*
X136943390Y-82148420D01*
X137916610Y-82148420D01*
X137916611Y-82148420D01*
X138087701Y-82121322D01*
X138252445Y-82067793D01*
X138406788Y-81989152D01*
X138546928Y-81887334D01*
X138572155Y-81862107D01*
X138633478Y-81828622D01*
X138703170Y-81833606D01*
X138747517Y-81862107D01*
X140108181Y-83222771D01*
X140141666Y-83284094D01*
X140144500Y-83310452D01*
X140144500Y-85336538D01*
X140168535Y-85457371D01*
X140168540Y-85457388D01*
X140215685Y-85571207D01*
X140215687Y-85571210D01*
X140215688Y-85571213D01*
X140249915Y-85622436D01*
X140284142Y-85673660D01*
X140371267Y-85760785D01*
X140371270Y-85760787D01*
X140378554Y-85768071D01*
X143006089Y-88395606D01*
X143006118Y-88395637D01*
X143096336Y-88485855D01*
X143096340Y-88485858D01*
X143198780Y-88554307D01*
X143198786Y-88554310D01*
X143198787Y-88554311D01*
X143312621Y-88601463D01*
X143373044Y-88613481D01*
X143433466Y-88625500D01*
X143433467Y-88625500D01*
X164768942Y-88625500D01*
X164835981Y-88645185D01*
X164874479Y-88684401D01*
X164957288Y-88818656D01*
X165081344Y-88942712D01*
X165230666Y-89034814D01*
X165397203Y-89089999D01*
X165499991Y-89100500D01*
X166500008Y-89100499D01*
X166500016Y-89100498D01*
X166500019Y-89100498D01*
X166599194Y-89090367D01*
X166602797Y-89089999D01*
X166769334Y-89034814D01*
X166918656Y-88942712D01*
X166918664Y-88942703D01*
X166923085Y-88939209D01*
X166987879Y-88913066D01*
X167056522Y-88926103D01*
X167076915Y-88939209D01*
X167081339Y-88942707D01*
X167081344Y-88942712D01*
X167230666Y-89034814D01*
X167397203Y-89089999D01*
X167499991Y-89100500D01*
X168500008Y-89100499D01*
X168500016Y-89100498D01*
X168500019Y-89100498D01*
X168599194Y-89090367D01*
X168602797Y-89089999D01*
X168769334Y-89034814D01*
X168918656Y-88942712D01*
X169042712Y-88818656D01*
X169134814Y-88669334D01*
X169189999Y-88502797D01*
X169200500Y-88400009D01*
X169200499Y-87599992D01*
X169193269Y-87529219D01*
X169189999Y-87497203D01*
X169189998Y-87497200D01*
X169134814Y-87330666D01*
X169042712Y-87181344D01*
X168948695Y-87087327D01*
X168915210Y-87026004D01*
X168920194Y-86956312D01*
X168948695Y-86911964D01*
X169042317Y-86818342D01*
X169134356Y-86669124D01*
X169134358Y-86669119D01*
X169189505Y-86502697D01*
X169189506Y-86502690D01*
X169199999Y-86399986D01*
X169200000Y-86399973D01*
X169200000Y-86250000D01*
X168124000Y-86250000D01*
X168056961Y-86230315D01*
X168011206Y-86177511D01*
X168000000Y-86126000D01*
X168000000Y-86000000D01*
X167874000Y-86000000D01*
X167806961Y-85980315D01*
X167761206Y-85927511D01*
X167750000Y-85876000D01*
X167750000Y-85305000D01*
X167736319Y-85291319D01*
X167702834Y-85229996D01*
X167700000Y-85203638D01*
X167700000Y-84770000D01*
X168200000Y-84770000D01*
X168213681Y-84783681D01*
X168247166Y-84845004D01*
X168250000Y-84871362D01*
X168250000Y-85750000D01*
X169199999Y-85750000D01*
X169199999Y-85600028D01*
X169199998Y-85600013D01*
X169189505Y-85497302D01*
X169134358Y-85330880D01*
X169134356Y-85330875D01*
X169042315Y-85181654D01*
X168918345Y-85057684D01*
X168769124Y-84965643D01*
X168762579Y-84962592D01*
X168763112Y-84961447D01*
X168711773Y-84925902D01*
X168684949Y-84861386D01*
X168697264Y-84792610D01*
X168701218Y-84785344D01*
X168701283Y-84785194D01*
X168747099Y-84627495D01*
X168747100Y-84627489D01*
X168749999Y-84590649D01*
X168750000Y-84590634D01*
X168750000Y-84187500D01*
X168200000Y-84187500D01*
X168200000Y-84770000D01*
X167700000Y-84770000D01*
X167700000Y-84187500D01*
X167150000Y-84187500D01*
X167150000Y-84590649D01*
X167152899Y-84627489D01*
X167152900Y-84627495D01*
X167198716Y-84785193D01*
X167198716Y-84785194D01*
X167223549Y-84827185D01*
X167225323Y-84834180D01*
X167230007Y-84839671D01*
X167233800Y-84867595D01*
X167240730Y-84894909D01*
X167238441Y-84901752D01*
X167239413Y-84908904D01*
X167227506Y-84934449D01*
X167218570Y-84961171D01*
X167212223Y-84967238D01*
X167209896Y-84972233D01*
X167185261Y-84993017D01*
X167183044Y-84995138D01*
X167066633Y-85068680D01*
X167039079Y-85076538D01*
X167012507Y-85087255D01*
X167005904Y-85085999D01*
X166999442Y-85087843D01*
X166972013Y-85079557D01*
X166943866Y-85074207D01*
X166934611Y-85068259D01*
X166932558Y-85067639D01*
X166931237Y-85066090D01*
X166923497Y-85061116D01*
X166918653Y-85057286D01*
X166818766Y-84995676D01*
X166772041Y-84943728D01*
X166760818Y-84874766D01*
X166777128Y-84827019D01*
X166801744Y-84785398D01*
X166847598Y-84627569D01*
X166850500Y-84590694D01*
X166850500Y-83424500D01*
X166853050Y-83415814D01*
X166851762Y-83406853D01*
X166862740Y-83382812D01*
X166870185Y-83357461D01*
X166877025Y-83351533D01*
X166880787Y-83343297D01*
X166903021Y-83329007D01*
X166922989Y-83311706D01*
X166933503Y-83309418D01*
X166939565Y-83305523D01*
X166974500Y-83300500D01*
X167026000Y-83300500D01*
X167093039Y-83320185D01*
X167138794Y-83372989D01*
X167150000Y-83424500D01*
X167150000Y-83687500D01*
X167700000Y-83687500D01*
X168200000Y-83687500D01*
X168750000Y-83687500D01*
X168750000Y-83284365D01*
X168749999Y-83284350D01*
X168747100Y-83247510D01*
X168747099Y-83247504D01*
X168701283Y-83089806D01*
X168701282Y-83089803D01*
X168617685Y-82948447D01*
X168617678Y-82948438D01*
X168501561Y-82832321D01*
X168501552Y-82832314D01*
X168360196Y-82748717D01*
X168360193Y-82748716D01*
X168202494Y-82702900D01*
X168202497Y-82702900D01*
X168200000Y-82702703D01*
X168200000Y-83687500D01*
X167700000Y-83687500D01*
X167700000Y-83031814D01*
X167717267Y-82968694D01*
X167751744Y-82910398D01*
X167797598Y-82752569D01*
X167800500Y-82715694D01*
X167800500Y-81409306D01*
X167797598Y-81372431D01*
X167786050Y-81332684D01*
X167751745Y-81214606D01*
X167751744Y-81214603D01*
X167751744Y-81214602D01*
X167668081Y-81073135D01*
X167668079Y-81073133D01*
X167668076Y-81073129D01*
X167661819Y-81066872D01*
X167628334Y-81005549D01*
X167625500Y-80979191D01*
X167625500Y-80190102D01*
X167645185Y-80123063D01*
X167697989Y-80077308D01*
X167702053Y-80075539D01*
X167713378Y-80070848D01*
X167713388Y-80070844D01*
X167912112Y-79956110D01*
X168094161Y-79816420D01*
X169318920Y-78591661D01*
X169390486Y-78498394D01*
X169458611Y-78409612D01*
X169573344Y-78210888D01*
X169661158Y-77998887D01*
X169679313Y-77931132D01*
X169720549Y-77777239D01*
X169742905Y-77607420D01*
X169750500Y-77549734D01*
X169750500Y-71885266D01*
X169720548Y-71657762D01*
X169661158Y-71436113D01*
X169585720Y-71253989D01*
X169573349Y-71224123D01*
X169573346Y-71224117D01*
X169573344Y-71224112D01*
X169458611Y-71025388D01*
X169458608Y-71025385D01*
X169458607Y-71025382D01*
X169318918Y-70843338D01*
X169318911Y-70843330D01*
X169156670Y-70681089D01*
X169156661Y-70681081D01*
X168974617Y-70541392D01*
X168775890Y-70426657D01*
X168775876Y-70426650D01*
X168563887Y-70338842D01*
X168342238Y-70279452D01*
X168304215Y-70274446D01*
X168114741Y-70249500D01*
X168114734Y-70249500D01*
X167885266Y-70249500D01*
X167885258Y-70249500D01*
X167668715Y-70278009D01*
X167657762Y-70279452D01*
X167564076Y-70304554D01*
X167436112Y-70338842D01*
X167224123Y-70426650D01*
X167224109Y-70426657D01*
X167025382Y-70541392D01*
X166843338Y-70681081D01*
X166712181Y-70812238D01*
X166650858Y-70845723D01*
X166581166Y-70840739D01*
X166525233Y-70798867D01*
X166500816Y-70733403D01*
X166500500Y-70724557D01*
X166500500Y-67934110D01*
X166500500Y-67934108D01*
X166466392Y-67806814D01*
X166400500Y-67692686D01*
X166307314Y-67599500D01*
X166249498Y-67566120D01*
X166193187Y-67533608D01*
X166104463Y-67509835D01*
X166065892Y-67499500D01*
X164065892Y-67499500D01*
X163934108Y-67499500D01*
X163906590Y-67506873D01*
X163836740Y-67505208D01*
X163778879Y-67466044D01*
X163751377Y-67401815D01*
X163750500Y-67387097D01*
X163750500Y-59885271D01*
X163750499Y-59885260D01*
X163747440Y-59862026D01*
X163747440Y-59862024D01*
X163731781Y-59743081D01*
X163720549Y-59657761D01*
X163661158Y-59436114D01*
X163588758Y-59261322D01*
X163573349Y-59224120D01*
X163573344Y-59224111D01*
X163497695Y-59093085D01*
X163495002Y-59088420D01*
X163458611Y-59025388D01*
X163366117Y-58904848D01*
X163352258Y-58886787D01*
X163318919Y-58843337D01*
X163318915Y-58843333D01*
X160907762Y-56432181D01*
X160874277Y-56370858D01*
X160879261Y-56301166D01*
X160921133Y-56245233D01*
X160986597Y-56220816D01*
X160995443Y-56220500D01*
X162215890Y-56220500D01*
X162215892Y-56220500D01*
X162343186Y-56186392D01*
X162457314Y-56120500D01*
X162550500Y-56027314D01*
X162616392Y-55913186D01*
X162650500Y-55785892D01*
X162650500Y-52874746D01*
X162670185Y-52807707D01*
X162722989Y-52761952D01*
X162792147Y-52752008D01*
X162855703Y-52781033D01*
X162862181Y-52787065D01*
X166213181Y-56138065D01*
X166246666Y-56199388D01*
X166249500Y-56225746D01*
X166249500Y-59914741D01*
X166274446Y-60104215D01*
X166279452Y-60142238D01*
X166323190Y-60305472D01*
X166338842Y-60363887D01*
X166426650Y-60575876D01*
X166426657Y-60575890D01*
X166541392Y-60774617D01*
X166681081Y-60956661D01*
X166681089Y-60956670D01*
X166843330Y-61118911D01*
X166843338Y-61118918D01*
X167025382Y-61258607D01*
X167025385Y-61258608D01*
X167025388Y-61258611D01*
X167224112Y-61373344D01*
X167224117Y-61373346D01*
X167224123Y-61373349D01*
X167315480Y-61411190D01*
X167436113Y-61461158D01*
X167657762Y-61520548D01*
X167885266Y-61550500D01*
X167885273Y-61550500D01*
X168114727Y-61550500D01*
X168114734Y-61550500D01*
X168342238Y-61520548D01*
X168563887Y-61461158D01*
X168775888Y-61373344D01*
X168974612Y-61258611D01*
X169156661Y-61118919D01*
X169156665Y-61118914D01*
X169156670Y-61118911D01*
X169318911Y-60956670D01*
X169318914Y-60956665D01*
X169318919Y-60956661D01*
X169458611Y-60774612D01*
X169573344Y-60575888D01*
X169661158Y-60363887D01*
X169720548Y-60142238D01*
X169750500Y-59914734D01*
X169750500Y-55334570D01*
X169720548Y-55107066D01*
X169717044Y-55093990D01*
X169661158Y-54885417D01*
X169573344Y-54673416D01*
X169573342Y-54673413D01*
X169573340Y-54673408D01*
X169458614Y-54474698D01*
X169458610Y-54474691D01*
X169318919Y-54292643D01*
X169318917Y-54292641D01*
X169318914Y-54292637D01*
X164789268Y-49762990D01*
X164789263Y-49762986D01*
X164789262Y-49762985D01*
X164789261Y-49762984D01*
X164698236Y-49693139D01*
X164698235Y-49693138D01*
X164607222Y-49623300D01*
X164607216Y-49623296D01*
X164607212Y-49623293D01*
X164543554Y-49586540D01*
X164408491Y-49508561D01*
X164408476Y-49508554D01*
X164226772Y-49433290D01*
X164196487Y-49420746D01*
X164120927Y-49400500D01*
X164120926Y-49400499D01*
X164005713Y-49369628D01*
X163974839Y-49361356D01*
X163974833Y-49361355D01*
X163974832Y-49361355D01*
X163964962Y-49360055D01*
X163948371Y-49357871D01*
X163948370Y-49357870D01*
X163747344Y-49331405D01*
X163747339Y-49331404D01*
X163747334Y-49331404D01*
X163517866Y-49331404D01*
X163517860Y-49331404D01*
X163517855Y-49331405D01*
X163316828Y-49357870D01*
X163316828Y-49357871D01*
X163312815Y-49358399D01*
X163290363Y-49361355D01*
X163144273Y-49400499D01*
X163144273Y-49400500D01*
X163068713Y-49420746D01*
X163068711Y-49420746D01*
X163068710Y-49420747D01*
X162856723Y-49508554D01*
X162856713Y-49508559D01*
X162836499Y-49520230D01*
X162768598Y-49536701D01*
X162702572Y-49513849D01*
X162659382Y-49458927D01*
X162650500Y-49412842D01*
X162650500Y-48834110D01*
X162650500Y-48834108D01*
X162616392Y-48706814D01*
X162604663Y-48686500D01*
X162588191Y-48618601D01*
X162611043Y-48552574D01*
X162665964Y-48509383D01*
X162712051Y-48500500D01*
X167934108Y-48500500D01*
X167996249Y-48500500D01*
X168003736Y-48500726D01*
X168293796Y-48518271D01*
X168308657Y-48520075D01*
X168485994Y-48552574D01*
X168590798Y-48571780D01*
X168605335Y-48575363D01*
X168879172Y-48660695D01*
X168893163Y-48666000D01*
X169154743Y-48783727D01*
X169167989Y-48790680D01*
X169413465Y-48939075D01*
X169425776Y-48947573D01*
X169651573Y-49124473D01*
X169662781Y-49134403D01*
X169865596Y-49337218D01*
X169875526Y-49348426D01*
X170016819Y-49528774D01*
X170052422Y-49574217D01*
X170060926Y-49586537D01*
X170083146Y-49623293D01*
X170209316Y-49832004D01*
X170216275Y-49845263D01*
X170333997Y-50106831D01*
X170339306Y-50120832D01*
X170424635Y-50394663D01*
X170428219Y-50409201D01*
X170479923Y-50691340D01*
X170481728Y-50706205D01*
X170499274Y-50996263D01*
X170499500Y-51003750D01*
X170499500Y-113996249D01*
X170499274Y-114003736D01*
X170481728Y-114293794D01*
X170479923Y-114308659D01*
X170428219Y-114590798D01*
X170424635Y-114605336D01*
X170339306Y-114879167D01*
X170333997Y-114893168D01*
X170216275Y-115154736D01*
X170209316Y-115167995D01*
X170060928Y-115413459D01*
X170052422Y-115425782D01*
X169875526Y-115651573D01*
X169865596Y-115662781D01*
X169662781Y-115865596D01*
X169651573Y-115875526D01*
X169425782Y-116052422D01*
X169413459Y-116060928D01*
X169167995Y-116209316D01*
X169154736Y-116216275D01*
X168893168Y-116333997D01*
X168879167Y-116339306D01*
X168605336Y-116424635D01*
X168590798Y-116428219D01*
X168308659Y-116479923D01*
X168293794Y-116481728D01*
X168003736Y-116499274D01*
X167996249Y-116499500D01*
X114003751Y-116499500D01*
X113996264Y-116499274D01*
X113706205Y-116481728D01*
X113691340Y-116479923D01*
X113409201Y-116428219D01*
X113394663Y-116424635D01*
X113120832Y-116339306D01*
X113106831Y-116333997D01*
X112845263Y-116216275D01*
X112832004Y-116209316D01*
X112586540Y-116060928D01*
X112574217Y-116052422D01*
X112348426Y-115875526D01*
X112337218Y-115865596D01*
X112134403Y-115662781D01*
X112124473Y-115651573D01*
X111947573Y-115425776D01*
X111939075Y-115413465D01*
X111790680Y-115167989D01*
X111783727Y-115154743D01*
X111666000Y-114893163D01*
X111660693Y-114879167D01*
X111583505Y-114631463D01*
X111575363Y-114605335D01*
X111571780Y-114590798D01*
X111520076Y-114308659D01*
X111518271Y-114293794D01*
X111512968Y-114206125D01*
X111500726Y-114003736D01*
X111500500Y-113996249D01*
X111500500Y-101278589D01*
X113065820Y-101278589D01*
X113065820Y-101451811D01*
X113092918Y-101622901D01*
X113146447Y-101787645D01*
X113225088Y-101941988D01*
X113326906Y-102082128D01*
X113449392Y-102204614D01*
X113589532Y-102306432D01*
X113743875Y-102385073D01*
X113908619Y-102438602D01*
X114079709Y-102465700D01*
X114079710Y-102465700D01*
X115052930Y-102465700D01*
X115052931Y-102465700D01*
X115224021Y-102438602D01*
X115388765Y-102385073D01*
X115543108Y-102306432D01*
X115683248Y-102204614D01*
X115805734Y-102082128D01*
X115907552Y-101941988D01*
X115986193Y-101787645D01*
X116039722Y-101622901D01*
X116066820Y-101451811D01*
X116066820Y-101278589D01*
X116039722Y-101107499D01*
X115986193Y-100942755D01*
X115907552Y-100788412D01*
X115805734Y-100648272D01*
X115683248Y-100525786D01*
X115543108Y-100423968D01*
X115388765Y-100345327D01*
X115224021Y-100291798D01*
X115224019Y-100291797D01*
X115224018Y-100291797D01*
X115092591Y-100270981D01*
X115052931Y-100264700D01*
X114079709Y-100264700D01*
X114040048Y-100270981D01*
X113908622Y-100291797D01*
X113743872Y-100345328D01*
X113589531Y-100423968D01*
X113509576Y-100482059D01*
X113449392Y-100525786D01*
X113449390Y-100525788D01*
X113449389Y-100525788D01*
X113326908Y-100648269D01*
X113326908Y-100648270D01*
X113326906Y-100648272D01*
X113283179Y-100708456D01*
X113225088Y-100788411D01*
X113146448Y-100942752D01*
X113146447Y-100942754D01*
X113146447Y-100942755D01*
X113129943Y-100993548D01*
X113092917Y-101107502D01*
X113070219Y-101250816D01*
X113065820Y-101278589D01*
X111500500Y-101278589D01*
X111500500Y-98741309D01*
X113069500Y-98741309D01*
X113069500Y-98914531D01*
X113096598Y-99085621D01*
X113150127Y-99250365D01*
X113228768Y-99404708D01*
X113330586Y-99544848D01*
X113453072Y-99667334D01*
X113593212Y-99769152D01*
X113747555Y-99847793D01*
X113912299Y-99901322D01*
X114083389Y-99928420D01*
X114083390Y-99928420D01*
X115056610Y-99928420D01*
X115056611Y-99928420D01*
X115227701Y-99901322D01*
X115392445Y-99847793D01*
X115546788Y-99769152D01*
X115686928Y-99667334D01*
X115809414Y-99544848D01*
X115911232Y-99404708D01*
X115989873Y-99250365D01*
X116043402Y-99085621D01*
X116070500Y-98914531D01*
X116070500Y-98741309D01*
X116043402Y-98570219D01*
X115989873Y-98405475D01*
X115911232Y-98251132D01*
X115809414Y-98110992D01*
X115686928Y-97988506D01*
X115546788Y-97886688D01*
X115392445Y-97808047D01*
X115227701Y-97754518D01*
X115227699Y-97754517D01*
X115227698Y-97754517D01*
X115071972Y-97729853D01*
X115056611Y-97727420D01*
X114083389Y-97727420D01*
X114068028Y-97729853D01*
X113912302Y-97754517D01*
X113747552Y-97808048D01*
X113593211Y-97886688D01*
X113513256Y-97944779D01*
X113453072Y-97988506D01*
X113453070Y-97988508D01*
X113453069Y-97988508D01*
X113330588Y-98110989D01*
X113330588Y-98110990D01*
X113330586Y-98110992D01*
X113286859Y-98171176D01*
X113228768Y-98251131D01*
X113150128Y-98405472D01*
X113096597Y-98570222D01*
X113069500Y-98741309D01*
X111500500Y-98741309D01*
X111500500Y-96201309D01*
X113069500Y-96201309D01*
X113069500Y-96374531D01*
X113096598Y-96545621D01*
X113150127Y-96710365D01*
X113228768Y-96864708D01*
X113330586Y-97004848D01*
X113453072Y-97127334D01*
X113593212Y-97229152D01*
X113747555Y-97307793D01*
X113912299Y-97361322D01*
X114083389Y-97388420D01*
X114083390Y-97388420D01*
X115056610Y-97388420D01*
X115056611Y-97388420D01*
X115227701Y-97361322D01*
X115392445Y-97307793D01*
X115546788Y-97229152D01*
X115686928Y-97127334D01*
X115809414Y-97004848D01*
X115911232Y-96864708D01*
X115989873Y-96710365D01*
X116043402Y-96545621D01*
X116070500Y-96374531D01*
X116070500Y-96201309D01*
X116043402Y-96030219D01*
X115989873Y-95865475D01*
X115911232Y-95711132D01*
X115809414Y-95570992D01*
X115686928Y-95448506D01*
X115546788Y-95346688D01*
X115392445Y-95268047D01*
X115227701Y-95214518D01*
X115227699Y-95214517D01*
X115227698Y-95214517D01*
X115071972Y-95189853D01*
X115056611Y-95187420D01*
X114083389Y-95187420D01*
X114068028Y-95189853D01*
X113912302Y-95214517D01*
X113747552Y-95268048D01*
X113593211Y-95346688D01*
X113527385Y-95394514D01*
X113453072Y-95448506D01*
X113453070Y-95448508D01*
X113453069Y-95448508D01*
X113330588Y-95570989D01*
X113330588Y-95570990D01*
X113330586Y-95570992D01*
X113286859Y-95631176D01*
X113228768Y-95711131D01*
X113150128Y-95865472D01*
X113096597Y-96030222D01*
X113094619Y-96042712D01*
X113069500Y-96201309D01*
X111500500Y-96201309D01*
X111500500Y-93661309D01*
X113069500Y-93661309D01*
X113069500Y-93834531D01*
X113071570Y-93847598D01*
X113095707Y-94000000D01*
X113096598Y-94005621D01*
X113150127Y-94170365D01*
X113228768Y-94324708D01*
X113330586Y-94464848D01*
X113453072Y-94587334D01*
X113593212Y-94689152D01*
X113747555Y-94767793D01*
X113912299Y-94821322D01*
X114083389Y-94848420D01*
X114083390Y-94848420D01*
X115056610Y-94848420D01*
X115056611Y-94848420D01*
X115227701Y-94821322D01*
X115392445Y-94767793D01*
X115546788Y-94689152D01*
X115686928Y-94587334D01*
X115809414Y-94464848D01*
X115911232Y-94324708D01*
X115989873Y-94170365D01*
X116043402Y-94005621D01*
X116070500Y-93834531D01*
X116070500Y-93661309D01*
X116043402Y-93490219D01*
X115989873Y-93325475D01*
X115911232Y-93171132D01*
X115809414Y-93030992D01*
X115686928Y-92908506D01*
X115546788Y-92806688D01*
X115507062Y-92786447D01*
X115392447Y-92728048D01*
X115392446Y-92728047D01*
X115392445Y-92728047D01*
X115227701Y-92674518D01*
X115227699Y-92674517D01*
X115227698Y-92674517D01*
X115071972Y-92649853D01*
X115056611Y-92647420D01*
X114083389Y-92647420D01*
X114068028Y-92649853D01*
X113912302Y-92674517D01*
X113747552Y-92728048D01*
X113593211Y-92806688D01*
X113520616Y-92859432D01*
X113453072Y-92908506D01*
X113453070Y-92908508D01*
X113453069Y-92908508D01*
X113330588Y-93030989D01*
X113330588Y-93030990D01*
X113330586Y-93030992D01*
X113298249Y-93075500D01*
X113228768Y-93171131D01*
X113150128Y-93325472D01*
X113096597Y-93490222D01*
X113078767Y-93602797D01*
X113069500Y-93661309D01*
X111500500Y-93661309D01*
X111500500Y-91121309D01*
X113069500Y-91121309D01*
X113069500Y-91294531D01*
X113096598Y-91465621D01*
X113150127Y-91630365D01*
X113228768Y-91784708D01*
X113330586Y-91924848D01*
X113453072Y-92047334D01*
X113593212Y-92149152D01*
X113747555Y-92227793D01*
X113912299Y-92281322D01*
X114083389Y-92308420D01*
X114083390Y-92308420D01*
X115056610Y-92308420D01*
X115056611Y-92308420D01*
X115227701Y-92281322D01*
X115392445Y-92227793D01*
X115546788Y-92149152D01*
X115686928Y-92047334D01*
X115809414Y-91924848D01*
X115911232Y-91784708D01*
X115989873Y-91630365D01*
X116043402Y-91465621D01*
X116070500Y-91294531D01*
X116070500Y-91121309D01*
X116043402Y-90950219D01*
X115989873Y-90785475D01*
X115911232Y-90631132D01*
X115809414Y-90490992D01*
X115686928Y-90368506D01*
X115546788Y-90266688D01*
X115392445Y-90188047D01*
X115227701Y-90134518D01*
X115227699Y-90134517D01*
X115227698Y-90134517D01*
X115071972Y-90109853D01*
X115056611Y-90107420D01*
X114083389Y-90107420D01*
X114068028Y-90109853D01*
X113912302Y-90134517D01*
X113747552Y-90188048D01*
X113593211Y-90266688D01*
X113513256Y-90324779D01*
X113453072Y-90368506D01*
X113453070Y-90368508D01*
X113453069Y-90368508D01*
X113330588Y-90490989D01*
X113330588Y-90490990D01*
X113330586Y-90490992D01*
X113286859Y-90551176D01*
X113228768Y-90631131D01*
X113150128Y-90785472D01*
X113096597Y-90950222D01*
X113069500Y-91121309D01*
X111500500Y-91121309D01*
X111500500Y-88581309D01*
X113069500Y-88581309D01*
X113069500Y-88754530D01*
X113096495Y-88924975D01*
X113096598Y-88925621D01*
X113150127Y-89090365D01*
X113228768Y-89244708D01*
X113330586Y-89384848D01*
X113453072Y-89507334D01*
X113593212Y-89609152D01*
X113747555Y-89687793D01*
X113912299Y-89741322D01*
X114083389Y-89768420D01*
X114083390Y-89768420D01*
X115056610Y-89768420D01*
X115056611Y-89768420D01*
X115227701Y-89741322D01*
X115392445Y-89687793D01*
X115546788Y-89609152D01*
X115686928Y-89507334D01*
X115809414Y-89384848D01*
X115911232Y-89244708D01*
X115989873Y-89090365D01*
X116043402Y-88925621D01*
X116070500Y-88754531D01*
X116070500Y-88581309D01*
X116043402Y-88410219D01*
X115989873Y-88245475D01*
X115911232Y-88091132D01*
X115809414Y-87950992D01*
X115686928Y-87828506D01*
X115546788Y-87726688D01*
X115392445Y-87648047D01*
X115227701Y-87594518D01*
X115227699Y-87594517D01*
X115227698Y-87594517D01*
X115071972Y-87569853D01*
X115056611Y-87567420D01*
X114083389Y-87567420D01*
X114068028Y-87569853D01*
X113912302Y-87594517D01*
X113747552Y-87648048D01*
X113593211Y-87726688D01*
X113513256Y-87784779D01*
X113453072Y-87828506D01*
X113453070Y-87828508D01*
X113453069Y-87828508D01*
X113330588Y-87950989D01*
X113330588Y-87950990D01*
X113330586Y-87950992D01*
X113286859Y-88011176D01*
X113228768Y-88091131D01*
X113150128Y-88245472D01*
X113096597Y-88410222D01*
X113069500Y-88581309D01*
X111500500Y-88581309D01*
X111500500Y-86041309D01*
X113069500Y-86041309D01*
X113069500Y-86214531D01*
X113096598Y-86385621D01*
X113150127Y-86550365D01*
X113228768Y-86704708D01*
X113330586Y-86844848D01*
X113453072Y-86967334D01*
X113593212Y-87069152D01*
X113747555Y-87147793D01*
X113912299Y-87201322D01*
X114083389Y-87228420D01*
X114083390Y-87228420D01*
X115056610Y-87228420D01*
X115056611Y-87228420D01*
X115227701Y-87201322D01*
X115392445Y-87147793D01*
X115546788Y-87069152D01*
X115686928Y-86967334D01*
X115809414Y-86844848D01*
X115911232Y-86704708D01*
X115989873Y-86550365D01*
X116043402Y-86385621D01*
X116070500Y-86214531D01*
X116070500Y-86041309D01*
X116043402Y-85870219D01*
X115989873Y-85705475D01*
X115911232Y-85551132D01*
X115809414Y-85410992D01*
X115686928Y-85288506D01*
X115546788Y-85186688D01*
X115392445Y-85108047D01*
X115227701Y-85054518D01*
X115227699Y-85054517D01*
X115227698Y-85054517D01*
X115096271Y-85033701D01*
X115056611Y-85027420D01*
X114083389Y-85027420D01*
X114043728Y-85033701D01*
X113912302Y-85054517D01*
X113747552Y-85108048D01*
X113593211Y-85186688D01*
X113569882Y-85203638D01*
X113453072Y-85288506D01*
X113453070Y-85288508D01*
X113453069Y-85288508D01*
X113330588Y-85410989D01*
X113330588Y-85410990D01*
X113330586Y-85410992D01*
X113296877Y-85457388D01*
X113228768Y-85551131D01*
X113150128Y-85705472D01*
X113096597Y-85870222D01*
X113078284Y-85985849D01*
X113069500Y-86041309D01*
X111500500Y-86041309D01*
X111500500Y-83501309D01*
X113069500Y-83501309D01*
X113069500Y-83674531D01*
X113096598Y-83845621D01*
X113150127Y-84010365D01*
X113228768Y-84164708D01*
X113330586Y-84304848D01*
X113453072Y-84427334D01*
X113593212Y-84529152D01*
X113747555Y-84607793D01*
X113912299Y-84661322D01*
X114083389Y-84688420D01*
X114083390Y-84688420D01*
X115056610Y-84688420D01*
X115056611Y-84688420D01*
X115227701Y-84661322D01*
X115392445Y-84607793D01*
X115546788Y-84529152D01*
X115686928Y-84427334D01*
X115809414Y-84304848D01*
X115911232Y-84164708D01*
X115989873Y-84010365D01*
X116043402Y-83845621D01*
X116070500Y-83674531D01*
X116070500Y-83501309D01*
X116043402Y-83330219D01*
X115989873Y-83165475D01*
X115911232Y-83011132D01*
X115809414Y-82870992D01*
X115686928Y-82748506D01*
X115546788Y-82646688D01*
X115458028Y-82601463D01*
X115392447Y-82568048D01*
X115392446Y-82568047D01*
X115392445Y-82568047D01*
X115227701Y-82514518D01*
X115227699Y-82514517D01*
X115227698Y-82514517D01*
X115096271Y-82493701D01*
X115056611Y-82487420D01*
X114083389Y-82487420D01*
X114043728Y-82493701D01*
X113912302Y-82514517D01*
X113747552Y-82568048D01*
X113593211Y-82646688D01*
X113516114Y-82702703D01*
X113453072Y-82748506D01*
X113453070Y-82748508D01*
X113453069Y-82748508D01*
X113330588Y-82870989D01*
X113330588Y-82870990D01*
X113330586Y-82870992D01*
X113301957Y-82910396D01*
X113228768Y-83011131D01*
X113150128Y-83165472D01*
X113096597Y-83330222D01*
X113088268Y-83382812D01*
X113069500Y-83501309D01*
X111500500Y-83501309D01*
X111500500Y-80961309D01*
X113069500Y-80961309D01*
X113069500Y-81134531D01*
X113096598Y-81305621D01*
X113150127Y-81470365D01*
X113228768Y-81624708D01*
X113330586Y-81764848D01*
X113453072Y-81887334D01*
X113593212Y-81989152D01*
X113747555Y-82067793D01*
X113912299Y-82121322D01*
X114083389Y-82148420D01*
X114083390Y-82148420D01*
X115056610Y-82148420D01*
X115056611Y-82148420D01*
X115227701Y-82121322D01*
X115392445Y-82067793D01*
X115546788Y-81989152D01*
X115686928Y-81887334D01*
X115809414Y-81764848D01*
X115911232Y-81624708D01*
X115989873Y-81470365D01*
X116043402Y-81305621D01*
X116070500Y-81134531D01*
X116070500Y-80961309D01*
X116043402Y-80790219D01*
X115989873Y-80625475D01*
X115911232Y-80471132D01*
X115809414Y-80330992D01*
X115686928Y-80208506D01*
X115546788Y-80106688D01*
X115392445Y-80028047D01*
X115227701Y-79974518D01*
X115227699Y-79974517D01*
X115227698Y-79974517D01*
X115096271Y-79953701D01*
X115056611Y-79947420D01*
X114083389Y-79947420D01*
X114043728Y-79953701D01*
X113912302Y-79974517D01*
X113747552Y-80028048D01*
X113593211Y-80106688D01*
X113564817Y-80127318D01*
X113453072Y-80208506D01*
X113453070Y-80208508D01*
X113453069Y-80208508D01*
X113330588Y-80330989D01*
X113330588Y-80330990D01*
X113330586Y-80330992D01*
X113286859Y-80391176D01*
X113228768Y-80471131D01*
X113150128Y-80625472D01*
X113096597Y-80790222D01*
X113077626Y-80910001D01*
X113069500Y-80961309D01*
X111500500Y-80961309D01*
X111500500Y-78421309D01*
X113069500Y-78421309D01*
X113069500Y-78594531D01*
X113076334Y-78637679D01*
X113095605Y-78759356D01*
X113096598Y-78765621D01*
X113150127Y-78930365D01*
X113228768Y-79084708D01*
X113330586Y-79224848D01*
X113453072Y-79347334D01*
X113593212Y-79449152D01*
X113747555Y-79527793D01*
X113912299Y-79581322D01*
X114083389Y-79608420D01*
X114083390Y-79608420D01*
X115056610Y-79608420D01*
X115056611Y-79608420D01*
X115227701Y-79581322D01*
X115392445Y-79527793D01*
X115546788Y-79449152D01*
X115686928Y-79347334D01*
X115809414Y-79224848D01*
X115911232Y-79084708D01*
X115989873Y-78930365D01*
X116043402Y-78765621D01*
X116070500Y-78594531D01*
X116070500Y-78421309D01*
X116043402Y-78250219D01*
X115989873Y-78085475D01*
X115911232Y-77931132D01*
X115809414Y-77790992D01*
X115686928Y-77668506D01*
X115546788Y-77566688D01*
X115392445Y-77488047D01*
X115227701Y-77434518D01*
X115227699Y-77434517D01*
X115227698Y-77434517D01*
X115096271Y-77413701D01*
X115056611Y-77407420D01*
X114083389Y-77407420D01*
X114043728Y-77413701D01*
X113912302Y-77434517D01*
X113747552Y-77488048D01*
X113593211Y-77566688D01*
X113537149Y-77607420D01*
X113453072Y-77668506D01*
X113453070Y-77668508D01*
X113453069Y-77668508D01*
X113330588Y-77790989D01*
X113330588Y-77790990D01*
X113330586Y-77790992D01*
X113286859Y-77851176D01*
X113228768Y-77931131D01*
X113150128Y-78085472D01*
X113096597Y-78250222D01*
X113073806Y-78394119D01*
X113069500Y-78421309D01*
X111500500Y-78421309D01*
X111500500Y-75881309D01*
X113069500Y-75881309D01*
X113069500Y-76054531D01*
X113096598Y-76225621D01*
X113150127Y-76390365D01*
X113228768Y-76544708D01*
X113330586Y-76684848D01*
X113453072Y-76807334D01*
X113593212Y-76909152D01*
X113747555Y-76987793D01*
X113912299Y-77041322D01*
X114083389Y-77068420D01*
X114083390Y-77068420D01*
X115056610Y-77068420D01*
X115056611Y-77068420D01*
X115227701Y-77041322D01*
X115392445Y-76987793D01*
X115546788Y-76909152D01*
X115686928Y-76807334D01*
X115809414Y-76684848D01*
X115911232Y-76544708D01*
X115989873Y-76390365D01*
X116043402Y-76225621D01*
X116070500Y-76054531D01*
X116070500Y-75881309D01*
X116043402Y-75710219D01*
X115989873Y-75545475D01*
X115911232Y-75391132D01*
X115809414Y-75250992D01*
X115686928Y-75128506D01*
X115546788Y-75026688D01*
X115426084Y-74965187D01*
X115392447Y-74948048D01*
X115392446Y-74948047D01*
X115392445Y-74948047D01*
X115227701Y-74894518D01*
X115227699Y-74894517D01*
X115227698Y-74894517D01*
X115096271Y-74873701D01*
X115056611Y-74867420D01*
X114083389Y-74867420D01*
X114043728Y-74873701D01*
X113912302Y-74894517D01*
X113747552Y-74948048D01*
X113593211Y-75026688D01*
X113551093Y-75057289D01*
X113453072Y-75128506D01*
X113453070Y-75128508D01*
X113453069Y-75128508D01*
X113330588Y-75250989D01*
X113330588Y-75250990D01*
X113330586Y-75250992D01*
X113286859Y-75311176D01*
X113228768Y-75391131D01*
X113150128Y-75545472D01*
X113096597Y-75710222D01*
X113070500Y-75874998D01*
X113069500Y-75881309D01*
X111500500Y-75881309D01*
X111500500Y-73341309D01*
X113069500Y-73341309D01*
X113069500Y-73514531D01*
X113096598Y-73685621D01*
X113150127Y-73850365D01*
X113228768Y-74004708D01*
X113330586Y-74144848D01*
X113453072Y-74267334D01*
X113593212Y-74369152D01*
X113747555Y-74447793D01*
X113912299Y-74501322D01*
X114083389Y-74528420D01*
X114083390Y-74528420D01*
X115056610Y-74528420D01*
X115056611Y-74528420D01*
X115227701Y-74501322D01*
X115392445Y-74447793D01*
X115546788Y-74369152D01*
X115686928Y-74267334D01*
X115809414Y-74144848D01*
X115911232Y-74004708D01*
X115989873Y-73850365D01*
X116043402Y-73685621D01*
X116070500Y-73514531D01*
X116070500Y-73341309D01*
X116043402Y-73170219D01*
X115989873Y-73005475D01*
X115911232Y-72851132D01*
X115809414Y-72710992D01*
X115686928Y-72588506D01*
X115546788Y-72486688D01*
X115392445Y-72408047D01*
X115227701Y-72354518D01*
X115227699Y-72354517D01*
X115227698Y-72354517D01*
X115096271Y-72333701D01*
X115056611Y-72327420D01*
X114083389Y-72327420D01*
X114043728Y-72333701D01*
X113912302Y-72354517D01*
X113747552Y-72408048D01*
X113593211Y-72486688D01*
X113515231Y-72543345D01*
X113453072Y-72588506D01*
X113453070Y-72588508D01*
X113453069Y-72588508D01*
X113330588Y-72710989D01*
X113330588Y-72710990D01*
X113330586Y-72710992D01*
X113295447Y-72759356D01*
X113228768Y-72851131D01*
X113150128Y-73005472D01*
X113096597Y-73170222D01*
X113069500Y-73341309D01*
X111500500Y-73341309D01*
X111500500Y-70801309D01*
X113069500Y-70801309D01*
X113069500Y-70974531D01*
X113096598Y-71145621D01*
X113150127Y-71310365D01*
X113228768Y-71464708D01*
X113330586Y-71604848D01*
X113453072Y-71727334D01*
X113593212Y-71829152D01*
X113747555Y-71907793D01*
X113912299Y-71961322D01*
X114083389Y-71988420D01*
X114083390Y-71988420D01*
X115056610Y-71988420D01*
X115056611Y-71988420D01*
X115227701Y-71961322D01*
X115392445Y-71907793D01*
X115546788Y-71829152D01*
X115686928Y-71727334D01*
X115809414Y-71604848D01*
X115911232Y-71464708D01*
X115989873Y-71310365D01*
X116043402Y-71145621D01*
X116070500Y-70974531D01*
X116070500Y-70801309D01*
X116043402Y-70630219D01*
X115989873Y-70465475D01*
X115911232Y-70311132D01*
X115809414Y-70170992D01*
X115686928Y-70048506D01*
X115546788Y-69946688D01*
X115406075Y-69874992D01*
X115392447Y-69868048D01*
X115392446Y-69868047D01*
X115392445Y-69868047D01*
X115227701Y-69814518D01*
X115227699Y-69814517D01*
X115227698Y-69814517D01*
X115096271Y-69793701D01*
X115056611Y-69787420D01*
X114083389Y-69787420D01*
X114043728Y-69793701D01*
X113912302Y-69814517D01*
X113747552Y-69868048D01*
X113593211Y-69946688D01*
X113513256Y-70004779D01*
X113453072Y-70048506D01*
X113453070Y-70048508D01*
X113453069Y-70048508D01*
X113330588Y-70170989D01*
X113330588Y-70170990D01*
X113330586Y-70170992D01*
X113306200Y-70204557D01*
X113228768Y-70311131D01*
X113150128Y-70465472D01*
X113096597Y-70630222D01*
X113074911Y-70767147D01*
X113069500Y-70801309D01*
X111500500Y-70801309D01*
X111500500Y-66635071D01*
X111506791Y-66613645D01*
X111508454Y-66591375D01*
X111516444Y-66580769D01*
X111520185Y-66568032D01*
X111537059Y-66553410D01*
X111550500Y-66535572D01*
X111562956Y-66530970D01*
X111572989Y-66522277D01*
X111595091Y-66519099D01*
X111616040Y-66511360D01*
X111629004Y-66514222D01*
X111642147Y-66512333D01*
X111662461Y-66521610D01*
X111684266Y-66526425D01*
X111698011Y-66537845D01*
X111705703Y-66541358D01*
X111712454Y-66547664D01*
X111719022Y-66554273D01*
X111720861Y-66557025D01*
X111860218Y-66696382D01*
X111860221Y-66696384D01*
X111864672Y-66700835D01*
X112867412Y-67703575D01*
X112867441Y-67703606D01*
X113009891Y-67846056D01*
X113009896Y-67846060D01*
X113068265Y-67885060D01*
X113113071Y-67938671D01*
X113121780Y-68007996D01*
X113117307Y-68026480D01*
X113096598Y-68090215D01*
X113069500Y-68261309D01*
X113069500Y-68434531D01*
X113096598Y-68605621D01*
X113150127Y-68770365D01*
X113228768Y-68924708D01*
X113330586Y-69064848D01*
X113453072Y-69187334D01*
X113593212Y-69289152D01*
X113747555Y-69367793D01*
X113912299Y-69421322D01*
X114083389Y-69448420D01*
X114083390Y-69448420D01*
X115056610Y-69448420D01*
X115056611Y-69448420D01*
X115227701Y-69421322D01*
X115392445Y-69367793D01*
X115546788Y-69289152D01*
X115686928Y-69187334D01*
X115809414Y-69064848D01*
X115883155Y-68963351D01*
X115938484Y-68920688D01*
X116008097Y-68914709D01*
X116069892Y-68947315D01*
X116071153Y-68948558D01*
X134732181Y-87609586D01*
X134765666Y-87670909D01*
X134768500Y-87697267D01*
X134768500Y-99448787D01*
X134803736Y-99625930D01*
X134806948Y-99642074D01*
X134806949Y-99642080D01*
X134882364Y-99824150D01*
X134882371Y-99824163D01*
X134991860Y-99988024D01*
X134991863Y-99988028D01*
X135135537Y-100131702D01*
X135135559Y-100131722D01*
X135745412Y-100741575D01*
X135745441Y-100741606D01*
X135887892Y-100884057D01*
X135926671Y-100909968D01*
X135971477Y-100963580D01*
X135980184Y-101032905D01*
X135975712Y-101051388D01*
X135956599Y-101110210D01*
X135956598Y-101110217D01*
X135929500Y-101281309D01*
X135929500Y-101454530D01*
X135956166Y-101622897D01*
X135956598Y-101625621D01*
X136010127Y-101790365D01*
X136088768Y-101944708D01*
X136190586Y-102084848D01*
X136313072Y-102207334D01*
X136453212Y-102309152D01*
X136607555Y-102387793D01*
X136772299Y-102441322D01*
X136943389Y-102468420D01*
X136943390Y-102468420D01*
X137916610Y-102468420D01*
X137916611Y-102468420D01*
X138087701Y-102441322D01*
X138252445Y-102387793D01*
X138406788Y-102309152D01*
X138546928Y-102207334D01*
X138669414Y-102084848D01*
X138771232Y-101944708D01*
X138849873Y-101790365D01*
X138903402Y-101625621D01*
X138930500Y-101454531D01*
X138930500Y-101281309D01*
X138925670Y-101250814D01*
X138934626Y-101181523D01*
X138979623Y-101128072D01*
X139046375Y-101107433D01*
X139048144Y-101107420D01*
X150782122Y-101107420D01*
X150813146Y-101101248D01*
X150878768Y-101088195D01*
X150975416Y-101068971D01*
X151028745Y-101046881D01*
X151157494Y-100993552D01*
X151321362Y-100884059D01*
X151460719Y-100744702D01*
X151460719Y-100744700D01*
X151470927Y-100734493D01*
X151470928Y-100734490D01*
X158150321Y-94055098D01*
X158169755Y-94044487D01*
X158186489Y-94029987D01*
X158199820Y-94028070D01*
X158211642Y-94021615D01*
X158233728Y-94023194D01*
X158255647Y-94020043D01*
X158267898Y-94025638D01*
X158281334Y-94026599D01*
X158299060Y-94039869D01*
X158319203Y-94049068D01*
X158326485Y-94060399D01*
X158337267Y-94068471D01*
X158345004Y-94089216D01*
X158356977Y-94107846D01*
X158360128Y-94129764D01*
X158361684Y-94133935D01*
X158362000Y-94142781D01*
X158362000Y-94284216D01*
X158342315Y-94351255D01*
X158325681Y-94371897D01*
X153734556Y-98963023D01*
X149212220Y-103485359D01*
X149212218Y-103485361D01*
X149162400Y-103535179D01*
X149072859Y-103624719D01*
X148963371Y-103788579D01*
X148963364Y-103788592D01*
X148887950Y-103970660D01*
X148887947Y-103970672D01*
X148868466Y-104068611D01*
X148836081Y-104130522D01*
X148775366Y-104165096D01*
X148746849Y-104168420D01*
X138970247Y-104168420D01*
X138934488Y-104157920D01*
X137745686Y-104157920D01*
X137750080Y-104153526D01*
X137802741Y-104062314D01*
X137830000Y-103960581D01*
X137830000Y-103855259D01*
X137802741Y-103753526D01*
X137750080Y-103662314D01*
X137745686Y-103657920D01*
X138904115Y-103657920D01*
X138904115Y-103657919D01*
X138902914Y-103650335D01*
X138849408Y-103485664D01*
X138770804Y-103331395D01*
X138669032Y-103191317D01*
X138546602Y-103068887D01*
X138406524Y-102967115D01*
X138252257Y-102888511D01*
X138087584Y-102835005D01*
X137916571Y-102807920D01*
X137680000Y-102807920D01*
X137680000Y-103592234D01*
X137675606Y-103587840D01*
X137584394Y-103535179D01*
X137482661Y-103507920D01*
X137377339Y-103507920D01*
X137275606Y-103535179D01*
X137184394Y-103587840D01*
X137180000Y-103592234D01*
X137180000Y-102807920D01*
X136943429Y-102807920D01*
X136772415Y-102835005D01*
X136607742Y-102888511D01*
X136453475Y-102967115D01*
X136313397Y-103068887D01*
X136190967Y-103191317D01*
X136089195Y-103331395D01*
X136010591Y-103485664D01*
X135957085Y-103650335D01*
X135955884Y-103657919D01*
X135955885Y-103657920D01*
X137114314Y-103657920D01*
X137109920Y-103662314D01*
X137057259Y-103753526D01*
X137030000Y-103855259D01*
X137030000Y-103960581D01*
X137057259Y-104062314D01*
X137109920Y-104153526D01*
X137114314Y-104157920D01*
X135933539Y-104157920D01*
X135925535Y-104163145D01*
X135889753Y-104168420D01*
X116295822Y-104168420D01*
X116266381Y-104159775D01*
X116236395Y-104153252D01*
X116231379Y-104149497D01*
X116228783Y-104148735D01*
X116208141Y-104132101D01*
X116103139Y-104027099D01*
X116069654Y-103965776D01*
X116066820Y-103939418D01*
X116066820Y-103818589D01*
X116050315Y-103714383D01*
X116050315Y-103714380D01*
X116042068Y-103662314D01*
X116039722Y-103647499D01*
X115986193Y-103482755D01*
X115907552Y-103328412D01*
X115805734Y-103188272D01*
X115683248Y-103065786D01*
X115543108Y-102963968D01*
X115388765Y-102885327D01*
X115224021Y-102831798D01*
X115224019Y-102831797D01*
X115224018Y-102831797D01*
X115073261Y-102807920D01*
X115052931Y-102804700D01*
X114079709Y-102804700D01*
X114059379Y-102807920D01*
X113908622Y-102831797D01*
X113743872Y-102885328D01*
X113589531Y-102963968D01*
X113509576Y-103022059D01*
X113449392Y-103065786D01*
X113449390Y-103065788D01*
X113449389Y-103065788D01*
X113326908Y-103188269D01*
X113326908Y-103188270D01*
X113326906Y-103188272D01*
X113324694Y-103191317D01*
X113225088Y-103328411D01*
X113146448Y-103482752D01*
X113092917Y-103647502D01*
X113065820Y-103818589D01*
X113065820Y-103991810D01*
X113091389Y-104153252D01*
X113092918Y-104162901D01*
X113146447Y-104327645D01*
X113225088Y-104481988D01*
X113326906Y-104622128D01*
X113449392Y-104744614D01*
X113589532Y-104846432D01*
X113743875Y-104925073D01*
X113908619Y-104978602D01*
X114079709Y-105005700D01*
X114200538Y-105005700D01*
X114229978Y-105014344D01*
X114259965Y-105020868D01*
X114264980Y-105024622D01*
X114267577Y-105025385D01*
X114288219Y-105042019D01*
X114379719Y-105133519D01*
X114413204Y-105194842D01*
X114408220Y-105264534D01*
X114366348Y-105320467D01*
X114300884Y-105344884D01*
X114292038Y-105345200D01*
X114079749Y-105345200D01*
X113908735Y-105372285D01*
X113744062Y-105425791D01*
X113589795Y-105504395D01*
X113449717Y-105606167D01*
X113327287Y-105728597D01*
X113225515Y-105868675D01*
X113146911Y-106022944D01*
X113093405Y-106187615D01*
X113092204Y-106195199D01*
X113092205Y-106195200D01*
X114250634Y-106195200D01*
X114246240Y-106199594D01*
X114193579Y-106290806D01*
X114166320Y-106392539D01*
X114166320Y-106497861D01*
X114193579Y-106599594D01*
X114246240Y-106690806D01*
X114250634Y-106695200D01*
X113092205Y-106695200D01*
X113093405Y-106702784D01*
X113146911Y-106867455D01*
X113225515Y-107021724D01*
X113327287Y-107161802D01*
X113449717Y-107284232D01*
X113589795Y-107386004D01*
X113744062Y-107464608D01*
X113908735Y-107518114D01*
X114079749Y-107545200D01*
X114316320Y-107545200D01*
X114316320Y-106760886D01*
X114320714Y-106765280D01*
X114411926Y-106817941D01*
X114513659Y-106845200D01*
X114618981Y-106845200D01*
X114720714Y-106817941D01*
X114811926Y-106765280D01*
X114816320Y-106760886D01*
X114816320Y-107545200D01*
X115052891Y-107545200D01*
X115223904Y-107518114D01*
X115388577Y-107464608D01*
X115542844Y-107386004D01*
X115682922Y-107284232D01*
X115805352Y-107161802D01*
X115907124Y-107021724D01*
X115985728Y-106867455D01*
X116039234Y-106702784D01*
X116039234Y-106702783D01*
X116040435Y-106695200D01*
X114882006Y-106695200D01*
X114886400Y-106690806D01*
X114939061Y-106599594D01*
X114966320Y-106497861D01*
X114966320Y-106392539D01*
X114939061Y-106290806D01*
X114886400Y-106199594D01*
X114882006Y-106195200D01*
X116052424Y-106195200D01*
X116083837Y-106174695D01*
X116119618Y-106169420D01*
X135874379Y-106169420D01*
X135941418Y-106189105D01*
X135951518Y-106197920D01*
X137114314Y-106197920D01*
X137109920Y-106202314D01*
X137057259Y-106293526D01*
X137030000Y-106395259D01*
X137030000Y-106500581D01*
X137057259Y-106602314D01*
X137109920Y-106693526D01*
X137114314Y-106697920D01*
X135955885Y-106697920D01*
X135957085Y-106705504D01*
X136010591Y-106870175D01*
X136089195Y-107024444D01*
X136190967Y-107164522D01*
X136313397Y-107286952D01*
X136453475Y-107388724D01*
X136607742Y-107467328D01*
X136772415Y-107520834D01*
X136943429Y-107547920D01*
X137180000Y-107547920D01*
X137180000Y-106763606D01*
X137184394Y-106768000D01*
X137275606Y-106820661D01*
X137377339Y-106847920D01*
X137482661Y-106847920D01*
X137584394Y-106820661D01*
X137675606Y-106768000D01*
X137680000Y-106763606D01*
X137680000Y-107547920D01*
X137916571Y-107547920D01*
X138087584Y-107520834D01*
X138252257Y-107467328D01*
X138406524Y-107388724D01*
X138546602Y-107286952D01*
X138669032Y-107164522D01*
X138770804Y-107024444D01*
X138849408Y-106870175D01*
X138902914Y-106705504D01*
X138904115Y-106697920D01*
X137745686Y-106697920D01*
X137750080Y-106693526D01*
X137802741Y-106602314D01*
X137830000Y-106500581D01*
X137830000Y-106395259D01*
X137802741Y-106293526D01*
X137750080Y-106202314D01*
X137745686Y-106197920D01*
X138914260Y-106197920D01*
X138949839Y-106174695D01*
X138985621Y-106169420D01*
X149635219Y-106169420D01*
X149702258Y-106189105D01*
X149722900Y-106205739D01*
X155955480Y-112438319D01*
X155988965Y-112499642D01*
X155983981Y-112569334D01*
X155942109Y-112625267D01*
X155876645Y-112649684D01*
X155867799Y-112650000D01*
X155440000Y-112650000D01*
X155440000Y-113566988D01*
X155382993Y-113534075D01*
X155255826Y-113500000D01*
X155124174Y-113500000D01*
X154997007Y-113534075D01*
X154940000Y-113566988D01*
X154940000Y-112650000D01*
X154292155Y-112650000D01*
X154232627Y-112656401D01*
X154232620Y-112656403D01*
X154097913Y-112706645D01*
X154097906Y-112706649D01*
X153982812Y-112792809D01*
X153982809Y-112792812D01*
X153896649Y-112907906D01*
X153896645Y-112907913D01*
X153846403Y-113042620D01*
X153846401Y-113042627D01*
X153840000Y-113102155D01*
X153840000Y-113750000D01*
X154756988Y-113750000D01*
X154724075Y-113807007D01*
X154690000Y-113934174D01*
X154690000Y-114065826D01*
X154724075Y-114192993D01*
X154756988Y-114250000D01*
X153840000Y-114250000D01*
X153840000Y-114897844D01*
X153846401Y-114957372D01*
X153846403Y-114957379D01*
X153896645Y-115092086D01*
X153896649Y-115092093D01*
X153982809Y-115207187D01*
X153982812Y-115207190D01*
X154097906Y-115293350D01*
X154097913Y-115293354D01*
X154232620Y-115343596D01*
X154232627Y-115343598D01*
X154292155Y-115349999D01*
X154292172Y-115350000D01*
X154940000Y-115350000D01*
X154940000Y-114433012D01*
X154997007Y-114465925D01*
X155124174Y-114500000D01*
X155255826Y-114500000D01*
X155382993Y-114465925D01*
X155440000Y-114433012D01*
X155440000Y-115350000D01*
X156087828Y-115350000D01*
X156087844Y-115349999D01*
X156147372Y-115343598D01*
X156147379Y-115343596D01*
X156282086Y-115293354D01*
X156282093Y-115293350D01*
X156397187Y-115207190D01*
X156397190Y-115207187D01*
X156483350Y-115092093D01*
X156483354Y-115092086D01*
X156532422Y-114960529D01*
X156574293Y-114904595D01*
X156639757Y-114880178D01*
X156708030Y-114895030D01*
X156736285Y-114916181D01*
X156850213Y-115030109D01*
X157022179Y-115155048D01*
X157022181Y-115155049D01*
X157022184Y-115155051D01*
X157211588Y-115251557D01*
X157413757Y-115317246D01*
X157623713Y-115350500D01*
X157623714Y-115350500D01*
X157836286Y-115350500D01*
X157836287Y-115350500D01*
X158046243Y-115317246D01*
X158248412Y-115251557D01*
X158437816Y-115155051D01*
X158524471Y-115092093D01*
X158609786Y-115030109D01*
X158609788Y-115030106D01*
X158609792Y-115030104D01*
X158760104Y-114879792D01*
X158760106Y-114879788D01*
X158760109Y-114879786D01*
X158885048Y-114707820D01*
X158885047Y-114707820D01*
X158885051Y-114707816D01*
X158889514Y-114699054D01*
X158937488Y-114648259D01*
X159005308Y-114631463D01*
X159071444Y-114653999D01*
X159110486Y-114699056D01*
X159114951Y-114707820D01*
X159239890Y-114879786D01*
X159390213Y-115030109D01*
X159562179Y-115155048D01*
X159562181Y-115155049D01*
X159562184Y-115155051D01*
X159751588Y-115251557D01*
X159953757Y-115317246D01*
X160163713Y-115350500D01*
X160163714Y-115350500D01*
X160376286Y-115350500D01*
X160376287Y-115350500D01*
X160586243Y-115317246D01*
X160788412Y-115251557D01*
X160977816Y-115155051D01*
X161064471Y-115092093D01*
X161149786Y-115030109D01*
X161149788Y-115030106D01*
X161149792Y-115030104D01*
X161300104Y-114879792D01*
X161300106Y-114879788D01*
X161300109Y-114879786D01*
X161425048Y-114707820D01*
X161425047Y-114707820D01*
X161425051Y-114707816D01*
X161429514Y-114699054D01*
X161477488Y-114648259D01*
X161545308Y-114631463D01*
X161611444Y-114653999D01*
X161650486Y-114699056D01*
X161654951Y-114707820D01*
X161779890Y-114879786D01*
X161930213Y-115030109D01*
X162102179Y-115155048D01*
X162102181Y-115155049D01*
X162102184Y-115155051D01*
X162291588Y-115251557D01*
X162493757Y-115317246D01*
X162703713Y-115350500D01*
X162703714Y-115350500D01*
X162916286Y-115350500D01*
X162916287Y-115350500D01*
X163126243Y-115317246D01*
X163328412Y-115251557D01*
X163517816Y-115155051D01*
X163604471Y-115092093D01*
X163689786Y-115030109D01*
X163689788Y-115030106D01*
X163689792Y-115030104D01*
X163840104Y-114879792D01*
X163840106Y-114879788D01*
X163840109Y-114879786D01*
X163965048Y-114707820D01*
X163965047Y-114707820D01*
X163965051Y-114707816D01*
X164061557Y-114518412D01*
X164127246Y-114316243D01*
X164160500Y-114106287D01*
X164160500Y-113893713D01*
X164127246Y-113683757D01*
X164061557Y-113481588D01*
X163965051Y-113292184D01*
X163965049Y-113292181D01*
X163965048Y-113292179D01*
X163840109Y-113120213D01*
X163689791Y-112969895D01*
X163676613Y-112960321D01*
X163633948Y-112904991D01*
X163625500Y-112860004D01*
X163625500Y-110172016D01*
X163645185Y-110104977D01*
X163697989Y-110059222D01*
X163710488Y-110054313D01*
X163769334Y-110034814D01*
X163918656Y-109942712D01*
X164042712Y-109818656D01*
X164134814Y-109669334D01*
X164189999Y-109502797D01*
X164200500Y-109400009D01*
X164200499Y-108599992D01*
X164189999Y-108497203D01*
X164134814Y-108330666D01*
X164042712Y-108181344D01*
X163949049Y-108087681D01*
X163915564Y-108026358D01*
X163920548Y-107956666D01*
X163949049Y-107912319D01*
X164042712Y-107818656D01*
X164134814Y-107669334D01*
X164189999Y-107502797D01*
X164200500Y-107400009D01*
X164200499Y-106599992D01*
X164200458Y-106599594D01*
X164189999Y-106497203D01*
X164189998Y-106497200D01*
X164156218Y-106395259D01*
X164134814Y-106330666D01*
X164042712Y-106181344D01*
X164036819Y-106175451D01*
X164003334Y-106114128D01*
X164000500Y-106087770D01*
X164000500Y-93966956D01*
X163962052Y-93773670D01*
X163962051Y-93773669D01*
X163962051Y-93773665D01*
X163891276Y-93602797D01*
X163886635Y-93591592D01*
X163886628Y-93591579D01*
X163777140Y-93427719D01*
X163715472Y-93366051D01*
X163637782Y-93288361D01*
X163637781Y-93288360D01*
X162307708Y-91958288D01*
X162307706Y-91958285D01*
X162307706Y-91958286D01*
X162300639Y-91951219D01*
X162300639Y-91951218D01*
X162161282Y-91811861D01*
X162161281Y-91811860D01*
X162161280Y-91811859D01*
X161997416Y-91702369D01*
X161997411Y-91702366D01*
X161924815Y-91672296D01*
X161868665Y-91649038D01*
X161815336Y-91626949D01*
X161815332Y-91626948D01*
X161815328Y-91626946D01*
X161718688Y-91607724D01*
X161622044Y-91588500D01*
X161622041Y-91588500D01*
X158300040Y-91588500D01*
X158102959Y-91588500D01*
X158102956Y-91588500D01*
X157909671Y-91626946D01*
X157909667Y-91626948D01*
X157909665Y-91626948D01*
X157909664Y-91626949D01*
X157834245Y-91658188D01*
X157834243Y-91658189D01*
X157727585Y-91702368D01*
X157727585Y-91702369D01*
X157727584Y-91702369D01*
X157563722Y-91811857D01*
X157563714Y-91811863D01*
X150305479Y-99070101D01*
X150244156Y-99103586D01*
X150217798Y-99106420D01*
X139045293Y-99106420D01*
X138978254Y-99086735D01*
X138932499Y-99033931D01*
X138922555Y-98964773D01*
X138922820Y-98963023D01*
X138930500Y-98914531D01*
X138930500Y-98741309D01*
X138903402Y-98570222D01*
X138903402Y-98570219D01*
X138849873Y-98405475D01*
X138771232Y-98251132D01*
X138669414Y-98110992D01*
X138546928Y-97988506D01*
X138406788Y-97886688D01*
X138252445Y-97808047D01*
X138087701Y-97754518D01*
X138087699Y-97754517D01*
X138087698Y-97754517D01*
X137931972Y-97729853D01*
X137916611Y-97727420D01*
X136943389Y-97727420D01*
X136912894Y-97732249D01*
X136894355Y-97729853D01*
X136875853Y-97732514D01*
X136860424Y-97725468D01*
X136843603Y-97723294D01*
X136829302Y-97711254D01*
X136812297Y-97703489D01*
X136803126Y-97689219D01*
X136790152Y-97678297D01*
X136784630Y-97660438D01*
X136774523Y-97644711D01*
X136769964Y-97613004D01*
X136769513Y-97611545D01*
X136769500Y-97609776D01*
X136769500Y-97506063D01*
X136789185Y-97439024D01*
X136841989Y-97393269D01*
X136911147Y-97383325D01*
X136912759Y-97383568D01*
X136943389Y-97388420D01*
X136943392Y-97388420D01*
X137916610Y-97388420D01*
X137916611Y-97388420D01*
X138087701Y-97361322D01*
X138252445Y-97307793D01*
X138406788Y-97229152D01*
X138546928Y-97127334D01*
X138669414Y-97004848D01*
X138771232Y-96864708D01*
X138849873Y-96710365D01*
X138903402Y-96545621D01*
X138930500Y-96374531D01*
X138930500Y-96201309D01*
X138903402Y-96030219D01*
X138849873Y-95865475D01*
X138771232Y-95711132D01*
X138669414Y-95570992D01*
X138546928Y-95448506D01*
X138406788Y-95346688D01*
X138252445Y-95268047D01*
X138087701Y-95214518D01*
X138087699Y-95214517D01*
X138087698Y-95214517D01*
X137931972Y-95189853D01*
X137916611Y-95187420D01*
X136943389Y-95187420D01*
X136912894Y-95192249D01*
X136894355Y-95189853D01*
X136875853Y-95192514D01*
X136860424Y-95185468D01*
X136843603Y-95183294D01*
X136829302Y-95171254D01*
X136812297Y-95163489D01*
X136803126Y-95149219D01*
X136790152Y-95138297D01*
X136784630Y-95120438D01*
X136774523Y-95104711D01*
X136769964Y-95073004D01*
X136769513Y-95071545D01*
X136769500Y-95069776D01*
X136769500Y-94966063D01*
X136789185Y-94899024D01*
X136841989Y-94853269D01*
X136911147Y-94843325D01*
X136912759Y-94843568D01*
X136943389Y-94848420D01*
X136943392Y-94848420D01*
X137916610Y-94848420D01*
X137916611Y-94848420D01*
X138087701Y-94821322D01*
X138252445Y-94767793D01*
X138406788Y-94689152D01*
X138546928Y-94587334D01*
X138669414Y-94464848D01*
X138771232Y-94324708D01*
X138849873Y-94170365D01*
X138903402Y-94005621D01*
X138930500Y-93834531D01*
X138930500Y-93661309D01*
X138903402Y-93490219D01*
X138849873Y-93325475D01*
X138771232Y-93171132D01*
X138669414Y-93030992D01*
X138546928Y-92908506D01*
X138406788Y-92806688D01*
X138367062Y-92786447D01*
X138252447Y-92728048D01*
X138252446Y-92728047D01*
X138252445Y-92728047D01*
X138087701Y-92674518D01*
X138087699Y-92674517D01*
X138087698Y-92674517D01*
X137931972Y-92649853D01*
X137916611Y-92647420D01*
X136943389Y-92647420D01*
X136912894Y-92652249D01*
X136894355Y-92649853D01*
X136875853Y-92652514D01*
X136860424Y-92645468D01*
X136843603Y-92643294D01*
X136829302Y-92631254D01*
X136812297Y-92623489D01*
X136803126Y-92609219D01*
X136790152Y-92598297D01*
X136784630Y-92580438D01*
X136774523Y-92564711D01*
X136769964Y-92533004D01*
X136769513Y-92531545D01*
X136769500Y-92529776D01*
X136769500Y-92426063D01*
X136789185Y-92359024D01*
X136841989Y-92313269D01*
X136911147Y-92303325D01*
X136912759Y-92303568D01*
X136943389Y-92308420D01*
X136943392Y-92308420D01*
X137916610Y-92308420D01*
X137916611Y-92308420D01*
X138087701Y-92281322D01*
X138252445Y-92227793D01*
X138406788Y-92149152D01*
X138546928Y-92047334D01*
X138669414Y-91924848D01*
X138771232Y-91784708D01*
X138849873Y-91630365D01*
X138903402Y-91465621D01*
X138930500Y-91294531D01*
X138930500Y-91121309D01*
X138903402Y-90950219D01*
X138849873Y-90785475D01*
X138771232Y-90631132D01*
X138669414Y-90490992D01*
X138546928Y-90368506D01*
X138406788Y-90266688D01*
X138252445Y-90188047D01*
X138087701Y-90134518D01*
X138087699Y-90134517D01*
X138087698Y-90134517D01*
X137931972Y-90109853D01*
X137916611Y-90107420D01*
X136943389Y-90107420D01*
X136912894Y-90112249D01*
X136894355Y-90109853D01*
X136875853Y-90112514D01*
X136860424Y-90105468D01*
X136843603Y-90103294D01*
X136829302Y-90091254D01*
X136812297Y-90083489D01*
X136803126Y-90069219D01*
X136790152Y-90058297D01*
X136784630Y-90040438D01*
X136774523Y-90024711D01*
X136769964Y-89993004D01*
X136769513Y-89991545D01*
X136769500Y-89989776D01*
X136769500Y-89886063D01*
X136789185Y-89819024D01*
X136841989Y-89773269D01*
X136911147Y-89763325D01*
X136912759Y-89763568D01*
X136943389Y-89768420D01*
X136943392Y-89768420D01*
X137916610Y-89768420D01*
X137916611Y-89768420D01*
X138087701Y-89741322D01*
X138252445Y-89687793D01*
X138406788Y-89609152D01*
X138546928Y-89507334D01*
X138669414Y-89384848D01*
X138771232Y-89244708D01*
X138849873Y-89090365D01*
X138903402Y-88925621D01*
X138930500Y-88754531D01*
X138930500Y-88581309D01*
X138903402Y-88410219D01*
X138849873Y-88245475D01*
X138771232Y-88091132D01*
X138669414Y-87950992D01*
X138546928Y-87828506D01*
X138406788Y-87726688D01*
X138252445Y-87648047D01*
X138087701Y-87594518D01*
X138087699Y-87594517D01*
X138087698Y-87594517D01*
X137931972Y-87569853D01*
X137916611Y-87567420D01*
X136943389Y-87567420D01*
X136912894Y-87572249D01*
X136894355Y-87569853D01*
X136875853Y-87572514D01*
X136860424Y-87565468D01*
X136843603Y-87563294D01*
X136829302Y-87551254D01*
X136812297Y-87543489D01*
X136803126Y-87529219D01*
X136790152Y-87518297D01*
X136784630Y-87500438D01*
X136774523Y-87484711D01*
X136769964Y-87453004D01*
X136769513Y-87451545D01*
X136769500Y-87449776D01*
X136769500Y-87346063D01*
X136789185Y-87279024D01*
X136841989Y-87233269D01*
X136911147Y-87223325D01*
X136912759Y-87223568D01*
X136943389Y-87228420D01*
X136943392Y-87228420D01*
X137916610Y-87228420D01*
X137916611Y-87228420D01*
X138087701Y-87201322D01*
X138252445Y-87147793D01*
X138406788Y-87069152D01*
X138546928Y-86967334D01*
X138669414Y-86844848D01*
X138687560Y-86819871D01*
X138742889Y-86777206D01*
X138812503Y-86771227D01*
X138874298Y-86803832D01*
X138875559Y-86805076D01*
X141400681Y-89330198D01*
X141434166Y-89391521D01*
X141437000Y-89417879D01*
X141437000Y-91768942D01*
X141417315Y-91835981D01*
X141378098Y-91874479D01*
X141296438Y-91924848D01*
X141243842Y-91957289D01*
X141119789Y-92081342D01*
X141027687Y-92230663D01*
X141027685Y-92230668D01*
X141005289Y-92298255D01*
X140972501Y-92397203D01*
X140972501Y-92397204D01*
X140972500Y-92397204D01*
X140962000Y-92499983D01*
X140962000Y-93500001D01*
X140962001Y-93500019D01*
X140972500Y-93602796D01*
X140972501Y-93602799D01*
X141027685Y-93769331D01*
X141027687Y-93769336D01*
X141047677Y-93801745D01*
X141110144Y-93903021D01*
X141119789Y-93918657D01*
X141123295Y-93923091D01*
X141149434Y-93987887D01*
X141136392Y-94056529D01*
X141123295Y-94076909D01*
X141119789Y-94081342D01*
X141027687Y-94230663D01*
X141027685Y-94230668D01*
X141024351Y-94240730D01*
X140972501Y-94397203D01*
X140972501Y-94397204D01*
X140972500Y-94397204D01*
X140962000Y-94499983D01*
X140962000Y-95500001D01*
X140962001Y-95500019D01*
X140972500Y-95602796D01*
X140972501Y-95602799D01*
X141008615Y-95711783D01*
X141027686Y-95769334D01*
X141119788Y-95918656D01*
X141243844Y-96042712D01*
X141393166Y-96134814D01*
X141559703Y-96189999D01*
X141662491Y-96200500D01*
X142462508Y-96200499D01*
X142462516Y-96200498D01*
X142462519Y-96200498D01*
X142518802Y-96194748D01*
X142565297Y-96189999D01*
X142731834Y-96134814D01*
X142881156Y-96042712D01*
X142975175Y-95948692D01*
X143036494Y-95915210D01*
X143106186Y-95920194D01*
X143150534Y-95948695D01*
X143244154Y-96042315D01*
X143393375Y-96134356D01*
X143393380Y-96134358D01*
X143559802Y-96189505D01*
X143559809Y-96189506D01*
X143662519Y-96199999D01*
X143812499Y-96199999D01*
X143812500Y-96199998D01*
X143812500Y-95250000D01*
X144312500Y-95250000D01*
X144312500Y-96199999D01*
X144462472Y-96199999D01*
X144462486Y-96199998D01*
X144565197Y-96189505D01*
X144731619Y-96134358D01*
X144731624Y-96134356D01*
X144880845Y-96042315D01*
X145004815Y-95918345D01*
X145096861Y-95769115D01*
X145099913Y-95762572D01*
X145101060Y-95763107D01*
X145136585Y-95711783D01*
X145201097Y-95684951D01*
X145269875Y-95697256D01*
X145277159Y-95701220D01*
X145277306Y-95701283D01*
X145435004Y-95747099D01*
X145435010Y-95747100D01*
X145471850Y-95749999D01*
X145471866Y-95750000D01*
X145875000Y-95750000D01*
X146375000Y-95750000D01*
X146778134Y-95750000D01*
X146778149Y-95749999D01*
X146814989Y-95747100D01*
X146814995Y-95747099D01*
X146972693Y-95701283D01*
X146972696Y-95701282D01*
X147114052Y-95617685D01*
X147114061Y-95617678D01*
X147230178Y-95501561D01*
X147230185Y-95501552D01*
X147313781Y-95360198D01*
X147359600Y-95202486D01*
X147359795Y-95200001D01*
X147359795Y-95200000D01*
X146375000Y-95200000D01*
X146375000Y-95750000D01*
X145875000Y-95750000D01*
X145875000Y-95200000D01*
X145292500Y-95200000D01*
X145278819Y-95213681D01*
X145217496Y-95247166D01*
X145191138Y-95250000D01*
X144312500Y-95250000D01*
X143812500Y-95250000D01*
X143812500Y-95124000D01*
X143832185Y-95056961D01*
X143884989Y-95011206D01*
X143936500Y-95000000D01*
X144062500Y-95000000D01*
X144062500Y-94874000D01*
X144082185Y-94806961D01*
X144134989Y-94761206D01*
X144186500Y-94750000D01*
X144757500Y-94750000D01*
X144771181Y-94736319D01*
X144832504Y-94702834D01*
X144858862Y-94700000D01*
X145875000Y-94700000D01*
X145875000Y-94150000D01*
X145471850Y-94150000D01*
X145435010Y-94152899D01*
X145435004Y-94152900D01*
X145277306Y-94198716D01*
X145277305Y-94198716D01*
X145235315Y-94223549D01*
X145228318Y-94225323D01*
X145222830Y-94230006D01*
X145194908Y-94233799D01*
X145167591Y-94240730D01*
X145160747Y-94238441D01*
X145153597Y-94239413D01*
X145128053Y-94227507D01*
X145101329Y-94218570D01*
X145095260Y-94212222D01*
X145090268Y-94209896D01*
X145069483Y-94185262D01*
X145067363Y-94183045D01*
X144993820Y-94066635D01*
X144985962Y-94039087D01*
X144975245Y-94012521D01*
X144976500Y-94005912D01*
X144974656Y-93999445D01*
X144982938Y-93972026D01*
X144988286Y-93943879D01*
X144994239Y-93934615D01*
X144994860Y-93932560D01*
X144996409Y-93931238D01*
X145001384Y-93923497D01*
X145005211Y-93918657D01*
X145005212Y-93918656D01*
X145066824Y-93818765D01*
X145118770Y-93772042D01*
X145187733Y-93760819D01*
X145235481Y-93777129D01*
X145277102Y-93801744D01*
X145277104Y-93801744D01*
X145277105Y-93801745D01*
X145434926Y-93847597D01*
X145434929Y-93847597D01*
X145434931Y-93847598D01*
X145471806Y-93850500D01*
X146638000Y-93850500D01*
X146646685Y-93853050D01*
X146655647Y-93851762D01*
X146679687Y-93862740D01*
X146705039Y-93870185D01*
X146710966Y-93877025D01*
X146719203Y-93880787D01*
X146733492Y-93903021D01*
X146750794Y-93922989D01*
X146753081Y-93933503D01*
X146756977Y-93939565D01*
X146762000Y-93974500D01*
X146762000Y-94026000D01*
X146742315Y-94093039D01*
X146689511Y-94138794D01*
X146638000Y-94150000D01*
X146375000Y-94150000D01*
X146375000Y-94700000D01*
X147030685Y-94700000D01*
X147093806Y-94717268D01*
X147152102Y-94751744D01*
X147184670Y-94761206D01*
X147309926Y-94797597D01*
X147309929Y-94797597D01*
X147309931Y-94797598D01*
X147346806Y-94800500D01*
X147346814Y-94800500D01*
X148653186Y-94800500D01*
X148653194Y-94800500D01*
X148690069Y-94797598D01*
X148690071Y-94797597D01*
X148690073Y-94797597D01*
X148731691Y-94785505D01*
X148847898Y-94751744D01*
X148989365Y-94668081D01*
X148989370Y-94668076D01*
X148995628Y-94661819D01*
X149056951Y-94628334D01*
X149083309Y-94625500D01*
X150716697Y-94625500D01*
X150783736Y-94645185D01*
X150829491Y-94697989D01*
X150834627Y-94711179D01*
X150871932Y-94825992D01*
X150979157Y-95036433D01*
X151117983Y-95227510D01*
X151284990Y-95394517D01*
X151476067Y-95533343D01*
X151575491Y-95584002D01*
X151686503Y-95640566D01*
X151686505Y-95640566D01*
X151686508Y-95640568D01*
X151806912Y-95679689D01*
X151911131Y-95713553D01*
X152144403Y-95750500D01*
X152144408Y-95750500D01*
X152380597Y-95750500D01*
X152613868Y-95713553D01*
X152651825Y-95701220D01*
X152838492Y-95640568D01*
X153048933Y-95533343D01*
X153240010Y-95394517D01*
X153407017Y-95227510D01*
X153545843Y-95036433D01*
X153653068Y-94825992D01*
X153726053Y-94601368D01*
X153728276Y-94587331D01*
X153763000Y-94368097D01*
X153763000Y-94131902D01*
X153726053Y-93898631D01*
X153667388Y-93718081D01*
X153653068Y-93674008D01*
X153653066Y-93674005D01*
X153653066Y-93674003D01*
X153564416Y-93500019D01*
X153545843Y-93463567D01*
X153407017Y-93272490D01*
X153240010Y-93105483D01*
X153048933Y-92966657D01*
X152838496Y-92859433D01*
X152613868Y-92786446D01*
X152380597Y-92749500D01*
X152380592Y-92749500D01*
X152144408Y-92749500D01*
X152144403Y-92749500D01*
X151911131Y-92786446D01*
X151686503Y-92859433D01*
X151476066Y-92966657D01*
X151387522Y-93030989D01*
X151284990Y-93105483D01*
X151284988Y-93105485D01*
X151284987Y-93105485D01*
X151117984Y-93272488D01*
X151081005Y-93323386D01*
X151025674Y-93366051D01*
X150980687Y-93374500D01*
X149083309Y-93374500D01*
X149016270Y-93354815D01*
X148995628Y-93338181D01*
X148989370Y-93331923D01*
X148989362Y-93331917D01*
X148888872Y-93272488D01*
X148847898Y-93248256D01*
X148847897Y-93248255D01*
X148847896Y-93248255D01*
X148847893Y-93248254D01*
X148690073Y-93202402D01*
X148690067Y-93202401D01*
X148653201Y-93199500D01*
X148653194Y-93199500D01*
X147487000Y-93199500D01*
X147419961Y-93179815D01*
X147374206Y-93127011D01*
X147363000Y-93075500D01*
X147363000Y-92834313D01*
X147362999Y-92834298D01*
X147360826Y-92806688D01*
X147360098Y-92797431D01*
X147314244Y-92639602D01*
X147230581Y-92498135D01*
X147230579Y-92498133D01*
X147230576Y-92498129D01*
X147114370Y-92381923D01*
X147114362Y-92381917D01*
X146981469Y-92303325D01*
X146972898Y-92298256D01*
X146972897Y-92298255D01*
X146972896Y-92298255D01*
X146972893Y-92298254D01*
X146815073Y-92252402D01*
X146815067Y-92252401D01*
X146778201Y-92249500D01*
X146778194Y-92249500D01*
X145471806Y-92249500D01*
X145471798Y-92249500D01*
X145434932Y-92252401D01*
X145434926Y-92252402D01*
X145277106Y-92298254D01*
X145269946Y-92301353D01*
X145269337Y-92299946D01*
X145210202Y-92314947D01*
X145143941Y-92292785D01*
X145100180Y-92238317D01*
X145097441Y-92230940D01*
X145097315Y-92230670D01*
X145097314Y-92230666D01*
X145005212Y-92081344D01*
X144881156Y-91957288D01*
X144731834Y-91865186D01*
X144565297Y-91810001D01*
X144565295Y-91810000D01*
X144462510Y-91799500D01*
X143662498Y-91799500D01*
X143662480Y-91799501D01*
X143559703Y-91810000D01*
X143559700Y-91810001D01*
X143393168Y-91865185D01*
X143393163Y-91865187D01*
X143243842Y-91957289D01*
X143150181Y-92050951D01*
X143088858Y-92084436D01*
X143019166Y-92079452D01*
X142974819Y-92050951D01*
X142881157Y-91957289D01*
X142881156Y-91957288D01*
X142746902Y-91874480D01*
X142700179Y-91822533D01*
X142688000Y-91768942D01*
X142688000Y-89045823D01*
X142688000Y-89045821D01*
X142663963Y-88924975D01*
X142650152Y-88891634D01*
X142616812Y-88811141D01*
X142578985Y-88754531D01*
X142548358Y-88708694D01*
X142548356Y-88708691D01*
X142458137Y-88618472D01*
X142458106Y-88618443D01*
X138487455Y-84647792D01*
X138453970Y-84586469D01*
X138458954Y-84516777D01*
X138500826Y-84460844D01*
X138502151Y-84459865D01*
X138546928Y-84427334D01*
X138669414Y-84304848D01*
X138771232Y-84164708D01*
X138849873Y-84010365D01*
X138903402Y-83845621D01*
X138930500Y-83674531D01*
X138930500Y-83501309D01*
X138903402Y-83330219D01*
X138849873Y-83165475D01*
X138771232Y-83011132D01*
X138669414Y-82870992D01*
X138546928Y-82748506D01*
X138406788Y-82646688D01*
X138318028Y-82601463D01*
X138252447Y-82568048D01*
X138252446Y-82568047D01*
X138252445Y-82568047D01*
X138087701Y-82514518D01*
X138087699Y-82514517D01*
X138087698Y-82514517D01*
X137956271Y-82493701D01*
X137916611Y-82487420D01*
X136943389Y-82487420D01*
X136903728Y-82493701D01*
X136772302Y-82514517D01*
X136607552Y-82568048D01*
X136453211Y-82646688D01*
X136376114Y-82702703D01*
X136313072Y-82748506D01*
X136313070Y-82748508D01*
X136313069Y-82748508D01*
X136190588Y-82870989D01*
X136190588Y-82870990D01*
X136190586Y-82870992D01*
X136161957Y-82910396D01*
X136088768Y-83011131D01*
X136010128Y-83165472D01*
X135956597Y-83330222D01*
X135929500Y-83501309D01*
X135929500Y-83674530D01*
X135956597Y-83845617D01*
X136010129Y-84010370D01*
X136027369Y-84044206D01*
X136040265Y-84112875D01*
X136013988Y-84177615D01*
X135956882Y-84217872D01*
X135916884Y-84224500D01*
X134809539Y-84224500D01*
X134742500Y-84204815D01*
X134721858Y-84188181D01*
X128954986Y-78421309D01*
X135929500Y-78421309D01*
X135929500Y-78594531D01*
X135936334Y-78637679D01*
X135955605Y-78759356D01*
X135956598Y-78765621D01*
X136010127Y-78930365D01*
X136088768Y-79084708D01*
X136190586Y-79224848D01*
X136313072Y-79347334D01*
X136453212Y-79449152D01*
X136607555Y-79527793D01*
X136772299Y-79581322D01*
X136943389Y-79608420D01*
X136943390Y-79608420D01*
X137916610Y-79608420D01*
X137916611Y-79608420D01*
X138087701Y-79581322D01*
X138252445Y-79527793D01*
X138406788Y-79449152D01*
X138546928Y-79347334D01*
X138669414Y-79224848D01*
X138698705Y-79184533D01*
X138754035Y-79141868D01*
X138799022Y-79133420D01*
X139197468Y-79133420D01*
X139264507Y-79153105D01*
X139285149Y-79169739D01*
X142514139Y-82398729D01*
X142514142Y-82398733D01*
X142601267Y-82485858D01*
X142644160Y-82514518D01*
X142703715Y-82554312D01*
X142736875Y-82568047D01*
X142781547Y-82586551D01*
X142794289Y-82591829D01*
X142811345Y-82605574D01*
X142848690Y-82635669D01*
X142864537Y-82667377D01*
X142865182Y-82669325D01*
X142865187Y-82669336D01*
X142886392Y-82703714D01*
X142956608Y-82817554D01*
X142957289Y-82818657D01*
X143050951Y-82912319D01*
X143084436Y-82973642D01*
X143079452Y-83043334D01*
X143050951Y-83087681D01*
X142957289Y-83181342D01*
X142865187Y-83330663D01*
X142865185Y-83330668D01*
X142850661Y-83374500D01*
X142810001Y-83497203D01*
X142810001Y-83497204D01*
X142810000Y-83497204D01*
X142799500Y-83599983D01*
X142799500Y-84400001D01*
X142799501Y-84400019D01*
X142810000Y-84502796D01*
X142810001Y-84502799D01*
X142865185Y-84669331D01*
X142865187Y-84669336D01*
X142876958Y-84688420D01*
X142957288Y-84818656D01*
X143081344Y-84942712D01*
X143230666Y-85034814D01*
X143397203Y-85089999D01*
X143499991Y-85100500D01*
X144500008Y-85100499D01*
X144500016Y-85100498D01*
X144500019Y-85100498D01*
X144556302Y-85094748D01*
X144602797Y-85089999D01*
X144769334Y-85034814D01*
X144918656Y-84942712D01*
X145042712Y-84818656D01*
X145125519Y-84684402D01*
X145177467Y-84637679D01*
X145231058Y-84625500D01*
X145662770Y-84625500D01*
X145729809Y-84645185D01*
X145750451Y-84661819D01*
X145756344Y-84667712D01*
X145905666Y-84759814D01*
X146072203Y-84814999D01*
X146174991Y-84825500D01*
X147025008Y-84825499D01*
X147025016Y-84825498D01*
X147025019Y-84825498D01*
X147091997Y-84818656D01*
X147127797Y-84814999D01*
X147294334Y-84759814D01*
X147443656Y-84667712D01*
X147567712Y-84543656D01*
X147659814Y-84394334D01*
X147714999Y-84227797D01*
X147725500Y-84125009D01*
X147725500Y-84124986D01*
X148275001Y-84124986D01*
X148285494Y-84227697D01*
X148340641Y-84394119D01*
X148340643Y-84394124D01*
X148432684Y-84543345D01*
X148556654Y-84667315D01*
X148705875Y-84759356D01*
X148705880Y-84759358D01*
X148872302Y-84814505D01*
X148872309Y-84814506D01*
X148975019Y-84824999D01*
X149149999Y-84824999D01*
X149650000Y-84824999D01*
X149824972Y-84824999D01*
X149824986Y-84824998D01*
X149927697Y-84814505D01*
X150094119Y-84759358D01*
X150094124Y-84759356D01*
X150243345Y-84667315D01*
X150367315Y-84543345D01*
X150459356Y-84394124D01*
X150459358Y-84394119D01*
X150514505Y-84227697D01*
X150514506Y-84227690D01*
X150524999Y-84124986D01*
X150525000Y-84124973D01*
X150525000Y-83250000D01*
X149650000Y-83250000D01*
X149650000Y-84824999D01*
X149149999Y-84824999D01*
X149150000Y-84824998D01*
X149150000Y-83250000D01*
X148275001Y-83250000D01*
X148275001Y-84124986D01*
X147725500Y-84124986D01*
X147725499Y-83000000D01*
X147725499Y-81875013D01*
X148275000Y-81875013D01*
X148275000Y-82750000D01*
X149150000Y-82750000D01*
X149650000Y-82750000D01*
X150524999Y-82750000D01*
X150524999Y-81875028D01*
X150524998Y-81875013D01*
X150514505Y-81772302D01*
X150459358Y-81605880D01*
X150459356Y-81605875D01*
X150367315Y-81456654D01*
X150243345Y-81332684D01*
X150094124Y-81240643D01*
X150094119Y-81240641D01*
X149927697Y-81185494D01*
X149927690Y-81185493D01*
X149824986Y-81175000D01*
X149650000Y-81175000D01*
X149650000Y-82750000D01*
X149150000Y-82750000D01*
X149150000Y-81175000D01*
X148975029Y-81175000D01*
X148975012Y-81175001D01*
X148872302Y-81185494D01*
X148705880Y-81240641D01*
X148705875Y-81240643D01*
X148556654Y-81332684D01*
X148432684Y-81456654D01*
X148340643Y-81605875D01*
X148340641Y-81605880D01*
X148285494Y-81772302D01*
X148285493Y-81772309D01*
X148275000Y-81875013D01*
X147725499Y-81875013D01*
X147725499Y-81874998D01*
X147725498Y-81874981D01*
X147714999Y-81772203D01*
X147714998Y-81772200D01*
X147712562Y-81764848D01*
X147659814Y-81605666D01*
X147567712Y-81456344D01*
X147443656Y-81332288D01*
X147294334Y-81240186D01*
X147127797Y-81185001D01*
X147127795Y-81185000D01*
X147025010Y-81174500D01*
X146174998Y-81174500D01*
X146174980Y-81174501D01*
X146072203Y-81185000D01*
X146072200Y-81185001D01*
X145905668Y-81240185D01*
X145905663Y-81240187D01*
X145756342Y-81332289D01*
X145632289Y-81456342D01*
X145540187Y-81605663D01*
X145540185Y-81605668D01*
X145540115Y-81605880D01*
X145485001Y-81772203D01*
X145485001Y-81772204D01*
X145485000Y-81772204D01*
X145474500Y-81874983D01*
X145474500Y-83189546D01*
X145465856Y-83218982D01*
X145459333Y-83248972D01*
X145455577Y-83253989D01*
X145454815Y-83256585D01*
X145438182Y-83277227D01*
X145377229Y-83338181D01*
X145315906Y-83371666D01*
X145289547Y-83374500D01*
X145231058Y-83374500D01*
X145164019Y-83354815D01*
X145125519Y-83315597D01*
X145121708Y-83309418D01*
X145042712Y-83181344D01*
X144949049Y-83087681D01*
X144915564Y-83026358D01*
X144920548Y-82956666D01*
X144949049Y-82912319D01*
X144990379Y-82870989D01*
X145042712Y-82818656D01*
X145134814Y-82669334D01*
X145189999Y-82502797D01*
X145200500Y-82400009D01*
X145200499Y-81599992D01*
X145189999Y-81497203D01*
X145134814Y-81330666D01*
X145042712Y-81181344D01*
X144918656Y-81057288D01*
X144769334Y-80965186D01*
X144602797Y-80910001D01*
X144602795Y-80910000D01*
X144500010Y-80899500D01*
X143499998Y-80899500D01*
X143499980Y-80899501D01*
X143397203Y-80910000D01*
X143397200Y-80910001D01*
X143230668Y-80965185D01*
X143230659Y-80965189D01*
X143078531Y-81059022D01*
X143011139Y-81077462D01*
X142944475Y-81056539D01*
X142925754Y-81041164D01*
X140001070Y-78116480D01*
X139993780Y-78109190D01*
X139993778Y-78109187D01*
X139906653Y-78022062D01*
X139855429Y-77987835D01*
X139804206Y-77953608D01*
X139804203Y-77953606D01*
X139804200Y-77953605D01*
X139730523Y-77923088D01*
X139730521Y-77923087D01*
X139723712Y-77920267D01*
X139690372Y-77906457D01*
X139629949Y-77894438D01*
X139625226Y-77893498D01*
X139625224Y-77893498D01*
X139569530Y-77882420D01*
X139569527Y-77882420D01*
X139569526Y-77882420D01*
X138799022Y-77882420D01*
X138731983Y-77862735D01*
X138698705Y-77831307D01*
X138669414Y-77790992D01*
X138546930Y-77668508D01*
X138546928Y-77668506D01*
X138406788Y-77566688D01*
X138252445Y-77488047D01*
X138087701Y-77434518D01*
X138087699Y-77434517D01*
X138087698Y-77434517D01*
X137956271Y-77413701D01*
X137916611Y-77407420D01*
X136943389Y-77407420D01*
X136903728Y-77413701D01*
X136772302Y-77434517D01*
X136607552Y-77488048D01*
X136453211Y-77566688D01*
X136397149Y-77607420D01*
X136313072Y-77668506D01*
X136313070Y-77668508D01*
X136313069Y-77668508D01*
X136190588Y-77790989D01*
X136190588Y-77790990D01*
X136190586Y-77790992D01*
X136146859Y-77851176D01*
X136088768Y-77931131D01*
X136010128Y-78085472D01*
X135956597Y-78250222D01*
X135933806Y-78394119D01*
X135929500Y-78421309D01*
X128954986Y-78421309D01*
X126414986Y-75881309D01*
X135929500Y-75881309D01*
X135929500Y-76054531D01*
X135956598Y-76225621D01*
X136010127Y-76390365D01*
X136088768Y-76544708D01*
X136190586Y-76684848D01*
X136313072Y-76807334D01*
X136453212Y-76909152D01*
X136607555Y-76987793D01*
X136772299Y-77041322D01*
X136943389Y-77068420D01*
X136943390Y-77068420D01*
X137916610Y-77068420D01*
X137916611Y-77068420D01*
X138087701Y-77041322D01*
X138252445Y-76987793D01*
X138406788Y-76909152D01*
X138546928Y-76807334D01*
X138669414Y-76684848D01*
X138675397Y-76676612D01*
X138730728Y-76633948D01*
X138775714Y-76625500D01*
X142768942Y-76625500D01*
X142835981Y-76645185D01*
X142874479Y-76684401D01*
X142890219Y-76709919D01*
X142957289Y-76818657D01*
X143050951Y-76912319D01*
X143084436Y-76973642D01*
X143079452Y-77043334D01*
X143050951Y-77087681D01*
X142957289Y-77181342D01*
X142865187Y-77330663D01*
X142865185Y-77330668D01*
X142857184Y-77354815D01*
X142810001Y-77497203D01*
X142810001Y-77497204D01*
X142810000Y-77497204D01*
X142799500Y-77599983D01*
X142799500Y-78400001D01*
X142799501Y-78400019D01*
X142810000Y-78502796D01*
X142810001Y-78502799D01*
X142865185Y-78669331D01*
X142865187Y-78669336D01*
X142894862Y-78717447D01*
X142957288Y-78818656D01*
X143081344Y-78942712D01*
X143230666Y-79034814D01*
X143397203Y-79089999D01*
X143499991Y-79100500D01*
X144500008Y-79100499D01*
X144500016Y-79100498D01*
X144500019Y-79100498D01*
X144556302Y-79094748D01*
X144602797Y-79089999D01*
X144769334Y-79034814D01*
X144918656Y-78942712D01*
X145042712Y-78818656D01*
X145125519Y-78684402D01*
X145177467Y-78637679D01*
X145231058Y-78625500D01*
X145662770Y-78625500D01*
X145729809Y-78645185D01*
X145750451Y-78661819D01*
X145756344Y-78667712D01*
X145905666Y-78759814D01*
X146072203Y-78814999D01*
X146174991Y-78825500D01*
X147025008Y-78825499D01*
X147025016Y-78825498D01*
X147025019Y-78825498D01*
X147091997Y-78818656D01*
X147127797Y-78814999D01*
X147294334Y-78759814D01*
X147443656Y-78667712D01*
X147567712Y-78543656D01*
X147659814Y-78394334D01*
X147714999Y-78227797D01*
X147725500Y-78125009D01*
X147725500Y-78124986D01*
X148275001Y-78124986D01*
X148285494Y-78227697D01*
X148340641Y-78394119D01*
X148340643Y-78394124D01*
X148432684Y-78543345D01*
X148556654Y-78667315D01*
X148705875Y-78759356D01*
X148705880Y-78759358D01*
X148872302Y-78814505D01*
X148872309Y-78814506D01*
X148975019Y-78824999D01*
X149149999Y-78824999D01*
X149650000Y-78824999D01*
X149824972Y-78824999D01*
X149824986Y-78824998D01*
X149927697Y-78814505D01*
X150094119Y-78759358D01*
X150094124Y-78759356D01*
X150243345Y-78667315D01*
X150367315Y-78543345D01*
X150459356Y-78394124D01*
X150459358Y-78394119D01*
X150514505Y-78227697D01*
X150514506Y-78227690D01*
X150524999Y-78124986D01*
X150525000Y-78124973D01*
X150525000Y-77250000D01*
X149650000Y-77250000D01*
X149650000Y-78824999D01*
X149149999Y-78824999D01*
X149150000Y-78824998D01*
X149150000Y-77250000D01*
X148275001Y-77250000D01*
X148275001Y-78124986D01*
X147725500Y-78124986D01*
X147725499Y-77000000D01*
X147725499Y-75875013D01*
X148275000Y-75875013D01*
X148275000Y-76750000D01*
X149150000Y-76750000D01*
X149650000Y-76750000D01*
X150524999Y-76750000D01*
X150524999Y-75875028D01*
X150524998Y-75875013D01*
X150514505Y-75772302D01*
X150459358Y-75605880D01*
X150459356Y-75605875D01*
X150367315Y-75456654D01*
X150243345Y-75332684D01*
X150094124Y-75240643D01*
X150094119Y-75240641D01*
X149927697Y-75185494D01*
X149927690Y-75185493D01*
X149824986Y-75175000D01*
X149650000Y-75175000D01*
X149650000Y-76750000D01*
X149150000Y-76750000D01*
X149150000Y-75175000D01*
X148975029Y-75175000D01*
X148975012Y-75175001D01*
X148872302Y-75185494D01*
X148705880Y-75240641D01*
X148705875Y-75240643D01*
X148556654Y-75332684D01*
X148432684Y-75456654D01*
X148340643Y-75605875D01*
X148340641Y-75605880D01*
X148285494Y-75772302D01*
X148285493Y-75772309D01*
X148275000Y-75875013D01*
X147725499Y-75875013D01*
X147725499Y-75874998D01*
X147725498Y-75874981D01*
X147714999Y-75772203D01*
X147714998Y-75772200D01*
X147694459Y-75710219D01*
X147659814Y-75605666D01*
X147567712Y-75456344D01*
X147443656Y-75332288D01*
X147350888Y-75275069D01*
X147294336Y-75240187D01*
X147294331Y-75240185D01*
X147292862Y-75239698D01*
X147127797Y-75185001D01*
X147127795Y-75185000D01*
X147025010Y-75174500D01*
X146174998Y-75174500D01*
X146174980Y-75174501D01*
X146072203Y-75185000D01*
X146072200Y-75185001D01*
X145905668Y-75240185D01*
X145905663Y-75240187D01*
X145756342Y-75332289D01*
X145632289Y-75456342D01*
X145540187Y-75605663D01*
X145540185Y-75605668D01*
X145540115Y-75605880D01*
X145485001Y-75772203D01*
X145485001Y-75772204D01*
X145485000Y-75772204D01*
X145474500Y-75874983D01*
X145474500Y-77189546D01*
X145465856Y-77218982D01*
X145459333Y-77248972D01*
X145455577Y-77253989D01*
X145454815Y-77256585D01*
X145438182Y-77277227D01*
X145377229Y-77338181D01*
X145315906Y-77371666D01*
X145289547Y-77374500D01*
X145231058Y-77374500D01*
X145164019Y-77354815D01*
X145125519Y-77315597D01*
X145042712Y-77181344D01*
X144949049Y-77087681D01*
X144915564Y-77026358D01*
X144920548Y-76956666D01*
X144949049Y-76912319D01*
X144956912Y-76904456D01*
X145042712Y-76818656D01*
X145134814Y-76669334D01*
X145189999Y-76502797D01*
X145200500Y-76400009D01*
X145200499Y-75599992D01*
X145189999Y-75497203D01*
X145134814Y-75330666D01*
X145042712Y-75181344D01*
X144918656Y-75057288D01*
X144769334Y-74965186D01*
X144602797Y-74910001D01*
X144602795Y-74910000D01*
X144500010Y-74899500D01*
X143499998Y-74899500D01*
X143499980Y-74899501D01*
X143397203Y-74910000D01*
X143397200Y-74910001D01*
X143230668Y-74965185D01*
X143230663Y-74965187D01*
X143081342Y-75057289D01*
X142957289Y-75181342D01*
X142874481Y-75315597D01*
X142822533Y-75362321D01*
X142768942Y-75374500D01*
X138822329Y-75374500D01*
X138755290Y-75354815D01*
X138722011Y-75323386D01*
X138669414Y-75250992D01*
X138546928Y-75128506D01*
X138406788Y-75026688D01*
X138286084Y-74965187D01*
X138252447Y-74948048D01*
X138252446Y-74948047D01*
X138252445Y-74948047D01*
X138087701Y-74894518D01*
X138087699Y-74894517D01*
X138087698Y-74894517D01*
X137956271Y-74873701D01*
X137916611Y-74867420D01*
X136943389Y-74867420D01*
X136903728Y-74873701D01*
X136772302Y-74894517D01*
X136607552Y-74948048D01*
X136453211Y-75026688D01*
X136411093Y-75057289D01*
X136313072Y-75128506D01*
X136313070Y-75128508D01*
X136313069Y-75128508D01*
X136190588Y-75250989D01*
X136190588Y-75250990D01*
X136190586Y-75250992D01*
X136146859Y-75311176D01*
X136088768Y-75391131D01*
X136010128Y-75545472D01*
X135956597Y-75710222D01*
X135930500Y-75874998D01*
X135929500Y-75881309D01*
X126414986Y-75881309D01*
X123874986Y-73341309D01*
X135929500Y-73341309D01*
X135929500Y-73514531D01*
X135956598Y-73685621D01*
X136010127Y-73850365D01*
X136088768Y-74004708D01*
X136190586Y-74144848D01*
X136313072Y-74267334D01*
X136453212Y-74369152D01*
X136607555Y-74447793D01*
X136772299Y-74501322D01*
X136943389Y-74528420D01*
X136943390Y-74528420D01*
X137916610Y-74528420D01*
X137916611Y-74528420D01*
X138087701Y-74501322D01*
X138252445Y-74447793D01*
X138406788Y-74369152D01*
X138546928Y-74267334D01*
X138669414Y-74144848D01*
X138771232Y-74004708D01*
X138849873Y-73850365D01*
X138903402Y-73685621D01*
X138930500Y-73514531D01*
X138930500Y-73341309D01*
X138903402Y-73170219D01*
X138849873Y-73005475D01*
X138771232Y-72851132D01*
X138669414Y-72710992D01*
X138546928Y-72588506D01*
X138406788Y-72486688D01*
X138252445Y-72408047D01*
X138087701Y-72354518D01*
X138087699Y-72354517D01*
X138087698Y-72354517D01*
X137956271Y-72333701D01*
X137916611Y-72327420D01*
X136943389Y-72327420D01*
X136903728Y-72333701D01*
X136772302Y-72354517D01*
X136607552Y-72408048D01*
X136453211Y-72486688D01*
X136375231Y-72543345D01*
X136313072Y-72588506D01*
X136313070Y-72588508D01*
X136313069Y-72588508D01*
X136190588Y-72710989D01*
X136190588Y-72710990D01*
X136190586Y-72710992D01*
X136155447Y-72759356D01*
X136088768Y-72851131D01*
X136010128Y-73005472D01*
X135956597Y-73170222D01*
X135929500Y-73341309D01*
X123874986Y-73341309D01*
X117098356Y-66564679D01*
X117064871Y-66503356D01*
X117062037Y-66476998D01*
X117062037Y-65191856D01*
X117062036Y-65191852D01*
X117041974Y-65090990D01*
X117038000Y-65071011D01*
X116999557Y-64978202D01*
X116990849Y-64957179D01*
X116990844Y-64957170D01*
X116922396Y-64854731D01*
X116922395Y-64854730D01*
X116835270Y-64767605D01*
X116835269Y-64767604D01*
X116172763Y-64105099D01*
X116139279Y-64043778D01*
X116144263Y-63974087D01*
X116186134Y-63918153D01*
X116251599Y-63893736D01*
X116260445Y-63893420D01*
X118677468Y-63893420D01*
X118744507Y-63913105D01*
X118765149Y-63929739D01*
X125234139Y-70398729D01*
X125234142Y-70398733D01*
X125321267Y-70485858D01*
X125389342Y-70531344D01*
X125423715Y-70554312D01*
X125490397Y-70581932D01*
X125537548Y-70601463D01*
X125597971Y-70613481D01*
X125658393Y-70625500D01*
X125658394Y-70625500D01*
X135812161Y-70625500D01*
X135879200Y-70645185D01*
X135924955Y-70697989D01*
X135934899Y-70767147D01*
X135934650Y-70768792D01*
X135929500Y-70801309D01*
X135929500Y-70974531D01*
X135956598Y-71145621D01*
X136010127Y-71310365D01*
X136088768Y-71464708D01*
X136190586Y-71604848D01*
X136313072Y-71727334D01*
X136453212Y-71829152D01*
X136607555Y-71907793D01*
X136772299Y-71961322D01*
X136943389Y-71988420D01*
X136943390Y-71988420D01*
X137916610Y-71988420D01*
X137916611Y-71988420D01*
X138087701Y-71961322D01*
X138252445Y-71907793D01*
X138406788Y-71829152D01*
X138546928Y-71727334D01*
X138669414Y-71604848D01*
X138771232Y-71464708D01*
X138849873Y-71310365D01*
X138903402Y-71145621D01*
X138930500Y-70974531D01*
X138930500Y-70801309D01*
X138925366Y-70768896D01*
X138934320Y-70699606D01*
X138979316Y-70646153D01*
X139046067Y-70625513D01*
X139047839Y-70625500D01*
X142768942Y-70625500D01*
X142835981Y-70645185D01*
X142874479Y-70684401D01*
X142957288Y-70818656D01*
X142957289Y-70818657D01*
X143050951Y-70912319D01*
X143084436Y-70973642D01*
X143079452Y-71043334D01*
X143050951Y-71087681D01*
X142957289Y-71181342D01*
X142865187Y-71330663D01*
X142865185Y-71330668D01*
X142857184Y-71354815D01*
X142810001Y-71497203D01*
X142810001Y-71497204D01*
X142810000Y-71497204D01*
X142799500Y-71599983D01*
X142799500Y-72400001D01*
X142799501Y-72400019D01*
X142810000Y-72502796D01*
X142810001Y-72502799D01*
X142865185Y-72669331D01*
X142865187Y-72669336D01*
X142890879Y-72710989D01*
X142957288Y-72818656D01*
X143081344Y-72942712D01*
X143230666Y-73034814D01*
X143397203Y-73089999D01*
X143499991Y-73100500D01*
X144500008Y-73100499D01*
X144500016Y-73100498D01*
X144500019Y-73100498D01*
X144556302Y-73094748D01*
X144602797Y-73089999D01*
X144769334Y-73034814D01*
X144918656Y-72942712D01*
X145042712Y-72818656D01*
X145125519Y-72684402D01*
X145177467Y-72637679D01*
X145231058Y-72625500D01*
X145662770Y-72625500D01*
X145729809Y-72645185D01*
X145750451Y-72661819D01*
X145756344Y-72667712D01*
X145905666Y-72759814D01*
X146072203Y-72814999D01*
X146174991Y-72825500D01*
X147025008Y-72825499D01*
X147025016Y-72825498D01*
X147025019Y-72825498D01*
X147091997Y-72818656D01*
X147127797Y-72814999D01*
X147294334Y-72759814D01*
X147443656Y-72667712D01*
X147567712Y-72543656D01*
X147659814Y-72394334D01*
X147714999Y-72227797D01*
X147725500Y-72125009D01*
X147725500Y-72124986D01*
X148275001Y-72124986D01*
X148285494Y-72227697D01*
X148340641Y-72394119D01*
X148340643Y-72394124D01*
X148432684Y-72543345D01*
X148556654Y-72667315D01*
X148705875Y-72759356D01*
X148705880Y-72759358D01*
X148872302Y-72814505D01*
X148872309Y-72814506D01*
X148975019Y-72824999D01*
X149149999Y-72824999D01*
X149650000Y-72824999D01*
X149824972Y-72824999D01*
X149824986Y-72824998D01*
X149927697Y-72814505D01*
X150094119Y-72759358D01*
X150094124Y-72759356D01*
X150243345Y-72667315D01*
X150367315Y-72543345D01*
X150459356Y-72394124D01*
X150459358Y-72394119D01*
X150514505Y-72227697D01*
X150514506Y-72227690D01*
X150524999Y-72124986D01*
X150525000Y-72124973D01*
X150525000Y-71250000D01*
X149650000Y-71250000D01*
X149650000Y-72824999D01*
X149149999Y-72824999D01*
X149150000Y-72824998D01*
X149150000Y-71250000D01*
X148275001Y-71250000D01*
X148275001Y-72124986D01*
X147725500Y-72124986D01*
X147725499Y-71000000D01*
X147725499Y-69875013D01*
X148275000Y-69875013D01*
X148275000Y-70750000D01*
X149150000Y-70750000D01*
X149650000Y-70750000D01*
X150524999Y-70750000D01*
X150524999Y-69875028D01*
X150524998Y-69875013D01*
X150514505Y-69772302D01*
X150459358Y-69605880D01*
X150459356Y-69605875D01*
X150367315Y-69456654D01*
X150243345Y-69332684D01*
X150094124Y-69240643D01*
X150094119Y-69240641D01*
X149927697Y-69185494D01*
X149927690Y-69185493D01*
X149824986Y-69175000D01*
X149650000Y-69175000D01*
X149650000Y-70750000D01*
X149150000Y-70750000D01*
X149150000Y-69175000D01*
X148975029Y-69175000D01*
X148975012Y-69175001D01*
X148872302Y-69185494D01*
X148705880Y-69240641D01*
X148705875Y-69240643D01*
X148556654Y-69332684D01*
X148432684Y-69456654D01*
X148340643Y-69605875D01*
X148340641Y-69605880D01*
X148285494Y-69772302D01*
X148285493Y-69772309D01*
X148275000Y-69875013D01*
X147725499Y-69875013D01*
X147725499Y-69874998D01*
X147725498Y-69874981D01*
X147714999Y-69772203D01*
X147714998Y-69772200D01*
X147659814Y-69605666D01*
X147567712Y-69456344D01*
X147443656Y-69332288D01*
X147294334Y-69240186D01*
X147127797Y-69185001D01*
X147127795Y-69185000D01*
X147025010Y-69174500D01*
X146174998Y-69174500D01*
X146174980Y-69174501D01*
X146072203Y-69185000D01*
X146072200Y-69185001D01*
X145905668Y-69240185D01*
X145905663Y-69240187D01*
X145756342Y-69332289D01*
X145632289Y-69456342D01*
X145540187Y-69605663D01*
X145540185Y-69605668D01*
X145540115Y-69605880D01*
X145485001Y-69772203D01*
X145485001Y-69772204D01*
X145485000Y-69772204D01*
X145474500Y-69874983D01*
X145474500Y-71189546D01*
X145465856Y-71218982D01*
X145459333Y-71248972D01*
X145455577Y-71253989D01*
X145454815Y-71256585D01*
X145438182Y-71277227D01*
X145377229Y-71338181D01*
X145315906Y-71371666D01*
X145289547Y-71374500D01*
X145231058Y-71374500D01*
X145164019Y-71354815D01*
X145125519Y-71315597D01*
X145042712Y-71181344D01*
X144949049Y-71087681D01*
X144915564Y-71026358D01*
X144920548Y-70956666D01*
X144949049Y-70912319D01*
X145042712Y-70818656D01*
X145134814Y-70669334D01*
X145189999Y-70502797D01*
X145200500Y-70400009D01*
X145200499Y-69599992D01*
X145189999Y-69497203D01*
X145134814Y-69330666D01*
X145042712Y-69181344D01*
X144918656Y-69057288D01*
X144769334Y-68965186D01*
X144602797Y-68910001D01*
X144602795Y-68910000D01*
X144500010Y-68899500D01*
X143499998Y-68899500D01*
X143499980Y-68899501D01*
X143397203Y-68910000D01*
X143397200Y-68910001D01*
X143230668Y-68965185D01*
X143230663Y-68965187D01*
X143081342Y-69057289D01*
X142957289Y-69181342D01*
X142957288Y-69181344D01*
X142882861Y-69302011D01*
X142874481Y-69315597D01*
X142822533Y-69362321D01*
X142768942Y-69374500D01*
X138659124Y-69374500D01*
X138592085Y-69354815D01*
X138546330Y-69302011D01*
X138536386Y-69232853D01*
X138565411Y-69169297D01*
X138571443Y-69162819D01*
X138669414Y-69064848D01*
X138771232Y-68924708D01*
X138849873Y-68770365D01*
X138903402Y-68605621D01*
X138930500Y-68434531D01*
X138930500Y-68261309D01*
X138903402Y-68090219D01*
X138849873Y-67925475D01*
X138771232Y-67771132D01*
X138669414Y-67630992D01*
X138546928Y-67508506D01*
X138406788Y-67406688D01*
X138252445Y-67328047D01*
X138087701Y-67274518D01*
X138087699Y-67274517D01*
X138087698Y-67274517D01*
X137956271Y-67253701D01*
X137916611Y-67247420D01*
X136943389Y-67247420D01*
X136903728Y-67253701D01*
X136772302Y-67274517D01*
X136607552Y-67328048D01*
X136453211Y-67406688D01*
X136373256Y-67464779D01*
X136313072Y-67508506D01*
X136313070Y-67508508D01*
X136313069Y-67508508D01*
X136190588Y-67630989D01*
X136190588Y-67630990D01*
X136190586Y-67630992D01*
X136146859Y-67691176D01*
X136088768Y-67771131D01*
X136010128Y-67925472D01*
X135956597Y-68090222D01*
X135929500Y-68261309D01*
X135929500Y-68434531D01*
X135956598Y-68605621D01*
X136010127Y-68770365D01*
X136088768Y-68924708D01*
X136190586Y-69064848D01*
X136190588Y-69064850D01*
X136288557Y-69162819D01*
X136322042Y-69224142D01*
X136317058Y-69293834D01*
X136275186Y-69349767D01*
X136209722Y-69374184D01*
X136200876Y-69374500D01*
X126030452Y-69374500D01*
X125963413Y-69354815D01*
X125942771Y-69338181D01*
X122325899Y-65721309D01*
X135929500Y-65721309D01*
X135929500Y-65894531D01*
X135956598Y-66065621D01*
X136010127Y-66230365D01*
X136088768Y-66384708D01*
X136190586Y-66524848D01*
X136313072Y-66647334D01*
X136453212Y-66749152D01*
X136607555Y-66827793D01*
X136772299Y-66881322D01*
X136943389Y-66908420D01*
X136943390Y-66908420D01*
X137916610Y-66908420D01*
X137916611Y-66908420D01*
X138087701Y-66881322D01*
X138252445Y-66827793D01*
X138406788Y-66749152D01*
X138546928Y-66647334D01*
X138669414Y-66524848D01*
X138771232Y-66384708D01*
X138849873Y-66230365D01*
X138903402Y-66065621D01*
X138930500Y-65894531D01*
X138930500Y-65721309D01*
X138903402Y-65550219D01*
X138849873Y-65385475D01*
X138771232Y-65231132D01*
X138669414Y-65090992D01*
X138546928Y-64968506D01*
X138406788Y-64866688D01*
X138252445Y-64788047D01*
X138087701Y-64734518D01*
X138087699Y-64734517D01*
X138087698Y-64734517D01*
X137956271Y-64713701D01*
X137916611Y-64707420D01*
X136943389Y-64707420D01*
X136903728Y-64713701D01*
X136772302Y-64734517D01*
X136607552Y-64788048D01*
X136453211Y-64866688D01*
X136373256Y-64924779D01*
X136313072Y-64968506D01*
X136313070Y-64968508D01*
X136313069Y-64968508D01*
X136190588Y-65090989D01*
X136190588Y-65090990D01*
X136190586Y-65090992D01*
X136146859Y-65151176D01*
X136088768Y-65231131D01*
X136010128Y-65385472D01*
X135956597Y-65550222D01*
X135929500Y-65721309D01*
X122325899Y-65721309D01*
X119785899Y-63181309D01*
X135929500Y-63181309D01*
X135929500Y-63354531D01*
X135956598Y-63525621D01*
X136010127Y-63690365D01*
X136088768Y-63844708D01*
X136190586Y-63984848D01*
X136313072Y-64107334D01*
X136453212Y-64209152D01*
X136607555Y-64287793D01*
X136772299Y-64341322D01*
X136943389Y-64368420D01*
X136943390Y-64368420D01*
X137916610Y-64368420D01*
X137916611Y-64368420D01*
X138087701Y-64341322D01*
X138252445Y-64287793D01*
X138406788Y-64209152D01*
X138546928Y-64107334D01*
X138669414Y-63984848D01*
X138771232Y-63844708D01*
X138849873Y-63690365D01*
X138903402Y-63525621D01*
X138930500Y-63354531D01*
X138930500Y-63181309D01*
X138903402Y-63010219D01*
X138849873Y-62845475D01*
X138771232Y-62691132D01*
X138669414Y-62550992D01*
X138546928Y-62428506D01*
X138406788Y-62326688D01*
X138252445Y-62248047D01*
X138087701Y-62194518D01*
X138087699Y-62194517D01*
X138087698Y-62194517D01*
X137956271Y-62173701D01*
X137916611Y-62167420D01*
X136943389Y-62167420D01*
X136903728Y-62173701D01*
X136772302Y-62194517D01*
X136607552Y-62248048D01*
X136453211Y-62326688D01*
X136373256Y-62384779D01*
X136313072Y-62428506D01*
X136313070Y-62428508D01*
X136313069Y-62428508D01*
X136190588Y-62550989D01*
X136190588Y-62550990D01*
X136190586Y-62550992D01*
X136146859Y-62611176D01*
X136088768Y-62691131D01*
X136010128Y-62845472D01*
X135956597Y-63010222D01*
X135929500Y-63181309D01*
X119785899Y-63181309D01*
X119481070Y-62876480D01*
X119473780Y-62869190D01*
X119473778Y-62869187D01*
X119386653Y-62782062D01*
X119335429Y-62747835D01*
X119284206Y-62713608D01*
X119284203Y-62713606D01*
X119284200Y-62713605D01*
X119210523Y-62683088D01*
X119210521Y-62683087D01*
X119203712Y-62680267D01*
X119170372Y-62666457D01*
X119109949Y-62654438D01*
X119105226Y-62653498D01*
X119105224Y-62653498D01*
X119049530Y-62642420D01*
X119049527Y-62642420D01*
X119049526Y-62642420D01*
X115939022Y-62642420D01*
X115871983Y-62622735D01*
X115838705Y-62591307D01*
X115809414Y-62550992D01*
X115686930Y-62428508D01*
X115686928Y-62428506D01*
X115546788Y-62326688D01*
X115392445Y-62248047D01*
X115227701Y-62194518D01*
X115227699Y-62194517D01*
X115227698Y-62194517D01*
X115096271Y-62173701D01*
X115056611Y-62167420D01*
X114314452Y-62167420D01*
X114293206Y-62161181D01*
X114271118Y-62159602D01*
X114260334Y-62151529D01*
X114247413Y-62147735D01*
X114232913Y-62131001D01*
X114215185Y-62117730D01*
X114210477Y-62105109D01*
X114201658Y-62094931D01*
X114198506Y-62073013D01*
X114190768Y-62052266D01*
X114193630Y-62039105D01*
X114191714Y-62025773D01*
X114200913Y-62005629D01*
X114205620Y-61983993D01*
X114218888Y-61966267D01*
X114220739Y-61962217D01*
X114226771Y-61955739D01*
X114317771Y-61864739D01*
X114379094Y-61831254D01*
X114405452Y-61828420D01*
X115056610Y-61828420D01*
X115056611Y-61828420D01*
X115227701Y-61801322D01*
X115392445Y-61747793D01*
X115546788Y-61669152D01*
X115686928Y-61567334D01*
X115809414Y-61444848D01*
X115911232Y-61304708D01*
X115989873Y-61150365D01*
X116043402Y-60985621D01*
X116070500Y-60814531D01*
X116070500Y-60641309D01*
X135929500Y-60641309D01*
X135929500Y-60814530D01*
X135952012Y-60956670D01*
X135956598Y-60985621D01*
X136010127Y-61150365D01*
X136088768Y-61304708D01*
X136190586Y-61444848D01*
X136313072Y-61567334D01*
X136453212Y-61669152D01*
X136607555Y-61747793D01*
X136772299Y-61801322D01*
X136943389Y-61828420D01*
X136943390Y-61828420D01*
X137916610Y-61828420D01*
X137916611Y-61828420D01*
X138087701Y-61801322D01*
X138252445Y-61747793D01*
X138406788Y-61669152D01*
X138546928Y-61567334D01*
X138669414Y-61444848D01*
X138771232Y-61304708D01*
X138849873Y-61150365D01*
X138903402Y-60985621D01*
X138930500Y-60814531D01*
X138930500Y-60641309D01*
X138903402Y-60470219D01*
X138849873Y-60305475D01*
X138771232Y-60151132D01*
X138669414Y-60010992D01*
X138546928Y-59888506D01*
X138406788Y-59786688D01*
X138406787Y-59786687D01*
X138252447Y-59708048D01*
X138252446Y-59708047D01*
X138252445Y-59708047D01*
X138182308Y-59685258D01*
X154249500Y-59685258D01*
X154249500Y-59914741D01*
X154274446Y-60104215D01*
X154279452Y-60142238D01*
X154323190Y-60305472D01*
X154338842Y-60363887D01*
X154426650Y-60575876D01*
X154426657Y-60575890D01*
X154541392Y-60774617D01*
X154681081Y-60956661D01*
X154681089Y-60956670D01*
X154843330Y-61118911D01*
X154843338Y-61118918D01*
X155025382Y-61258607D01*
X155025385Y-61258608D01*
X155025388Y-61258611D01*
X155224112Y-61373344D01*
X155224117Y-61373346D01*
X155224123Y-61373349D01*
X155315480Y-61411190D01*
X155436113Y-61461158D01*
X155657762Y-61520548D01*
X155885266Y-61550500D01*
X155885273Y-61550500D01*
X156114727Y-61550500D01*
X156114734Y-61550500D01*
X156342238Y-61520548D01*
X156563887Y-61461158D01*
X156775888Y-61373344D01*
X156974612Y-61258611D01*
X157156661Y-61118919D01*
X157156665Y-61118914D01*
X157156670Y-61118911D01*
X157318911Y-60956670D01*
X157318914Y-60956665D01*
X157318919Y-60956661D01*
X157458611Y-60774612D01*
X157573344Y-60575888D01*
X157661158Y-60363887D01*
X157720548Y-60142238D01*
X157750500Y-59914734D01*
X157750500Y-59685266D01*
X157720548Y-59457762D01*
X157661158Y-59236113D01*
X157574679Y-59027334D01*
X157573349Y-59024123D01*
X157573346Y-59024117D01*
X157573344Y-59024112D01*
X157458611Y-58825388D01*
X157458608Y-58825385D01*
X157458607Y-58825382D01*
X157318918Y-58643338D01*
X157318911Y-58643330D01*
X157156670Y-58481089D01*
X157156661Y-58481081D01*
X156974617Y-58341392D01*
X156775890Y-58226657D01*
X156775876Y-58226650D01*
X156563887Y-58138842D01*
X156342238Y-58079452D01*
X156304215Y-58074446D01*
X156114741Y-58049500D01*
X156114734Y-58049500D01*
X155885266Y-58049500D01*
X155885258Y-58049500D01*
X155668715Y-58078009D01*
X155657762Y-58079452D01*
X155576190Y-58101309D01*
X155436112Y-58138842D01*
X155224123Y-58226650D01*
X155224109Y-58226657D01*
X155025382Y-58341392D01*
X154843338Y-58481081D01*
X154681081Y-58643338D01*
X154541392Y-58825382D01*
X154426657Y-59024109D01*
X154426650Y-59024123D01*
X154338842Y-59236112D01*
X154304554Y-59364076D01*
X154285253Y-59436114D01*
X154279453Y-59457759D01*
X154279451Y-59457770D01*
X154249500Y-59685258D01*
X138182308Y-59685258D01*
X138087701Y-59654518D01*
X138087699Y-59654517D01*
X138087698Y-59654517D01*
X137949291Y-59632596D01*
X137916611Y-59627420D01*
X136943389Y-59627420D01*
X136910709Y-59632596D01*
X136772302Y-59654517D01*
X136607552Y-59708048D01*
X136453211Y-59786688D01*
X136373256Y-59844779D01*
X136313072Y-59888506D01*
X136313070Y-59888508D01*
X136313069Y-59888508D01*
X136190588Y-60010989D01*
X136190588Y-60010990D01*
X136190586Y-60010992D01*
X136146859Y-60071176D01*
X136088768Y-60151131D01*
X136010128Y-60305472D01*
X135956597Y-60470222D01*
X135929500Y-60641309D01*
X116070500Y-60641309D01*
X116043402Y-60470219D01*
X115989873Y-60305475D01*
X115911232Y-60151132D01*
X115809414Y-60010992D01*
X115686928Y-59888506D01*
X115546788Y-59786688D01*
X115392445Y-59708047D01*
X115227701Y-59654518D01*
X115227699Y-59654517D01*
X115227698Y-59654517D01*
X115089291Y-59632596D01*
X115056611Y-59627420D01*
X114083389Y-59627420D01*
X114050709Y-59632596D01*
X113912302Y-59654517D01*
X113747549Y-59708049D01*
X113678794Y-59743081D01*
X113610125Y-59755977D01*
X113545384Y-59729700D01*
X113505128Y-59672593D01*
X113498500Y-59632596D01*
X113498500Y-59283243D01*
X113518185Y-59216204D01*
X113570989Y-59170449D01*
X113640147Y-59160505D01*
X113678793Y-59172757D01*
X113747555Y-59207793D01*
X113912299Y-59261322D01*
X114083389Y-59288420D01*
X114083390Y-59288420D01*
X115056610Y-59288420D01*
X115056611Y-59288420D01*
X115227701Y-59261322D01*
X115392445Y-59207793D01*
X115546788Y-59129152D01*
X115686928Y-59027334D01*
X115809414Y-58904848D01*
X115911232Y-58764708D01*
X115989873Y-58610365D01*
X116043402Y-58445621D01*
X116070500Y-58274531D01*
X116070500Y-58101309D01*
X135929500Y-58101309D01*
X135929500Y-58274531D01*
X135956598Y-58445621D01*
X136010127Y-58610365D01*
X136088768Y-58764708D01*
X136190586Y-58904848D01*
X136313072Y-59027334D01*
X136453212Y-59129152D01*
X136607555Y-59207793D01*
X136772299Y-59261322D01*
X136943389Y-59288420D01*
X136943390Y-59288420D01*
X137916610Y-59288420D01*
X137916611Y-59288420D01*
X138087701Y-59261322D01*
X138252445Y-59207793D01*
X138406788Y-59129152D01*
X138546928Y-59027334D01*
X138669414Y-58904848D01*
X138771232Y-58764708D01*
X138849873Y-58610365D01*
X138903402Y-58445621D01*
X138930500Y-58274531D01*
X138930500Y-58101309D01*
X138903402Y-57930219D01*
X138849873Y-57765475D01*
X138771232Y-57611132D01*
X138669414Y-57470992D01*
X138546928Y-57348506D01*
X138406788Y-57246688D01*
X138252445Y-57168047D01*
X138087701Y-57114518D01*
X138087699Y-57114517D01*
X138087698Y-57114517D01*
X137942308Y-57091490D01*
X137916611Y-57087420D01*
X136943389Y-57087420D01*
X136917692Y-57091490D01*
X136772302Y-57114517D01*
X136607552Y-57168048D01*
X136453211Y-57246688D01*
X136373256Y-57304779D01*
X136313072Y-57348506D01*
X136313070Y-57348508D01*
X136313069Y-57348508D01*
X136190588Y-57470989D01*
X136190588Y-57470990D01*
X136190586Y-57470992D01*
X136149740Y-57527212D01*
X136088768Y-57611131D01*
X136010128Y-57765472D01*
X135956597Y-57930222D01*
X135937706Y-58049500D01*
X135929500Y-58101309D01*
X116070500Y-58101309D01*
X116043402Y-57930219D01*
X115989873Y-57765475D01*
X115911232Y-57611132D01*
X115809414Y-57470992D01*
X115686928Y-57348506D01*
X115546788Y-57246688D01*
X115392445Y-57168047D01*
X115227701Y-57114518D01*
X115227699Y-57114517D01*
X115227698Y-57114517D01*
X115082308Y-57091490D01*
X115056611Y-57087420D01*
X115056610Y-57087420D01*
X114844783Y-57087420D01*
X114823537Y-57081181D01*
X114801449Y-57079602D01*
X114790665Y-57071529D01*
X114777744Y-57067735D01*
X114763244Y-57051001D01*
X114745516Y-57037730D01*
X114740808Y-57025109D01*
X114731989Y-57014931D01*
X114728837Y-56993013D01*
X114721099Y-56972266D01*
X114723961Y-56959105D01*
X114722045Y-56945773D01*
X114731244Y-56925629D01*
X114735951Y-56903993D01*
X114749219Y-56886267D01*
X114751070Y-56882217D01*
X114757102Y-56875739D01*
X114848102Y-56784739D01*
X114909425Y-56751254D01*
X114935783Y-56748420D01*
X115056610Y-56748420D01*
X115056611Y-56748420D01*
X115227701Y-56721322D01*
X115392445Y-56667793D01*
X115546788Y-56589152D01*
X115686928Y-56487334D01*
X115809414Y-56364848D01*
X115911232Y-56224708D01*
X115989873Y-56070365D01*
X116043402Y-55905621D01*
X116070500Y-55734531D01*
X116070500Y-55561309D01*
X135929500Y-55561309D01*
X135929500Y-55734531D01*
X135956598Y-55905621D01*
X136010127Y-56070365D01*
X136088768Y-56224708D01*
X136190586Y-56364848D01*
X136313072Y-56487334D01*
X136453212Y-56589152D01*
X136607555Y-56667793D01*
X136772299Y-56721322D01*
X136943389Y-56748420D01*
X136943390Y-56748420D01*
X137916610Y-56748420D01*
X137916611Y-56748420D01*
X138087701Y-56721322D01*
X138252445Y-56667793D01*
X138406788Y-56589152D01*
X138546928Y-56487334D01*
X138669414Y-56364848D01*
X138771232Y-56224708D01*
X138849873Y-56070365D01*
X138903402Y-55905621D01*
X138930500Y-55734531D01*
X138930500Y-55561309D01*
X138903402Y-55390219D01*
X138849873Y-55225475D01*
X138771232Y-55071132D01*
X138669414Y-54930992D01*
X138546928Y-54808506D01*
X138406788Y-54706688D01*
X138252445Y-54628047D01*
X138087701Y-54574518D01*
X138087699Y-54574517D01*
X138087698Y-54574517D01*
X137956271Y-54553701D01*
X137916611Y-54547420D01*
X136943389Y-54547420D01*
X136903728Y-54553701D01*
X136772302Y-54574517D01*
X136607552Y-54628048D01*
X136453211Y-54706688D01*
X136378388Y-54761051D01*
X136313072Y-54808506D01*
X136313070Y-54808508D01*
X136313069Y-54808508D01*
X136190588Y-54930989D01*
X136190588Y-54930990D01*
X136190586Y-54930992D01*
X136146859Y-54991176D01*
X136088768Y-55071131D01*
X136010128Y-55225472D01*
X135956597Y-55390222D01*
X135929500Y-55561309D01*
X116070500Y-55561309D01*
X116043402Y-55390219D01*
X115989873Y-55225475D01*
X115911232Y-55071132D01*
X115809414Y-54930992D01*
X115686928Y-54808506D01*
X115621613Y-54761051D01*
X115578948Y-54705721D01*
X115570500Y-54660734D01*
X115570500Y-54324896D01*
X115590185Y-54257857D01*
X115642989Y-54212102D01*
X115670135Y-54204656D01*
X115669932Y-54203796D01*
X115677479Y-54202012D01*
X115677481Y-54202011D01*
X115677483Y-54202011D01*
X115812331Y-54151716D01*
X115927546Y-54065466D01*
X116013796Y-53950251D01*
X116064091Y-53815403D01*
X116070500Y-53755793D01*
X116070499Y-52857919D01*
X135955884Y-52857919D01*
X135955885Y-52857920D01*
X137114314Y-52857920D01*
X137109920Y-52862314D01*
X137057259Y-52953526D01*
X137030000Y-53055259D01*
X137030000Y-53160581D01*
X137057259Y-53262314D01*
X137109920Y-53353526D01*
X137114314Y-53357920D01*
X135955885Y-53357920D01*
X135957085Y-53365504D01*
X136010591Y-53530175D01*
X136089195Y-53684444D01*
X136190967Y-53824522D01*
X136313397Y-53946952D01*
X136453475Y-54048724D01*
X136607742Y-54127328D01*
X136772415Y-54180834D01*
X136943429Y-54207920D01*
X137180000Y-54207920D01*
X137180000Y-53423606D01*
X137184394Y-53428000D01*
X137275606Y-53480661D01*
X137377339Y-53507920D01*
X137482661Y-53507920D01*
X137584394Y-53480661D01*
X137675606Y-53428000D01*
X137680000Y-53423606D01*
X137680000Y-54207920D01*
X137916571Y-54207920D01*
X138087584Y-54180834D01*
X138252257Y-54127328D01*
X138406524Y-54048724D01*
X138546602Y-53946952D01*
X138669032Y-53824522D01*
X138770804Y-53684444D01*
X138849408Y-53530175D01*
X138902914Y-53365504D01*
X138904115Y-53357920D01*
X137745686Y-53357920D01*
X137750080Y-53353526D01*
X137802741Y-53262314D01*
X137830000Y-53160581D01*
X137830000Y-53055259D01*
X137802741Y-52953526D01*
X137750080Y-52862314D01*
X137745686Y-52857920D01*
X138904115Y-52857920D01*
X138904115Y-52857919D01*
X138902914Y-52850335D01*
X138849408Y-52685664D01*
X138770804Y-52531395D01*
X138669032Y-52391317D01*
X138546602Y-52268887D01*
X138406524Y-52167115D01*
X138252257Y-52088511D01*
X138087584Y-52035005D01*
X137916571Y-52007920D01*
X137680000Y-52007920D01*
X137680000Y-52792234D01*
X137675606Y-52787840D01*
X137584394Y-52735179D01*
X137482661Y-52707920D01*
X137377339Y-52707920D01*
X137275606Y-52735179D01*
X137184394Y-52787840D01*
X137180000Y-52792234D01*
X137180000Y-52007920D01*
X136943429Y-52007920D01*
X136772415Y-52035005D01*
X136607742Y-52088511D01*
X136453475Y-52167115D01*
X136313397Y-52268887D01*
X136190967Y-52391317D01*
X136089195Y-52531395D01*
X136010591Y-52685664D01*
X135957085Y-52850335D01*
X135955884Y-52857919D01*
X116070499Y-52857919D01*
X116070499Y-52460048D01*
X116064091Y-52400437D01*
X116060689Y-52391317D01*
X116013797Y-52265591D01*
X116013793Y-52265584D01*
X115927547Y-52150375D01*
X115927544Y-52150372D01*
X115812335Y-52064126D01*
X115812328Y-52064122D01*
X115677482Y-52013828D01*
X115677483Y-52013828D01*
X115617883Y-52007421D01*
X115617881Y-52007420D01*
X115617873Y-52007420D01*
X115617864Y-52007420D01*
X113522129Y-52007420D01*
X113522123Y-52007421D01*
X113462516Y-52013828D01*
X113327671Y-52064122D01*
X113327664Y-52064126D01*
X113212455Y-52150372D01*
X113212452Y-52150375D01*
X113126206Y-52265584D01*
X113126202Y-52265591D01*
X113075908Y-52400437D01*
X113069501Y-52460036D01*
X113069501Y-52460043D01*
X113069500Y-52460055D01*
X113069500Y-53755790D01*
X113069501Y-53755796D01*
X113075908Y-53815403D01*
X113126202Y-53950248D01*
X113126206Y-53950255D01*
X113212452Y-54065464D01*
X113212455Y-54065467D01*
X113327664Y-54151713D01*
X113327671Y-54151717D01*
X113462517Y-54202011D01*
X113470062Y-54203794D01*
X113469523Y-54206071D01*
X113523287Y-54228328D01*
X113563147Y-54285713D01*
X113569500Y-54324895D01*
X113569500Y-54660734D01*
X113549815Y-54727773D01*
X113518387Y-54761051D01*
X113453072Y-54808505D01*
X113330588Y-54930989D01*
X113330588Y-54930990D01*
X113330586Y-54930992D01*
X113286859Y-54991176D01*
X113228768Y-55071131D01*
X113150128Y-55225472D01*
X113096597Y-55390222D01*
X113069500Y-55561309D01*
X113069500Y-55682137D01*
X113049815Y-55749176D01*
X113033181Y-55769818D01*
X111860343Y-56942655D01*
X111860220Y-56942779D01*
X111860218Y-56942781D01*
X111720861Y-57082138D01*
X111719027Y-57084882D01*
X111712462Y-57091490D01*
X111686804Y-57105607D01*
X111662604Y-57122091D01*
X111656552Y-57122252D01*
X111651247Y-57125172D01*
X111622032Y-57123176D01*
X111592760Y-57123960D01*
X111587579Y-57120823D01*
X111581540Y-57120411D01*
X111558043Y-57102939D01*
X111532992Y-57087771D01*
X111530330Y-57082332D01*
X111525472Y-57078720D01*
X111515150Y-57051316D01*
X111502278Y-57025014D01*
X111501413Y-57014844D01*
X111500845Y-57013334D01*
X111501160Y-57011861D01*
X111500500Y-57004091D01*
X111500500Y-51003750D01*
X111500726Y-50996263D01*
X111518271Y-50706205D01*
X111520076Y-50691340D01*
X111571780Y-50409201D01*
X111575364Y-50394663D01*
X111602984Y-50306027D01*
X111660696Y-50120822D01*
X111665998Y-50106841D01*
X111783731Y-49845249D01*
X111790676Y-49832016D01*
X111939080Y-49586526D01*
X111947567Y-49574230D01*
X112124480Y-49348417D01*
X112134395Y-49337226D01*
X112337226Y-49134395D01*
X112348417Y-49124480D01*
X112574230Y-48947567D01*
X112586526Y-48939080D01*
X112832016Y-48790676D01*
X112845249Y-48783731D01*
X113106841Y-48665998D01*
X113120822Y-48660696D01*
X113394668Y-48575362D01*
X113409197Y-48571780D01*
X113691344Y-48520075D01*
X113706201Y-48518271D01*
X113996264Y-48500726D01*
X114003751Y-48500500D01*
X114065892Y-48500500D01*
X159487949Y-48500500D01*
X159554988Y-48520185D01*
G37*
G04 #@! TD.AperFunction*
G04 #@! TA.AperFunction,Conductor*
G36*
X161568202Y-94049068D02*
G01*
X161574680Y-94055100D01*
X161963181Y-94443601D01*
X161996666Y-94504924D01*
X161999500Y-94531282D01*
X161999500Y-106087770D01*
X161979815Y-106154809D01*
X161979238Y-106155699D01*
X161972228Y-106166403D01*
X161957288Y-106181344D01*
X161873606Y-106317013D01*
X161872680Y-106318429D01*
X161847313Y-106340032D01*
X161822533Y-106362321D01*
X161820636Y-106362751D01*
X161819487Y-106363731D01*
X161811702Y-106364782D01*
X161768942Y-106374500D01*
X161281058Y-106374500D01*
X161214019Y-106354815D01*
X161175519Y-106315597D01*
X161160228Y-106290806D01*
X161092712Y-106181344D01*
X160968656Y-106057288D01*
X160819334Y-105965186D01*
X160652797Y-105910001D01*
X160652795Y-105910000D01*
X160550010Y-105899500D01*
X159549998Y-105899500D01*
X159549980Y-105899501D01*
X159447203Y-105910000D01*
X159447200Y-105910001D01*
X159280668Y-105965185D01*
X159280663Y-105965187D01*
X159131342Y-106057289D01*
X159007289Y-106181342D01*
X158915187Y-106330663D01*
X158915185Y-106330668D01*
X158904554Y-106362751D01*
X158860001Y-106497203D01*
X158860001Y-106497204D01*
X158860000Y-106497204D01*
X158849500Y-106599983D01*
X158849500Y-107400001D01*
X158849501Y-107400019D01*
X158860000Y-107502796D01*
X158860001Y-107502799D01*
X158915185Y-107669331D01*
X158915187Y-107669336D01*
X159007289Y-107818657D01*
X159100951Y-107912319D01*
X159134436Y-107973642D01*
X159129452Y-108043334D01*
X159100951Y-108087681D01*
X159007289Y-108181342D01*
X158915187Y-108330663D01*
X158915186Y-108330666D01*
X158860001Y-108497203D01*
X158860001Y-108497204D01*
X158860000Y-108497204D01*
X158849500Y-108599983D01*
X158849500Y-109400001D01*
X158849501Y-109400019D01*
X158860000Y-109502796D01*
X158860001Y-109502799D01*
X158915185Y-109669331D01*
X158915186Y-109669334D01*
X159007288Y-109818656D01*
X159131344Y-109942712D01*
X159280666Y-110034814D01*
X159280668Y-110034815D01*
X159301110Y-110041588D01*
X159339502Y-110054310D01*
X159396947Y-110094081D01*
X159423772Y-110158596D01*
X159424500Y-110172016D01*
X159424500Y-112884242D01*
X159404815Y-112951281D01*
X159388181Y-112971923D01*
X159239894Y-113120209D01*
X159239890Y-113120213D01*
X159114949Y-113292182D01*
X159110484Y-113300946D01*
X159062509Y-113351742D01*
X158994688Y-113368536D01*
X158928553Y-113345998D01*
X158889516Y-113300946D01*
X158885050Y-113292182D01*
X158757241Y-113116266D01*
X158758108Y-113115635D01*
X158731641Y-113056581D01*
X158730500Y-113039800D01*
X158730500Y-112699375D01*
X158692052Y-112506089D01*
X158692051Y-112506088D01*
X158692051Y-112506084D01*
X158663982Y-112438319D01*
X158616635Y-112324011D01*
X158616628Y-112323998D01*
X158507139Y-112160137D01*
X158507136Y-112160133D01*
X158364686Y-112017683D01*
X158364655Y-112017654D01*
X151024891Y-104677890D01*
X150991406Y-104616567D01*
X150996390Y-104546875D01*
X151024891Y-104502528D01*
X159740602Y-95786818D01*
X159801925Y-95753333D01*
X159828283Y-95750499D01*
X160910371Y-95750499D01*
X160910372Y-95750499D01*
X160969983Y-95744091D01*
X161104831Y-95693796D01*
X161220046Y-95607546D01*
X161306296Y-95492331D01*
X161356591Y-95357483D01*
X161363000Y-95297873D01*
X161362999Y-94142780D01*
X161382684Y-94075742D01*
X161435487Y-94029987D01*
X161504646Y-94020043D01*
X161568202Y-94049068D01*
G37*
G04 #@! TD.AperFunction*
M02*
