M48
INCH,TZ
T1C0.0118
T2C0.0315
T3C0.0394
T4C0.0433
T5C0.0512
T6C0.0550
%
G90
G05
T1
X61677Y-40598
T2
X45105Y-39908
X45105Y-40908
X45105Y-41908
X45106Y-20909
X45106Y-21909
X45106Y-22909
X45106Y-23909
X45106Y-24909
X45106Y-25909
X45106Y-26909
X45106Y-27909
X45106Y-28909
X45106Y-29909
X45106Y-30909
X45106Y-31909
X45106Y-32909
X45106Y-33909
X45106Y-34909
X45106Y-35909
X45106Y-36909
X45106Y-37909
X45106Y-38909
X54106Y-20909
X54106Y-21909
X54106Y-22909
X54106Y-23909
X54106Y-24909
X54106Y-25909
X54106Y-26909
X54106Y-27909
X54106Y-28909
X54106Y-29909
X54106Y-30909
X54106Y-31909
X54106Y-32909
X54106Y-33909
X54106Y-34909
X54106Y-35909
X54106Y-36909
X54106Y-37909
X54106Y-38909
X54106Y-39909
X54106Y-40909
X54106Y-41909
T3
X59946Y-37106
X61098Y-44882
X62098Y-44882
X62938Y-37106
X63098Y-44882
X64098Y-44882
T4
X61723Y-30905
X65723Y-30905
T5
X61417Y-23543
X61417Y-28346
X63780Y-29134
X66142Y-23543
X66142Y-28346
T6
X62422Y-20111
X64422Y-20111
M30
